{
.appVersion = "1043";
classes = (
{
code = "";
name = DevaIMatras;
}
);
copyright = "Copyright 2016 The Miriam Libre Project Authors (https://github.com/MichalSahar/Miriam-Libre)";
customParameters = (
{
name = fsType;
value = (
);
},
{
name = license;
value = "This Font Software is licensed under the SIL Open Font License, Version 1.1. This license is available with a FAQ at: http://scripts.sil.org/OFL";
},
{
name = trademark;
value = "Miriam Libre is a tradmark of Michal Sahar";
},
{
name = licenseURL;
value = "http://scripts.sil.org/OFL";
},
{
name = vendorID;
value = MCHL;
}
);
date = "2016-03-12 18:16:49 +0000";
designer = "Michal Sahar";
designerURL = "http://hagilda.com";
familyName = "Miriam Libre";
featurePrefixes = (
{
automatic = 1;
code = "languagesystem DFLT dflt;\012languagesystem latn dflt;\012languagesystem hebr dflt;\012languagesystem latn ROM;\012languagesystem latn MOL;\012languagesystem latn KAZ;\012languagesystem latn TAT;\012languagesystem latn TRK;\012languagesystem latn CRT;\012languagesystem latn AZE;\012";
name = Languagesystems;
}
);
features = (
{
automatic = 1;
code = "feature ccmp;\012feature locl;\012feature sups;\012feature frac;\012feature ordn;\012feature pnum;\012feature tnum;\012feature c2sc;\012feature smcp;\012feature salt;\012feature ss01;\012";
name = aalt;
},
{
automatic = 1;
code = "lookup latn_comb1 {\012	script latn;\012@CombiningTopAccents = [acutecomb brevecomb caroncomb circumflexcomb commaturnedabovecomb dieresiscomb dotaccentcomb gravecomb hungarumlautcomb macroncomb ringcomb tildecomb];\012@CombiningNonTopAccents = [cedillacomb ogonekcomb slashlongcomb slashshortcomb strokelongcomb strokeshortcomb];\012	sub [i]' @CombiningTopAccents by [idotless];\012	sub [i]' @CombiningNonTopAccents @CombiningTopAccents by [idotless];\012} latn_comb1;\012";
name = ccmp;
},
{
automatic = 1;

glyphs = (
{
glyphname = A;
lastChange = "2016-03-12 01:06:39 +0000";
layers = (
{
anchors = (
{
name = bottom;
position = "{305, 0}";
},
{
name = ogonek;
position = "{546, -1}";
},
{
name = top;
position = "{305, 687}";
}
);
hints = (
{
horizontal = 1;
origin = "{0, 25}";
target = up;
type = BottomGhost;
},
{
horizontal = 1;
origin = "{0, 4}";
target = "{1, 2}";
},
{
horizontal = 1;
origin = "{0, 18}";
target = down;
type = TopGhost;
}
);
layerId = "DDABD3A5-4A8B-4D55-9B9E-1269DFBEF3A1";
paths = (
{
closed = 1;
nodes = (
"100 0 LINE SMOOTH",
"108 0 OFFCURVE",
"117 5 OFFCURVE",
"119 13 CURVE SMOOTH",
"175 187 LINE",
"435 187 LINE",
"491 13 LINE SMOOTH",
"494 5 OFFCURVE",
"502 0 OFFCURVE",
"510 0 CURVE SMOOTH",
"559 0 LINE SMOOTH",
"571 0 OFFCURVE",
"578 10 OFFCURVE",
"574 22 CURVE SMOOTH",
"357 682 LINE",
"354 690 OFFCURVE",
"346 695 OFFCURVE",
"338 695 CURVE SMOOTH",
"272 695 LINE SMOOTH",
"264 695 OFFCURVE",
"256 690 OFFCURVE",
"253 682 CURVE",
"36 22 LINE SMOOTH",
"32 10 OFFCURVE",
"39 0 OFFCURVE",
"51 0 CURVE SMOOTH"
);
},
{
closed = 1;
nodes = (
"305 591 LINE",
"412 260 LINE",
"198 260 LINE"
);
}
);
width = 610;
}
);
leftKerningGroup = A;
rightKerningGroup = A;
unicode = 0041;
},
{
glyphname = Aogonek;
lastChange = "2016-03-12 01:06:39 +0000";
layers = (
{
hints = (
{
horizontal = 1;
origin = "{0, 42}";
target = "{0, 8}";
},
{
horizontal = 1;
origin = "{0, 29}";
target = up;
type = BottomGhost;
},
{
horizontal = 1;
origin = "{0, 34}";
target = "{1, 2}";
},
{
horizontal = 1;
origin = "{0, 22}";
target = down;
type = TopGhost;
},
{
origin = "{0, 39}";
target = "{0, 11}";
}
);
layerId = "DDABD3A5-4A8B-4D55-9B9E-1269DFBEF3A1";
paths = (
{
closed = 1;
nodes = (
"571 -197 LINE SMOOTH",
"579 -197 OFFCURVE",
"586 -190 OFFCURVE",
"586 -182 CURVE SMOOTH",
"586 -142 LINE SMOOTH",
"586 -134 OFFCURVE",
"579 -127 OFFCURVE",
"571 -127 CURVE SMOOTH",
"544 -127 LINE SMOOTH",
"523 -127 OFFCURVE",
"502 -120 OFFCURVE",
"502 -90 CURVE SMOOTH",
"502 -65 OFFCURVE",
"516 -40 OFFCURVE",
"558 4 CURVE SMOOTH",
"569 15 OFFCURVE",
"572 29 OFFCURVE",
"568 43 CURVE SMOOTH",
"357 682 LINE SMOOTH",
"354 690 OFFCURVE",
"346 695 OFFCURVE",
"338 695 CURVE SMOOTH",
"272 695 LINE SMOOTH",
"264 695 OFFCURVE",
"256 690 OFFCURVE",
"253 682 CURVE SMOOTH",
"36 22 LINE SMOOTH",
"32 10 OFFCURVE",
"39 0 OFFCURVE",
"51 0 CURVE SMOOTH",
"100 0 LINE SMOOTH",
"108 0 OFFCURVE",
"117 5 OFFCURVE",
"119 13 CURVE SMOOTH",
"175 187 LINE",
"435 187 LINE",
"493 7 LINE",
"462 -19 OFFCURVE",
"423 -63 OFFCURVE",
"423 -112 CURVE SMOOTH",
"423 -165 OFFCURVE",
"473 -197 OFFCURVE",
"531 -197 CURVE SMOOTH"
);
},
{
closed = 1;
nodes = (
"305 591 LINE",
"411 260 LINE",
"198 260 LINE"
);
}
);
width = 614;
}
);
leftKerningGroup = A;
leftMetricsKey = A;
rightKerningGroup = A;
rightMetricsKey = A;
unicode = 0104;
},
{
glyphname = Aring;
lastChange = "2016-03-12 01:06:39 +0000";
layers = (
{
anchors = (
{
name = bottom;
position = "{308, 0}";
},
{
name = ogonek;
position = "{563, -1}";
},
{
name = top;
position = "{300, 961}";
}
);
hints = (
{
horizontal = 1;
origin = "{0, 25}";
target = up;
type = BottomGhost;
},
{
horizontal = 1;
origin = "{0, 4}";
target = "{1, 2}";
},
{
horizontal = 1;
origin = "{0, 18}";
target = down;
type = TopGhost;
},
{
horizontal = 1;
origin = "{2, 11}";
target = "{3, 11}";
},
{
horizontal = 1;
origin = "{3, 5}";
target = "{2, 5}";
},
{
origin = "{2, 8}";
target = "{3, 2}";
},
{
origin = "{3, 8}";
target = "{2, 2}";
}
);
layerId = "DDABD3A5-4A8B-4D55-9B9E-1269DFBEF3A1";
paths = (
{
closed = 1;
nodes = (
"100 0 LINE SMOOTH",
"108 0 OFFCURVE",
"117 5 OFFCURVE",
"119 13 CURVE",
"175 187 LINE",
"435 187 LINE",
"491 13 LINE",
"494 5 OFFCURVE",
"502 0 OFFCURVE",
"510 0 CURVE SMOOTH",
"559 0 LINE SMOOTH",
"571 0 OFFCURVE",
"578 10 OFFCURVE",
"574 22 CURVE SMOOTH",
"357 682 LINE",
"354 690 OFFCURVE",
"346 695 OFFCURVE",
"338 695 CURVE SMOOTH",
"272 695 LINE SMOOTH",
"264 695 OFFCURVE",
"256 690 OFFCURVE",
"253 682 CURVE",
"36 22 LINE SMOOTH",
"32 10 OFFCURVE",
"39 0 OFFCURVE",
"51 0 CURVE SMOOTH"
);
},
{
closed = 1;
nodes = (
"305 591 LINE",
"412 260 LINE",
"198 260 LINE"
);
},
{
closed = 1;
nodes = (
"350 739 OFFCURVE",
"387 776 OFFCURVE",
"387 821 CURVE SMOOTH",
"387 866 OFFCURVE",
"350 903 OFFCURVE",
"305 903 CURVE SMOOTH",
"260 903 OFFCURVE",
"223 866 OFFCURVE",
"223 821 CURVE SMOOTH",
"223 776 OFFCURVE",
"260 739 OFFCURVE",
"305 739 CURVE SMOOTH"
);
},
{
closed = 1;
nodes = (
"289 792 OFFCURVE",
"276 805 OFFCURVE",
"276 821 CURVE SMOOTH",
"276 837 OFFCURVE",
"289 850 OFFCURVE",
"305 850 CURVE SMOOTH",
"321 850 OFFCURVE",
"334 837 OFFCURVE",
"334 821 CURVE SMOOTH",
"334 805 OFFCURVE",
"321 792 OFFCURVE",
"305 792 CURVE SMOOTH"
);
}
);
width = 610;
}
);
leftKerningGroup = A;
leftMetricsKey = A;
rightKerningGroup = A;
rightMetricsKey = A;
unicode = 00C5;
},
{
glyphname = AE;
lastChange = "2016-03-12 01:06:39 +0000";
layers = (
{
anchors = (
{
name = bottom;
position = "{483, 0}";
},
{
name = top;
position = "{483, 687}";
}
);
hints = (
{
horizontal = 1;
origin = "{0, 45}";
target = "{0, 18}";
},
{
horizontal = 1;
origin = "{0, 4}";
target = "{1, 2}";
},
{
horizontal = 1;
origin = "{0, 19}";
target = "{0, 28}";
},
{
horizontal = 1;
origin = "{0, 38}";
target = "{0, 29}";
},
{
origin = "{0, 6}";
target = "{0, 18}";
}
);
layerId = "DDABD3A5-4A8B-4D55-9B9E-1269DFBEF3A1";
paths = (
{
closed = 1;
nodes = (
"71 0 LINE SMOOTH",
"80 0 OFFCURVE",
"89 3 OFFCURVE",
"95 13 CURVE SMOOTH",
"205 187 LINE",
"437 187 LINE",
"437 36 LINE SMOOTH",
"437 16 OFFCURVE",
"453 0 OFFCURVE",
"473 0 CURVE SMOOTH",
"802 0 LINE SMOOTH",
"810 0 OFFCURVE",
"816 6 OFFCURVE",
"816 14 CURVE SMOOTH",
"816 63 LINE SMOOTH",
"816 71 OFFCURVE",
"810 77 OFFCURVE",
"802 77 CURVE SMOOTH",
"519 77 LINE",
"519 329 LINE",
"735 329 LINE SMOOTH",
"743 329 OFFCURVE",
"749 335 OFFCURVE",
"749 343 CURVE SMOOTH",
"749 390 LINE SMOOTH",
"749 398 OFFCURVE",
"743 404 OFFCURVE",
"735 404 CURVE SMOOTH",
"519 404 LINE",
"519 618 LINE",
"802 618 LINE SMOOTH",
"810 618 OFFCURVE",
"816 624 OFFCURVE",
"816 632 CURVE SMOOTH",
"816 681 LINE SMOOTH",
"816 689 OFFCURVE",
"810 695 OFFCURVE",
"802 695 CURVE SMOOTH",
"454 695 LINE SMOOTH",
"445 695 OFFCURVE",
"436 690 OFFCURVE",
"431 682 CURVE SMOOTH",
"4 22 LINE SMOOTH",
"-4 10 OFFCURVE",
"2 0 OFFCURVE",
"14 0 CURVE SMOOTH"
);
},
{
closed = 1;
nodes = (
"437 552 LINE",
"437 260 LINE",
"252 260 LINE"
);
}
);
width = 871;
}
);
rightKerningGroup = E;
rightMetricsKey = E;
unicode = 00C6;
},
{
glyphname = B;
lastChange = "2016-03-12 01:06:39 +0000";
layers = (
{
anchors = (
{
name = bottom;
position = "{273, 0}";
},
{
name = top;
position = "{262, 687}";
}
);
hints = (
{
horizontal = 1;
origin = "{0, 20}";
target = "{1, 8}";
},
{
horizontal = 1;
origin = "{1, 0}";
target = "{2, 8}";
},
{
horizontal = 1;
origin = "{0, 13}";
target = "{2, 0}";
},
{
origin = "{0, 17}";
target = "{1, 8}";
},
{
origin = "{1, 4}";
target = "{0, 3}";
},
{
origin = "{2, 4}";
target = "{0, 9}";
}
);
layerId = "DDABD3A5-4A8B-4D55-9B9E-1269DFBEF3A1";
paths = (
{
closed = 1;
nodes = (
"324 0 LINE SMOOTH",
"437 0 OFFCURVE",
"527 89 OFFCURVE",
"527 204 CURVE SMOOTH",
"527 283 OFFCURVE",
"484 350 OFFCURVE",
"413 379 CURVE",
"458 414 OFFCURVE",
"481 464 OFFCURVE",
"481 519 CURVE SMOOTH",
"481 621 OFFCURVE",
"403 695 OFFCURVE",
"299 695 CURVE SMOOTH",
"126 695 LINE SMOOTH",
"106 695 OFFCURVE",
"90 679 OFFCURVE",
"90 659 CURVE SMOOTH",
"90 36 LINE SMOOTH",
"90 16 OFFCURVE",
"106 0 OFFCURVE",
"126 0 CURVE SMOOTH"
);
},
{
closed = 1;
nodes = (
"170 323 LINE",
"319 323 LINE SMOOTH",
"391 323 OFFCURVE",
"444 271 OFFCURVE",
"444 200 CURVE SMOOTH",
"444 129 OFFCURVE",
"391 75 OFFCURVE",
"319 75 CURVE SMOOTH",
"170 75 LINE"
);
},
{
closed = 1;
nodes = (
"170 621 LINE",
"291 621 LINE SMOOTH",
"354 621 OFFCURVE",
"400 574 OFFCURVE",
"400 514 CURVE SMOOTH",
"400 451 OFFCURVE",
"349 398 OFFCURVE",
"286 398 CURVE SMOOTH",
"170 398 LINE"
);
}
);
width = 567;
}
);
leftKerningGroup = H;
rightKerningGroup = B;
unicode = 0042;
},
{
glyphname = C;
lastChange = "2016-03-12 01:06:38 +0000";
layers = (
{
anchors = (
{
name = bottom;
position = "{309, 0}";
},
{
name = top;
position = "{309, 687}";
}
);
hints = (
{
horizontal = 1;
origin = "{0, 43}";
target = "{0, 14}";
},
{
horizontal = 1;
origin = "{0, 21}";
target = "{0, 36}";
},
{
origin = "{0, 40}";
target = "{0, 17}";
}
);
layerId = "DDABD3A5-4A8B-4D55-9B9E-1269DFBEF3A1";
paths = (
{
closed = 1;
nodes = (
"381 -13 OFFCURVE",
"443 13 OFFCURVE",
"489 59 CURVE SMOOTH",
"496 66 OFFCURVE",
"496 75 OFFCURVE",
"489 84 CURVE SMOOTH",
"482 92 OFFCURVE",
"474 102 OFFCURVE",
"462 114 CURVE SMOOTH",
"454 120 OFFCURVE",
"442 121 OFFCURVE",
"433 112 CURVE SMOOTH",
"401 81 OFFCURVE",
"359 64 OFFCURVE",
"310 64 CURVE SMOOTH",
"223 64 OFFCURVE",
"153 141 OFFCURVE",
"153 231 CURVE SMOOTH",
"153 465 LINE SMOOTH",
"153 555 OFFCURVE",
"223 632 OFFCURVE",
"310 632 CURVE SMOOTH",
"359 632 OFFCURVE",
"401 615 OFFCURVE",
"433 584 CURVE SMOOTH",
"442 575 OFFCURVE",
"454 576 OFFCURVE",
"462 582 CURVE SMOOTH",
"474 594 OFFCURVE",
"482 604 OFFCURVE",
"489 612 CURVE SMOOTH",
"496 621 OFFCURVE",
"496 630 OFFCURVE",
"489 637 CURVE SMOOTH",
"443 683 OFFCURVE",
"381 709 OFFCURVE",
"309 709 CURVE SMOOTH",
"177 709 OFFCURVE",
"70 600 OFFCURVE",
"70 465 CURVE SMOOTH",
"70 231 LINE SMOOTH",
"70 96 OFFCURVE",
"177 -13 OFFCURVE",
"309 -13 CURVE SMOOTH"
);
}
);
width = 546;
}
);
leftKerningGroup = O;
rightKerningGroup = C;
unicode = 0043;
},
{
glyphname = D;
lastChange = "2016-03-12 01:06:39 +0000";
layers = (
{
anchors = (
{
name = bottom;
position = "{281, 0}";
},
{
name = center;
position = "{169, 349}";
},
{
name = top;
position = "{274, 687}";
}
);
hints = (
{
horizontal = 1;
origin = "{0, 15}";
target = "{1, 9}";
},
{
horizontal = 1;
origin = "{0, 8}";
target = "{1, 0}";
},
{
origin = "{0, 12}";
target = "{1, 9}";
},
{
origin = "{1, 5}";
target = "{0, 3}";
}
);
layerId = "DDABD3A5-4A8B-4D55-9B9E-1269DFBEF3A1";
paths = (
{
closed = 1;
nodes = (
"304 0 LINE SMOOTH",
"448 0 OFFCURVE",
"565 117 OFFCURVE",
"565 264 CURVE SMOOTH",
"565 431 LINE SMOOTH",
"565 578 OFFCURVE",
"448 695 OFFCURVE",
"304 695 CURVE SMOOTH",
"126 695 LINE SMOOTH",
"106 695 OFFCURVE",
"90 679 OFFCURVE",
"90 659 CURVE SMOOTH",
"90 36 LINE SMOOTH",
"90 16 OFFCURVE",
"106 0 OFFCURVE",
"126 0 CURVE SMOOTH"
);
},
{
closed = 1;
nodes = (
"172 618 LINE",
"304 618 LINE SMOOTH",
"403 618 OFFCURVE",
"483 539 OFFCURVE",
"483 439 CURVE SMOOTH",
"483 257 LINE SMOOTH",
"483 157 OFFCURVE",
"403 77 OFFCURVE",
"304 77 CURVE SMOOTH",
"172 77 LINE"
);
}
);
width = 630;
}
);
leftKerningGroup = H;
rightKerningGroup = D;
unicode = 0044;
},
{
glyphname = E;
lastChange = "2016-03-12 01:06:38 +0000";
layers = (
{
anchors = (
{
name = bottom;
position = "{299, 0}";
},
{
name = ogonek;
position = "{433, 1}";
},
{
name = top;
position = "{280, 687}";
}
);
hints = (
{
horizontal = 1;
origin = "{0, 35}";
target = "{0, 8}";
},
{
horizontal = 1;
origin = "{0, 9}";
target = "{0, 18}";
},
{
horizontal = 1;
origin = "{0, 28}";
target = "{0, 19}";
},
{
origin = "{0, 32}";
target = "{0, 8}";
}
);
layerId = "DDABD3A5-4A8B-4D55-9B9E-1269DFBEF3A1";
paths = (
{
closed = 1;
nodes = (
"455 0 LINE SMOOTH",
"463 0 OFFCURVE",
"469 6 OFFCURVE",
"469 14 CURVE SMOOTH",
"469 63 LINE SMOOTH",
"469 71 OFFCURVE",
"463 77 OFFCURVE",
"455 77 CURVE SMOOTH",
"172 77 LINE",
"172 329 LINE",
"388 329 LINE SMOOTH",
"396 329 OFFCURVE",
"402 335 OFFCURVE",
"402 343 CURVE SMOOTH",
"402 390 LINE SMOOTH",
"402 398 OFFCURVE",
"396 404 OFFCURVE",
"388 404 CURVE SMOOTH",
"172 404 LINE",
"172 618 LINE",
"455 618 LINE SMOOTH",
"463 618 OFFCURVE",
"469 624 OFFCURVE",
"469 632 CURVE SMOOTH",
"469 681 LINE SMOOTH",
"469 689 OFFCURVE",
"463 695 OFFCURVE",
"455 695 CURVE SMOOTH",
"126 695 LINE SMOOTH",
"106 695 OFFCURVE",
"90 679 OFFCURVE",
"90 659 CURVE SMOOTH",
"90 36 LINE SMOOTH",
"90 16 OFFCURVE",
"106 0 OFFCURVE",
"126 0 CURVE SMOOTH"
);
}
);
width = 524;
}
);
leftKerningGroup = H;
rightKerningGroup = E;
unicode = 0045;
},
{
glyphname = Eogonek;
lastChange = "2016-03-12 01:06:38 +0000";
layers = (
{
hints = (
{
horizontal = 1;
origin = "{0, 56}";
target = "{0, 8}";
},
{
horizontal = 1;
origin = "{0, 49}";
target = "{0, 22}";
},
{
horizontal = 1;
origin = "{0, 23}";
target = "{0, 32}";
},
{
horizontal = 1;
origin = "{0, 42}";
target = "{0, 33}";
},
{
origin = "{0, 46}";
target = "{0, 22}";
},
{
origin = "{0, 53}";
target = "{0, 11}";
}
);
layerId = "DDABD3A5-4A8B-4D55-9B9E-1269DFBEF3A1";
paths = (
{
closed = 1;
nodes = (
"462 -197 LINE SMOOTH",
"470 -197 OFFCURVE",
"477 -190 OFFCURVE",
"477 -182 CURVE SMOOTH",
"477 -142 LINE SMOOTH",
"477 -134 OFFCURVE",
"470 -127 OFFCURVE",
"462 -127 CURVE SMOOTH",
"442 -127 LINE SMOOTH",
"421 -127 OFFCURVE",
"400 -120 OFFCURVE",
"400 -90 CURVE SMOOTH",
"400 -58 OFFCURVE",
"425 -32 OFFCURVE",
"456 0 CURVE SMOOTH",
"464 8 OFFCURVE",
"469 17 OFFCURVE",
"469 28 CURVE SMOOTH",
"469 63 LINE SMOOTH",
"469 71 OFFCURVE",
"463 77 OFFCURVE",
"455 77 CURVE SMOOTH",
"172 77 LINE",
"172 329 LINE",
"388 329 LINE SMOOTH",
"396 329 OFFCURVE",
"402 335 OFFCURVE",
"402 343 CURVE SMOOTH",
"402 390 LINE SMOOTH",
"402 398 OFFCURVE",
"396 404 OFFCURVE",
"388 404 CURVE SMOOTH",
"172 404 LINE",
"172 618 LINE",
"455 618 LINE SMOOTH",
"463 618 OFFCURVE",
"469 624 OFFCURVE",
"469 632 CURVE SMOOTH",
"469 681 LINE SMOOTH",
"469 689 OFFCURVE",
"463 695 OFFCURVE",
"455 695 CURVE SMOOTH",
"126 695 LINE SMOOTH",
"106 695 OFFCURVE",
"90 679 OFFCURVE",
"90 659 CURVE SMOOTH",
"90 36 LINE SMOOTH",
"90 16 OFFCURVE",
"106 0 OFFCURVE",
"126 0 CURVE SMOOTH",
"388 0 LINE",
"357 -26 OFFCURVE",
"321 -67 OFFCURVE",
"321 -112 CURVE SMOOTH",
"321 -165 OFFCURVE",
"371 -197 OFFCURVE",
"429 -197 CURVE SMOOTH"
);
}
);
width = 532;
}
);
leftKerningGroup = H;
leftMetricsKey = E;
rightKerningGroup = E;
rightMetricsKey = E;
unicode = 0118;
},
{
glyphname = F;
lastChange = "2016-03-12 01:06:38 +0000";
layers = (
{
anchors = (
{
name = bottom;
position = "{132, 0}";
},
{
name = top;
position = "{285, 687}";
}
);
hints = (
{
horizontal = 1;
origin = "{0, 30}";
target = up;
type = BottomGhost;
},
{
horizontal = 1;
origin = "{0, 4}";
target = "{0, 13}";
},
{
horizontal = 1;
origin = "{0, 23}";
target = "{0, 14}";
},
{
origin = "{0, 27}";
target = "{0, 3}";
}
);
layerId = "DDABD3A5-4A8B-4D55-9B9E-1269DFBEF3A1";
paths = (
{
closed = 1;
nodes = (
"158 0 LINE SMOOTH",
"166 0 OFFCURVE",
"172 6 OFFCURVE",
"172 14 CURVE SMOOTH",
"172 309 LINE",
"388 309 LINE SMOOTH",
"396 309 OFFCURVE",
"402 315 OFFCURVE",
"402 323 CURVE SMOOTH",
"402 370 LINE SMOOTH",
"402 378 OFFCURVE",
"396 384 OFFCURVE",
"388 384 CURVE SMOOTH",
"172 384 LINE",
"172 618 LINE",
"455 618 LINE SMOOTH",
"463 618 OFFCURVE",
"469 624 OFFCURVE",
"469 632 CURVE SMOOTH",
"469 681 LINE SMOOTH",
"469 689 OFFCURVE",
"463 695 OFFCURVE",
"455 695 CURVE SMOOTH",
"126 695 LINE SMOOTH",
"106 695 OFFCURVE",
"90 679 OFFCURVE",
"90 659 CURVE SMOOTH",
"90 14 LINE SMOOTH",
"90 6 OFFCURVE",
"96 0 OFFCURVE",
"104 0 CURVE SMOOTH"
);
}
);
width = 509;
}
);
leftKerningGroup = H;
rightKerningGroup = F;
unicode = 0046;
},
{
glyphname = G;
lastChange = "2016-03-12 01:06:38 +0000";
layers = (
{
anchors = (
{
name = bottom;
position = "{314, 0}";
},
{
name = top;
position = "{314, 687}";
}
);
hints = (
{
horizontal = 1;
origin = "{0, 48}";
target = "{0, 19}";
},
{
horizontal = 1;
origin = "{0, 14}";
target = "{0, 7}";
},
{
horizontal = 1;
origin = "{0, 26}";
target = "{0, 41}";
},
{
origin = "{0, 45}";
target = "{0, 22}";
},
{
origin = "{0, 16}";
target = "{0, 2}";
}
);
layerId = "DDABD3A5-4A8B-4D55-9B9E-1269DFBEF3A1";
paths = (
{
closed = 1;
nodes = (
"448 -12 OFFCURVE",
"557 97 OFFCURVE",
"557 232 CURVE SMOOTH",
"557 345 LINE SMOOTH",
"557 365 OFFCURVE",
"541 381 OFFCURVE",
"521 381 CURVE SMOOTH",
"336 381 LINE SMOOTH",
"328 381 OFFCURVE",
"322 375 OFFCURVE",
"322 367 CURVE SMOOTH",
"322 321 LINE SMOOTH",
"322 313 OFFCURVE",
"328 307 OFFCURVE",
"336 307 CURVE SMOOTH",
"477 307 LINE",
"477 228 LINE SMOOTH",
"477 138 OFFCURVE",
"404 65 OFFCURVE",
"315 65 CURVE SMOOTH",
"225 65 OFFCURVE",
"152 142 OFFCURVE",
"152 232 CURVE SMOOTH",
"152 465 LINE SMOOTH",
"152 555 OFFCURVE",
"225 632 OFFCURVE",
"315 632 CURVE SMOOTH",
"366 632 OFFCURVE",
"410 615 OFFCURVE",
"443 584 CURVE SMOOTH",
"452 575 OFFCURVE",
"464 576 OFFCURVE",
"472 582 CURVE SMOOTH",
"484 594 OFFCURVE",
"493 603 OFFCURVE",
"500 611 CURVE SMOOTH",
"507 620 OFFCURVE",
"507 629 OFFCURVE",
"500 636 CURVE SMOOTH",
"453 683 OFFCURVE",
"388 709 OFFCURVE",
"314 709 CURVE SMOOTH",
"179 709 OFFCURVE",
"70 600 OFFCURVE",
"70 465 CURVE SMOOTH",
"70 232 LINE SMOOTH",
"70 97 OFFCURVE",
"179 -12 OFFCURVE",
"314 -12 CURVE SMOOTH"
);
}
);
width = 617;
}
);
leftKerningGroup = O;
rightKerningGroup = G;
unicode = 0047;
},
{
glyphname = H;
lastChange = "2016-03-12 01:06:38 +0000";
layers = (
{
anchors = (
{
name = bottom;
position = "{339, 0}";
},
{
name = center;
position = "{336, 532}";
},
{
name = top;
position = "{331, 687}";
}
);
hints = (
{
horizontal = 1;
origin = "{0, 35}";
target = up;
type = BottomGhost;
},
{
horizontal = 1;
origin = "{0, 4}";
target = "{0, 23}";
},
{
horizontal = 1;
origin = "{0, 28}";
target = down;
type = TopGhost;
},
{
origin = "{0, 32}";
target = "{0, 3}";
},
{
origin = "{0, 6}";
target = "{0, 13}";
}
);
layerId = "DDABD3A5-4A8B-4D55-9B9E-1269DFBEF3A1";
paths = (
{
closed = 1;
nodes = (
"158 0 LINE SMOOTH",
"166 0 OFFCURVE",
"172 6 OFFCURVE",
"172 14 CURVE SMOOTH",
"172 329 LINE",
"508 329 LINE",
"508 14 LINE SMOOTH",
"508 6 OFFCURVE",
"514 0 OFFCURVE",
"522 0 CURVE SMOOTH",
"576 0 LINE SMOOTH",
"584 0 OFFCURVE",
"590 6 OFFCURVE",
"590 14 CURVE SMOOTH",
"590 681 LINE SMOOTH",
"590 689 OFFCURVE",
"584 695 OFFCURVE",
"576 695 CURVE SMOOTH",
"522 695 LINE SMOOTH",
"514 695 OFFCURVE",
"508 689 OFFCURVE",
"508 681 CURVE SMOOTH",
"508 404 LINE",
"172 404 LINE",
"172 681 LINE SMOOTH",
"172 689 OFFCURVE",
"166 695 OFFCURVE",
"158 695 CURVE SMOOTH",
"104 695 LINE SMOOTH",
"96 695 OFFCURVE",
"90 689 OFFCURVE",
"90 681 CURVE SMOOTH",
"90 14 LINE SMOOTH",
"90 6 OFFCURVE",
"96 0 OFFCURVE",
"104 0 CURVE SMOOTH"
);
}
);
width = 680;
}
);
leftKerningGroup = H;
rightKerningGroup = H;
unicode = 0048;
},
{
glyphname = I;
lastChange = "2016-03-12 01:06:38 +0000";
layers = (
{
anchors = (
{
name = bottom;
position = "{218, 0}";
},
{
name = ogonek;
position = "{325, 0}";
},
{
name = top;
position = "{221, 687}";
}
);
hints = (
{
horizontal = 1;
origin = "{0, 35}";
target = "{0, 28}";
},
{
horizontal = 1;
origin = "{0, 18}";
target = "{0, 25}";
},
{
origin = "{0, 27}";
target = "{0, 8}";
}
);
layerId = "DDABD3A5-4A8B-4D55-9B9E-1269DFBEF3A1";
paths = (
{
closed = 1;
nodes = (
"363 0 LINE SMOOTH",
"371 0 OFFCURVE",
"377 6 OFFCURVE",
"377 14 CURVE SMOOTH",
"377 61 LINE SMOOTH",
"377 69 OFFCURVE",
"371 75 OFFCURVE",
"363 75 CURVE SMOOTH",
"262 75 LINE",
"262 620 LINE",
"363 620 LINE SMOOTH",
"371 620 OFFCURVE",
"377 626 OFFCURVE",
"377 634 CURVE SMOOTH",
"377 681 LINE SMOOTH",
"377 689 OFFCURVE",
"371 695 OFFCURVE",
"363 695 CURVE SMOOTH",
"79 695 LINE SMOOTH",
"71 695 OFFCURVE",
"65 689 OFFCURVE",
"65 681 CURVE SMOOTH",
"65 634 LINE SMOOTH",
"65 626 OFFCURVE",
"71 620 OFFCURVE",
"79 620 CURVE SMOOTH",
"180 620 LINE",
"180 75 LINE",
"79 75 LINE SMOOTH",
"71 75 OFFCURVE",
"65 69 OFFCURVE",
"65 61 CURVE SMOOTH",
"65 14 LINE SMOOTH",
"65 6 OFFCURVE",
"71 0 OFFCURVE",
"79 0 CURVE SMOOTH"
);
}
);
width = 442;
}
);
leftKerningGroup = I;
rightKerningGroup = I;
unicode = 0049;
},
{
glyphname = Iogonek;
lastChange = "2016-03-12 01:06:38 +0000";
layers = (
{
hints = (
{
horizontal = 1;
origin = "{0, 56}";
target = "{0, 8}";
},
{
horizontal = 1;
origin = "{0, 49}";
target = "{0, 42}";
},
{
horizontal = 1;
origin = "{0, 32}";
target = "{0, 39}";
},
{
origin = "{0, 53}";
target = "{0, 11}";
},
{
origin = "{0, 41}";
target = "{0, 22}";
}
);
layerId = "DDABD3A5-4A8B-4D55-9B9E-1269DFBEF3A1";
paths = (
{
closed = 1;
nodes = (
"367 -197 LINE SMOOTH",
"375 -197 OFFCURVE",
"382 -190 OFFCURVE",
"382 -182 CURVE SMOOTH",
"382 -142 LINE SMOOTH",
"382 -134 OFFCURVE",
"375 -127 OFFCURVE",
"367 -127 CURVE SMOOTH",
"350 -127 LINE SMOOTH",
"329 -127 OFFCURVE",
"308 -120 OFFCURVE",
"308 -90 CURVE SMOOTH",
"308 -58 OFFCURVE",
"333 -32 OFFCURVE",
"364 0 CURVE SMOOTH",
"372 8 OFFCURVE",
"377 17 OFFCURVE",
"377 28 CURVE SMOOTH",
"377 63 LINE SMOOTH",
"377 71 OFFCURVE",
"371 77 OFFCURVE",
"363 77 CURVE SMOOTH",
"262 77 LINE",
"262 618 LINE",
"363 618 LINE SMOOTH",
"371 618 OFFCURVE",
"377 624 OFFCURVE",
"377 632 CURVE SMOOTH",
"377 681 LINE SMOOTH",
"377 689 OFFCURVE",
"371 695 OFFCURVE",
"363 695 CURVE SMOOTH",
"79 695 LINE SMOOTH",
"71 695 OFFCURVE",
"65 689 OFFCURVE",
"65 681 CURVE SMOOTH",
"65 632 LINE SMOOTH",
"65 624 OFFCURVE",
"71 618 OFFCURVE",
"79 618 CURVE SMOOTH",
"180 618 LINE",
"180 77 LINE",
"79 77 LINE SMOOTH",
"71 77 OFFCURVE",
"65 71 OFFCURVE",
"65 63 CURVE SMOOTH",
"65 14 LINE SMOOTH",
"65 6 OFFCURVE",
"71 0 OFFCURVE",
"79 0 CURVE SMOOTH",
"296 0 LINE",
"265 -26 OFFCURVE",
"229 -67 OFFCURVE",
"229 -112 CURVE SMOOTH",
"229 -165 OFFCURVE",
"279 -197 OFFCURVE",
"337 -197 CURVE SMOOTH"
);
}
);
width = 437;
}
);
leftKerningGroup = I;
rightKerningGroup = I;
unicode = 012E;
},
{
glyphname = J;
lastChange = "2016-03-12 01:06:38 +0000";
layers = (
{
anchors = (
{
name = bottom;
position = "{225, 0}";
},
{
name = top;
position = "{225, 687}";
}
);
hints = (
{
horizontal = 1;
origin = "{0, 23}";
target = "{0, 16}";
},
{
horizontal = 1;
origin = "{0, 8}";
target = down;
type = TopGhost;
},
{
origin = "{0, 12}";
target = "{0, 3}";
}
);
layerId = "DDABD3A5-4A8B-4D55-9B9E-1269DFBEF3A1";
paths = (
{
closed = 1;
nodes = (
"114 0 LINE SMOOTH",
"208 0 OFFCURVE",
"264 72 OFFCURVE",
"264 156 CURVE SMOOTH",
"264 681 LINE SMOOTH",
"264 689 OFFCURVE",
"258 695 OFFCURVE",
"250 695 CURVE SMOOTH",
"196 695 LINE SMOOTH",
"188 695 OFFCURVE",
"182 689 OFFCURVE",
"182 681 CURVE SMOOTH",
"182 157 LINE SMOOTH",
"182 108 OFFCURVE",
"151 76 OFFCURVE",
"104 76 CURVE SMOOTH",
"45 76 LINE SMOOTH",
"36 76 OFFCURVE",
"30 70 OFFCURVE",
"30 61 CURVE SMOOTH",
"30 15 LINE SMOOTH",
"30 6 OFFCURVE",
"36 0 OFFCURVE",
"45 0 CURVE SMOOTH"
);
}
);
width = 359;
},
{
anchors = (
{
name = bottom;
position = "{233, 0}";
},
{
name = top;
position = "{233, 687}";
}
);
associatedMasterId = "DDABD3A5-4A8B-4D55-9B9E-1269DFBEF3A1";
hints = (
{
horizontal = 1;
origin = "{0, 27}";
target = "{0, 14}";
},
{
horizontal = 1;
origin = "{0, 7}";
target = down;
type = TopGhost;
},
{
origin = "{0, 11}";
target = "{0, 2}";
}
);
layerId = "8E1F9C8C-62F4-4AB5-B597-35ECC1E01F18";
name = "Regular Mar 6 16, 02:32";
paths = (
{
closed = 1;
nodes = (
"215 -13 OFFCURVE",
"272 59 OFFCURVE",
"272 144 CURVE SMOOTH",
"272 681 LINE SMOOTH",
"272 689 OFFCURVE",
"266 695 OFFCURVE",
"258 695 CURVE SMOOTH",
"204 695 LINE SMOOTH",
"196 695 OFFCURVE",
"190 689 OFFCURVE",
"190 681 CURVE SMOOTH",
"190 137 LINE SMOOTH",
"190 93 OFFCURVE",
"163 64 OFFCURVE",
"122 64 CURVE SMOOTH",
"98 64 OFFCURVE",
"77 77 OFFCURVE",
"61 94 CURVE SMOOTH",
"55 101 OFFCURVE",
"46 102 OFFCURVE",
"40 97 CURVE SMOOTH",
"7 69 LINE SMOOTH",
"-1 62 OFFCURVE",
"-3 51 OFFCURVE",
"3 42 CURVE SMOOTH",
"29 8 OFFCURVE",
"69 -13 OFFCURVE",
"121 -13 CURVE SMOOTH"
);
}
);
width = 367;
},
{
anchors = (
{
name = bottom;
position = "{257, 0}";
},
{
name = top;
position = "{257, 710}";
}
);
associatedMasterId = "DDABD3A5-4A8B-4D55-9B9E-1269DFBEF3A1";
hints = (
{
horizontal = 1;
origin = "{0, 14}";
target = "{0, 7}";
},
{
horizontal = 1;
origin = "{0, 0}";
target = down;
type = TopGhost;
},
{
origin = "{0, 4}";
target = "{0, 17}";
},
{
horizontal = 1;
place = "{200, -20}";
target = down;
type = TopGhost;
}
);
layerId = "28D62933-309E-4E6D-AB02-F7020D728988";
name = "Bold Mar 8 16, 21:31";
paths = (
{
closed = 1;
nodes = (
"216 715 LINE SMOOTH",
"204 715 OFFCURVE",
"195 706 OFFCURVE",
"195 694 CURVE SMOOTH",
"195 157 LINE SMOOTH",
"195 124 OFFCURVE",
"175 104 OFFCURVE",
"146 104 CURVE SMOOTH",
"122 104 OFFCURVE",
"95 118 OFFCURVE",
"77 149 CURVE",
"-5 74 LINE",
"30 18 OFFCURVE",
"81 -13 OFFCURVE",
"147 -13 CURVE SMOOTH",
"246 -13 OFFCURVE",
"317 59 OFFCURVE",
"317 161 CURVE SMOOTH",
"317 694 LINE SMOOTH",
"317 706 OFFCURVE",
"308 715 OFFCURVE",
"296 715 CURVE SMOOTH"
);
}
);
width = 402;
},
{
anchors = (
{
name = bottom;
position = "{244, 0}";
},
{
name = top;
position = "{244, 687}";
}
);
associatedMasterId = "DDABD3A5-4A8B-4D55-9B9E-1269DFBEF3A1";
hints = (
{
horizontal = 1;
origin = "{0, 33}";
target = "{0, 14}";
},
{
horizontal = 1;
origin = "{0, 7}";
target = down;
type = TopGhost;
},
{
origin = "{0, 11}";
target = "{0, 2}";
},
{
horizontal = 1;
origin = "{0, 20}";
target = down;
type = TopGhost;
}
);
layerId = "095C575A-DA01-45EE-84F8-7137D1EBC8A2";
name = "Regular Mar 8 16, 21:42";
paths = (
{
closed = 1;
nodes = (
"218 -13 OFFCURVE",
"283 55 OFFCURVE",
"283 156 CURVE SMOOTH",
"283 681 LINE SMOOTH",
"283 689 OFFCURVE",
"277 695 OFFCURVE",
"269 695 CURVE SMOOTH",
"215 695 LINE SMOOTH",
"207 695 OFFCURVE",
"201 689 OFFCURVE",
"201 681 CURVE SMOOTH",
"201 147 LINE SMOOTH",
"201 96 OFFCURVE",
"168 62 OFFCURVE",
"122 62 CURVE SMOOTH",
"93 62 OFFCURVE",
"74 75 OFFCURVE",
"59 89 CURVE SMOOTH",
"55 92 OFFCURVE",
"51 94 OFFCURVE",
"47 94 CURVE SMOOTH",
"43 94 OFFCURVE",
"40 92 OFFCURVE",
"37 89 CURVE SMOOTH",
"3 51 LINE SMOOTH",
"1 49 OFFCURVE",
"0 46 OFFCURVE",
"0 43 CURVE SMOOTH",
"0 40 OFFCURVE",
"1 38 OFFCURVE",
"3 35 CURVE SMOOTH",
"31 5 OFFCURVE",
"71 -13 OFFCURVE",
"121 -13 CURVE SMOOTH"
);
}
);
width = 378;
},
{
anchors = (
{
name = bottom;
position = "{257, 0}";
},
{
name = top;
position = "{257, 710}";
}
);
associatedMasterId = "DDABD3A5-4A8B-4D55-9B9E-1269DFBEF3A1";
hints = (
{
horizontal = 1;
origin = "{0, 33}";
target = "{0, 14}";
},
{
horizontal = 1;
origin = "{0, 7}";
target = down;
type = TopGhost;
},
{
origin = "{0, 11}";
target = "{0, 2}";
},
{
horizontal = 1;
origin = "{0, 20}";
target = down;
type = TopGhost;
}
);
layerId = "08A4BAF7-7219-47B9-BE5D-B9F8C1F9782B";
name = "Bold Mar 8 16, 21:44";
paths = (
{
closed = 1;
nodes = (
"241 -13 OFFCURVE",
"317 68 OFFCURVE",
"317 176 CURVE SMOOTH",
"317 694 LINE SMOOTH",
"317 706 OFFCURVE",
"308 715 OFFCURVE",
"296 715 CURVE SMOOTH",
"216 715 LINE SMOOTH",
"204 715 OFFCURVE",
"195 706 OFFCURVE",
"195 694 CURVE SMOOTH",
"195 166 LINE SMOOTH",
"195 128 OFFCURVE",
"172 101 OFFCURVE",
"134 101 CURVE SMOOTH",
"111 101 OFFCURVE",
"90 114 OFFCURVE",
"76 128 CURVE SMOOTH",
"71 133 OFFCURVE",
"64 137 OFFCURVE",
"59 137 CURVE SMOOTH",
"54 137 OFFCURVE",
"49 135 OFFCURVE",
"45 130 CURVE SMOOTH",
"-2 80 LINE SMOOTH",
"-6 76 OFFCURVE",
"-8 71 OFFCURVE",
"-8 65 CURVE SMOOTH",
"-8 61 OFFCURVE",
"-6 57 OFFCURVE",
"-3 53 CURVE SMOOTH",
"31 11 OFFCURVE",
"81 -13 OFFCURVE",
"138 -13 CURVE SMOOTH"
);
}
);
width = 402;
}
);
leftKerningGroup = J;
rightKerningGroup = J;
unicode = 004A;
},
{
glyphname = K;
lastChange = "2016-03-12 01:06:38 +0000";
layers = (
{
anchors = (
{
name = bottom;
position = "{316, 0}";
},
{
name = top;
position = "{312, 687}";
}
);
hints = (
{
horizontal = 1;
origin = "{0, 42}";
target = up;
type = BottomGhost;
},
{
horizontal = 1;
origin = "{0, 4}";
target = "{0, 30}";
},
{
horizontal = 1;
origin = "{0, 35}";
target = down;
type = TopGhost;
},
{
origin = "{0, 39}";
target = "{0, 3}";
}
);
layerId = "DDABD3A5-4A8B-4D55-9B9E-1269DFBEF3A1";
paths = (
{
closed = 1;
nodes = (
"157 0 LINE SMOOTH",
"165 0 OFFCURVE",
"172 5 OFFCURVE",
"172 13 CURVE SMOOTH",
"172 308 LINE",
"205 308 LINE",
"442 9 LINE SMOOTH",
"447 3 OFFCURVE",
"452 0 OFFCURVE",
"459 0 CURVE SMOOTH",
"522 0 LINE SMOOTH",
"530 0 OFFCURVE",
"537 6 OFFCURVE",
"537 15 CURVE SMOOTH",
"537 18 OFFCURVE",
"536 22 OFFCURVE",
"533 25 CURVE SMOOTH",
"275 351 LINE",
"534 672 LINE SMOOTH",
"537 675 OFFCURVE",
"538 679 OFFCURVE",
"538 682 CURVE SMOOTH",
"538 689 OFFCURVE",
"533 695 OFFCURVE",
"524 695 CURVE SMOOTH",
"461 695 LINE SMOOTH",
"454 695 OFFCURVE",
"448 692 OFFCURVE",
"443 686 CURVE SMOOTH",
"201 383 LINE",
"172 383 LINE",
"172 681 LINE SMOOTH",
"172 689 OFFCURVE",
"166 695 OFFCURVE",
"158 695 CURVE SMOOTH",
"104 695 LINE SMOOTH",
"96 695 OFFCURVE",
"90 689 OFFCURVE",
"90 681 CURVE SMOOTH",
"90 13 LINE SMOOTH",
"90 5 OFFCURVE",
"97 0 OFFCURVE",
"105 0 CURVE SMOOTH"
);
}
);
width = 563;
},
{
anchors = (
{
name = bottom;
position = "{316, 0}";
},
{
name = top;
position = "{312, 687}";
}
);
associatedMasterId = "DDABD3A5-4A8B-4D55-9B9E-1269DFBEF3A1";
hints = (
{
horizontal = 1;
origin = "{1, 15}";
target = up;
type = BottomGhost;
},
{
horizontal = 1;
origin = "{1, 8}";
target = down;
type = TopGhost;
},
{
origin = "{1, 12}";
target = "{1, 3}";
}
);
layerId = "7429F9EB-3483-4721-A61E-B29454BFF557";
name = "Regular Mar 6 16, 02:40";
paths = (
{
closed = 1;
nodes = (
"555 667 LINE SMOOTH",
"566 679 OFFCURVE",
"558 695 OFFCURVE",
"542 695 CURVE SMOOTH",
"488 695 LINE SMOOTH",
"478 695 OFFCURVE",
"470 692 OFFCURVE",
"463 684 CURVE SMOOTH",
"109 302 LINE",
"122 201 LINE"
);
},
{
closed = 1;
nodes = (
"157 0 LINE SMOOTH",
"165 0 OFFCURVE",
"172 5 OFFCURVE",
"172 13 CURVE SMOOTH",
"172 681 LINE SMOOTH",
"172 689 OFFCURVE",
"166 695 OFFCURVE",
"158 695 CURVE SMOOTH",
"104 695 LINE SMOOTH",
"96 695 OFFCURVE",
"90 689 OFFCURVE",
"90 681 CURVE SMOOTH",
"90 13 LINE SMOOTH",
"90 5 OFFCURVE",
"97 0 OFFCURVE",
"105 0 CURVE SMOOTH"
);
},
{
closed = 1;
nodes = (
"541 0 LINE SMOOTH",
"557 0 OFFCURVE",
"565 15 OFFCURVE",
"557 28 CURVE SMOOTH",
"301 430 LINE",
"238 378 LINE",
"473 8 LINE SMOOTH",
"476 3 OFFCURVE",
"482 0 OFFCURVE",
"488 0 CURVE SMOOTH"
);
}
);
width = 598;
}
);
leftKerningGroup = H;
rightKerningGroup = K;
unicode = 004B;
},
{
glyphname = L;
lastChange = "2016-03-12 01:06:38 +0000";
layers = (
{
anchors = (
{
name = bottom;
position = "{272, 0}";
},
{
name = center;
position = "{164, 381}";
},
{
name = top;
position = "{130, 687}";
},
{
name = topright;
position = "{426, 687}";
}
);
hints = (
{
horizontal = 1;
origin = "{0, 20}";
target = "{0, 8}";
},
{
horizontal = 1;
origin = "{0, 13}";
target = down;
type = TopGhost;
},
{
origin = "{0, 17}";
target = "{0, 8}";
}
);
layerId = "DDABD3A5-4A8B-4D55-9B9E-1269DFBEF3A1";
paths = (
{
closed = 1;
nodes = (
"425 0 LINE SMOOTH",
"433 0 OFFCURVE",
"439 6 OFFCURVE",
"439 14 CURVE SMOOTH",
"439 63 LINE SMOOTH",
"439 71 OFFCURVE",
"433 77 OFFCURVE",
"425 77 CURVE SMOOTH",
"172 77 LINE",
"172 681 LINE SMOOTH",
"172 689 OFFCURVE",
"166 695 OFFCURVE",
"158 695 CURVE SMOOTH",
"104 695 LINE SMOOTH",
"96 695 OFFCURVE",
"90 689 OFFCURVE",
"90 681 CURVE SMOOTH",
"90 36 LINE SMOOTH",
"90 16 OFFCURVE",
"106 0 OFFCURVE",
"126 0 CURVE SMOOTH"
);
}
);
width = 474;
}
);
leftKerningGroup = H;
rightKerningGroup = L;
unicode = 004C;
},
{
glyphname = Lcaron;
lastChange = "2016-03-12 01:06:39 +0000";
layers = (
{
hints = (
{
horizontal = 1;
origin = "{0, 20}";
target = "{0, 8}";
},
{
horizontal = 1;
origin = "{1, 15}";
target = "{0, 13}";
},
{
origin = "{0, 17}";
target = "{0, 8}";
}
);
layerId = "DDABD3A5-4A8B-4D55-9B9E-1269DFBEF3A1";
paths = (
{
closed = 1;
nodes = (
"425 0 LINE SMOOTH",
"433 0 OFFCURVE",
"439 6 OFFCURVE",
"439 14 CURVE SMOOTH",
"439 63 LINE SMOOTH",
"439 71 OFFCURVE",
"433 77 OFFCURVE",
"425 77 CURVE SMOOTH",
"172 77 LINE",
"172 681 LINE SMOOTH",
"172 689 OFFCURVE",
"166 695 OFFCURVE",
"158 695 CURVE SMOOTH",
"104 695 LINE SMOOTH",
"96 695 OFFCURVE",
"90 689 OFFCURVE",
"90 681 CURVE SMOOTH",
"90 36 LINE SMOOTH",
"90 16 OFFCURVE",
"106 0 OFFCURVE",
"126 0 CURVE SMOOTH"
);
},
{
closed = 1;
nodes = (
"346 567 LINE SMOOTH",
"359 567 OFFCURVE",
"366 572 OFFCURVE",
"372 579 CURVE SMOOTH",
"453 672 LINE SMOOTH",
"461 681 OFFCURVE",
"456 695 OFFCURVE",
"443 695 CURVE SMOOTH",
"376 695 LINE SMOOTH",
"361 695 OFFCURVE",
"352 686 OFFCURVE",
"348 676 CURVE SMOOTH",
"311 586 LINE SMOOTH",
"307 576 OFFCURVE",
"311 567 OFFCURVE",
"322 567 CURVE SMOOTH"
);
}
);
width = 474;
}
);
leftKerningGroup = H;
leftMetricsKey = L;
unicode = 013D;
},
{
glyphname = Lslash;
lastChange = "2016-03-12 01:06:39 +0000";
layers = (
{
hints = (
{
horizontal = 1;
origin = "{0, 20}";
target = "{0, 8}";
},
{
horizontal = 1;
origin = "{0, 13}";
target = down;
type = TopGhost;
},
{
origin = "{0, 17}";
target = "{0, 8}";
}
);
layerId = "DDABD3A5-4A8B-4D55-9B9E-1269DFBEF3A1";
paths = (
{
closed = 1;
nodes = (
"440 0 LINE SMOOTH",
"448 0 OFFCURVE",
"454 6 OFFCURVE",
"454 14 CURVE SMOOTH",
"454 63 LINE SMOOTH",
"454 71 OFFCURVE",
"448 77 OFFCURVE",
"440 77 CURVE SMOOTH",
"187 77 LINE",
"187 681 LINE SMOOTH",
"187 689 OFFCURVE",
"181 695 OFFCURVE",
"173 695 CURVE SMOOTH",
"119 695 LINE SMOOTH",
"111 695 OFFCURVE",
"105 689 OFFCURVE",
"105 681 CURVE SMOOTH",
"105 36 LINE SMOOTH",
"105 16 OFFCURVE",
"121 0 OFFCURVE",
"141 0 CURVE SMOOTH"
);
},
{
closed = 1;
nodes = (
"37 191 OFFCURVE",
"40 193 OFFCURVE",
"43 195 CURVE SMOOTH",
"332 451 LINE SMOOTH",
"336 455 OFFCURVE",
"338 459 OFFCURVE",
"338 464 CURVE SMOOTH",
"338 514 LINE SMOOTH",
"338 523 OFFCURVE",
"332 529 OFFCURVE",
"325 529 CURVE SMOOTH",
"321 529 OFFCURVE",
"318 527 OFFCURVE",
"315 525 CURVE SMOOTH",
"26 270 LINE SMOOTH",
"22 266 OFFCURVE",
"20 262 OFFCURVE",
"20 257 CURVE SMOOTH",
"20 206 LINE SMOOTH",
"20 197 OFFCURVE",
"26 191 OFFCURVE",
"33 191 CURVE SMOOTH"
);
}
);
width = 489;
}
);
rightKerningGroup = L;
unicode = 0141;
},
{
glyphname = M;
lastChange = "2016-03-12 01:06:38 +0000";
layers = (
{
anchors = (
{
name = bottom;
position = "{450, 0}";
},
{
name = top;
position = "{450, 687}";
}
);
hints = (
{
horizontal = 1;
origin = "{0, 42}";
target = up;
type = BottomGhost;
},
{
horizontal = 1;
origin = "{0, 26}";
target = down;
type = TopGhost;
},
{
horizontal = 1;
origin = "{0, 33}";
target = up;
type = BottomGhost;
},
{
horizontal = 1;
origin = "{0, 0}";
target = "{0, 21}";
},
{
horizontal = 1;
origin = "{0, 25}";
target = "{0, 38}";
}
);
layerId = "DDABD3A5-4A8B-4D55-9B9E-1269DFBEF3A1";
paths = (
{
closed = 1;
nodes = (
"475 -13 LINE SMOOTH",
"483 -13 OFFCURVE",
"491 -8 OFFCURVE",
"494 0 CURVE SMOOTH",
"686 554 LINE",
"752 17 LINE",
"754 6 OFFCURVE",
"762 0 OFFCURVE",
"772 0 CURVE SMOOTH",
"820 0 LINE SMOOTH",
"830 0 OFFCURVE",
"837 9 OFFCURVE",
"836 18 CURVE SMOOTH",
"750 678 LINE",
"749 689 OFFCURVE",
"740 695 OFFCURVE",
"730 695 CURVE SMOOTH",
"661 695 LINE SMOOTH",
"656 695 OFFCURVE",
"651 692 OFFCURVE",
"649 686 CURVE SMOOTH",
"450 111 LINE",
"253 682 LINE",
"251 690 OFFCURVE",
"242 695 OFFCURVE",
"234 695 CURVE SMOOTH",
"164 695 LINE SMOOTH",
"158 695 OFFCURVE",
"153 690 OFFCURVE",
"152 684 CURVE",
"65 18 LINE SMOOTH",
"64 9 OFFCURVE",
"70 0 OFFCURVE",
"81 0 CURVE SMOOTH",
"128 0 LINE SMOOTH",
"138 0 OFFCURVE",
"146 6 OFFCURVE",
"148 17 CURVE",
"214 556 LINE",
"406 0 LINE SMOOTH",
"409 -8 OFFCURVE",
"417 -13 OFFCURVE",
"425 -13 CURVE SMOOTH"
);
}
);
width = 901;
}
);
leftKerningGroup = M;
rightKerningGroup = M;
unicode = 004D;
},
{
glyphname = N;
lastChange = "2016-03-12 01:06:38 +0000";
layers = (
{
anchors = (
{
name = bottom;
position = "{340, 0}";
},
{
name = top;
position = "{340, 687}";
}
);
hints = (
{
horizontal = 1;
origin = "{0, 33}";
target = up;
type = BottomGhost;
},
{
horizontal = 1;
origin = "{0, 26}";
target = down;
type = TopGhost;
},
{
origin = "{0, 30}";
target = "{0, 3}";
},
{
origin = "{0, 21}";
target = "{0, 12}";
}
);
layerId = "DDABD3A5-4A8B-4D55-9B9E-1269DFBEF3A1";
paths = (
{
closed = 1;
nodes = (
"154 0 LINE SMOOTH",
"162 0 OFFCURVE",
"168 6 OFFCURVE",
"168 14 CURVE SMOOTH",
"168 565 LINE",
"483 14 LINE SMOOTH",
"488 5 OFFCURVE",
"499 0 OFFCURVE",
"509 0 CURVE SMOOTH",
"569 0 LINE SMOOTH",
"581 0 OFFCURVE",
"590 9 OFFCURVE",
"590 21 CURVE SMOOTH",
"590 681 LINE SMOOTH",
"590 689 OFFCURVE",
"584 695 OFFCURVE",
"576 695 CURVE SMOOTH",
"526 695 LINE SMOOTH",
"518 695 OFFCURVE",
"512 689 OFFCURVE",
"512 681 CURVE SMOOTH",
"512 129 LINE",
"196 681 LINE SMOOTH",
"191 690 OFFCURVE",
"180 695 OFFCURVE",
"170 695 CURVE SMOOTH",
"111 695 LINE SMOOTH",
"99 695 OFFCURVE",
"90 686 OFFCURVE",
"90 674 CURVE SMOOTH",
"90 14 LINE SMOOTH",
"90 6 OFFCURVE",
"96 0 OFFCURVE",
"104 0 CURVE SMOOTH"
);
}
);
width = 680;
}
);
leftKerningGroup = H;
rightKerningGroup = H;
unicode = 004E;
},
{
glyphname = Eng;
lastChange = "2016-03-12 01:06:38 +0000";
layers = (
{
hints = (
{
horizontal = 1;
origin = "{0, 42}";
target = "{0, 35}";
},
{
horizontal = 1;
origin = "{0, 24}";
target = up;
type = BottomGhost;
},
{
horizontal = 1;
origin = "{0, 17}";
target = down;
type = TopGhost;
},
{
origin = "{0, 21}";
target = "{0, 28}";
},
{
origin = "{0, 12}";
target = "{0, 3}";
}
);
layerId = "DDABD3A5-4A8B-4D55-9B9E-1269DFBEF3A1";
paths = (
{
closed = 1;
nodes = (
"440 -197 LINE SMOOTH",
"534 -197 OFFCURVE",
"590 -125 OFFCURVE",
"590 -41 CURVE SMOOTH",
"590 681 LINE SMOOTH",
"590 689 OFFCURVE",
"584 695 OFFCURVE",
"576 695 CURVE SMOOTH",
"526 695 LINE SMOOTH",
"518 695 OFFCURVE",
"512 689 OFFCURVE",
"512 681 CURVE SMOOTH",
"512 157 LINE",
"196 681 LINE",
"191 690 OFFCURVE",
"180 695 OFFCURVE",
"170 695 CURVE SMOOTH",
"111 695 LINE SMOOTH",
"99 695 OFFCURVE",
"90 686 OFFCURVE",
"90 674 CURVE SMOOTH",
"90 14 LINE SMOOTH",
"90 6 OFFCURVE",
"96 0 OFFCURVE",
"104 0 CURVE SMOOTH",
"154 0 LINE SMOOTH",
"162 0 OFFCURVE",
"168 6 OFFCURVE",
"168 14 CURVE SMOOTH",
"168 567 LINE",
"508 -1 LINE",
"508 -40 LINE SMOOTH",
"508 -89 OFFCURVE",
"477 -121 OFFCURVE",
"430 -121 CURVE SMOOTH",
"371 -121 LINE SMOOTH",
"362 -121 OFFCURVE",
"356 -127 OFFCURVE",
"356 -136 CURVE SMOOTH",
"356 -182 LINE SMOOTH",
"356 -191 OFFCURVE",
"362 -197 OFFCURVE",
"371 -197 CURVE SMOOTH"
);
}
);
width = 680;
}
);
leftKerningGroup = H;
leftMetricsKey = N;
unicode = 014A;
},
{
glyphname = O;
lastChange = "2016-03-12 01:06:39 +0000";
layers = (
{
anchors = (
{
name = bottom;
position = "{315, 0}";
},
{
name = center;
position = "{315, 349}";
},
{
name = ogonek;
position = "{356, 0}";
},
{
name = top;
position = "{315, 687}";
},
{
name = topright;
position = "{625, 687}";
}
);
hints = (
{
horizontal = 1;
place = "{-13, 77}";
},
{
horizontal = 1;
place = "{708, -77}";
},
{
place = "{70, 82}";
},
{
place = "{485, 82}";
}
);
layerId = "DDABD3A5-4A8B-4D55-9B9E-1269DFBEF3A1";
paths = (
{
closed = 1;
nodes = (
"450 -13 OFFCURVE",
"560 96 OFFCURVE",
"560 231 CURVE SMOOTH",
"560 464 LINE SMOOTH",
"560 599 OFFCURVE",
"450 708 OFFCURVE",
"315 708 CURVE SMOOTH",
"180 708 OFFCURVE",
"70 599 OFFCURVE",
"70 464 CURVE SMOOTH",
"70 231 LINE SMOOTH",
"70 96 OFFCURVE",
"180 -13 OFFCURVE",
"315 -13 CURVE SMOOTH"
);
},
{
closed = 1;
nodes = (
"225 64 OFFCURVE",
"152 141 OFFCURVE",
"152 231 CURVE SMOOTH",
"152 464 LINE SMOOTH",
"152 554 OFFCURVE",
"225 631 OFFCURVE",
"315 631 CURVE SMOOTH",
"405 631 OFFCURVE",
"478 554 OFFCURVE",
"478 464 CURVE SMOOTH",
"478 231 LINE SMOOTH",
"478 141 OFFCURVE",
"405 64 OFFCURVE",
"315 64 CURVE SMOOTH"
);
}
);
width = 630;
}
);
leftKerningGroup = O;
rightKerningGroup = O;
unicode = 004F;
},
{
glyphname = Oslash;
lastChange = "2016-03-12 01:06:39 +0000";
layers = (
{
anchors = (
{
name = bottom;
position = "{321, 0}";
},
{
name = top;
position = "{321, 687}";
}
);
hints = (
{
horizontal = 1;
origin = "{1, 13}";
target = "{2, 13}";
},
{
horizontal = 1;
origin = "{0, 8}";
target = down;
type = TopGhost;
},
{
horizontal = 1;
origin = "{0, 15}";
target = up;
type = BottomGhost;
},
{
horizontal = 1;
origin = "{1, 6}";
target = "{2, 6}";
},
{
origin = "{1, 10}";
target = "{2, 2}";
},
{
origin = "{2, 10}";
target = "{1, 2}";
}
);
layerId = "DDABD3A5-4A8B-4D55-9B9E-1269DFBEF3A1";
paths = (
{
closed = 1;
nodes = (
"119 0 LINE SMOOTH",
"127 0 OFFCURVE",
"136 5 OFFCURVE",
"140 12 CURVE SMOOTH",
"586 678 LINE SMOOTH",
"592 687 OFFCURVE",
"587 695 OFFCURVE",
"578 695 CURVE SMOOTH",
"526 695 LINE SMOOTH",
"518 695 OFFCURVE",
"509 690 OFFCURVE",
"505 683 CURVE SMOOTH",
"57 17 LINE SMOOTH",
"51 8 OFFCURVE",
"57 0 OFFCURVE",
"66 0 CURVE SMOOTH"
);
},
{
closed = 1;
nodes = (
"456 -13 OFFCURVE",
"566 96 OFFCURVE",
"566 231 CURVE SMOOTH",
"566 464 LINE SMOOTH",
"566 599 OFFCURVE",
"456 708 OFFCURVE",
"321 708 CURVE SMOOTH",
"186 708 OFFCURVE",
"76 599 OFFCURVE",
"76 464 CURVE SMOOTH",
"76 231 LINE SMOOTH",
"76 96 OFFCURVE",
"186 -13 OFFCURVE",
"321 -13 CURVE SMOOTH"
);
},
{
closed = 1;
nodes = (
"231 64 OFFCURVE",
"158 141 OFFCURVE",
"158 231 CURVE SMOOTH",
"158 464 LINE SMOOTH",
"158 554 OFFCURVE",
"231 631 OFFCURVE",
"321 631 CURVE SMOOTH",
"411 631 OFFCURVE",
"484 554 OFFCURVE",
"484 464 CURVE SMOOTH",
"484 231 LINE SMOOTH",
"484 141 OFFCURVE",
"411 64 OFFCURVE",
"321 64 CURVE SMOOTH"
);
}
);
width = 644;
}
);
leftKerningGroup = O;
rightKerningGroup = O;
unicode = 00D8;
},
{
glyphname = OE;
lastChange = "2016-03-12 01:06:39 +0000";
layers = (
{
anchors = (
{
name = bottom;
position = "{434, 0}";
},
{
name = top;
position = "{434, 687}";
}
);
hints = (
{
horizontal = 1;
origin = "{0, 35}";
target = "{1, 9}";
},
{
horizontal = 1;
origin = "{0, 9}";
target = "{0, 18}";
},
{
horizontal = 1;
origin = "{0, 28}";
target = "{1, 6}";
},
{
origin = "{0, 32}";
target = "{1, 2}";
},
{
origin = "{1, 8}";
target = "{0, 8}";
}
);
layerId = "DDABD3A5-4A8B-4D55-9B9E-1269DFBEF3A1";
paths = (
{
closed = 1;
nodes = (
"753 0 LINE",
"761 0 OFFCURVE",
"767 6 OFFCURVE",
"767 14 CURVE SMOOTH",
"767 63 LINE SMOOTH",
"767 71 OFFCURVE",
"761 77 OFFCURVE",
"753 77 CURVE SMOOTH",
"470 77 LINE",
"470 329 LINE",
"686 329 LINE SMOOTH",
"694 329 OFFCURVE",
"700 335 OFFCURVE",
"700 343 CURVE SMOOTH",
"700 390 LINE SMOOTH",
"700 398 OFFCURVE",
"694 404 OFFCURVE",
"686 404 CURVE SMOOTH",
"470 404 LINE",
"470 618 LINE",
"753 618 LINE SMOOTH",
"761 618 OFFCURVE",
"767 624 OFFCURVE",
"767 632 CURVE SMOOTH",
"767 681 LINE SMOOTH",
"767 689 OFFCURVE",
"761 695 OFFCURVE",
"753 695 CURVE",
"315 695 LINE SMOOTH",
"180 695 OFFCURVE",
"70 586 OFFCURVE",
"70 451 CURVE SMOOTH",
"70 244 LINE SMOOTH",
"70 109 OFFCURVE",
"180 0 OFFCURVE",
"315 0 CURVE SMOOTH"
);
},
{
closed = 1;
nodes = (
"225 77 OFFCURVE",
"152 154 OFFCURVE",
"152 244 CURVE SMOOTH",
"152 451 LINE SMOOTH",
"152 541 OFFCURVE",
"225 618 OFFCURVE",
"315 618 CURVE SMOOTH",
"388 618 LINE",
"388 77 LINE",
"315 77 LINE SMOOTH"
);
}
);
width = 822;
}
);
leftKerningGroup = O;
leftMetricsKey = O;
rightKerningGroup = E;
rightMetricsKey = E;
unicode = 0152;
},
{
glyphname = P;
lastChange = "2016-03-12 01:06:39 +0000";
layers = (
{
anchors = (
{
name = bottom;
position = "{133, 0}";
},
{
name = top;
position = "{255, 687}";
}
);
hints = (
{
horizontal = 1;
origin = "{0, 19}";
target = up;
type = BottomGhost;
},
{
horizontal = 1;
origin = "{0, 4}";
target = "{1, 8}";
},
{
horizontal = 1;
origin = "{0, 12}";
target = "{1, 0}";
},
{
origin = "{0, 16}";
target = "{0, 3}";
},
{
origin = "{1, 4}";
target = "{0, 8}";
}
);
layerId = "DDABD3A5-4A8B-4D55-9B9E-1269DFBEF3A1";
paths = (
{
closed = 1;
nodes = (
"158 0 LINE SMOOTH",
"166 0 OFFCURVE",
"172 6 OFFCURVE",
"172 14 CURVE SMOOTH",
"172 265 LINE",
"294 265 LINE SMOOTH",
"415 265 OFFCURVE",
"512 361 OFFCURVE",
"512 480 CURVE SMOOTH",
"512 599 OFFCURVE",
"415 695 OFFCURVE",
"294 695 CURVE SMOOTH",
"126 695 LINE SMOOTH",
"106 695 OFFCURVE",
"90 679 OFFCURVE",
"90 659 CURVE SMOOTH",
"90 14 LINE SMOOTH",
"90 6 OFFCURVE",
"96 0 OFFCURVE",
"104 0 CURVE SMOOTH"
);
},
{
closed = 1;
nodes = (
"172 618 LINE",
"289 618 LINE SMOOTH",
"366 618 OFFCURVE",
"428 556 OFFCURVE",
"428 480 CURVE SMOOTH",
"428 404 OFFCURVE",
"366 342 OFFCURVE",
"289 342 CURVE SMOOTH",
"172 342 LINE"
);
}
);
width = 557;
}
);
leftKerningGroup = H;
rightKerningGroup = P;
unicode = 0050;
},
{
glyphname = Thorn;
lastChange = "2016-03-12 01:06:39 +0000";
layers = (
{
anchors = (
{
name = bottom;
position = "{133, 0}";
},
{
name = top;
position = "{132, 687}";
}
);
hints = (
{
horizontal = 1;
origin = "{0, 24}";
target = up;
type = BottomGhost;
},
{
horizontal = 1;
origin = "{0, 4}";
target = "{1, 8}";
},
{
horizontal = 1;
origin = "{0, 12}";
target = "{1, 0}";
},
{
horizontal = 1;
origin = "{0, 17}";
target = down;
type = TopGhost;
},
{
origin = "{0, 21}";
target = "{0, 3}";
},
{
origin = "{1, 4}";
target = "{0, 8}";
}
);
layerId = "DDABD3A5-4A8B-4D55-9B9E-1269DFBEF3A1";
paths = (
{
closed = 1;
nodes = (
"158 0 LINE SMOOTH",
"166 0 OFFCURVE",
"172 6 OFFCURVE",
"172 14 CURVE SMOOTH",
"172 136 LINE",
"294 136 LINE SMOOTH",
"415 136 OFFCURVE",
"512 232 OFFCURVE",
"512 351 CURVE SMOOTH",
"512 470 OFFCURVE",
"415 566 OFFCURVE",
"294 566 CURVE SMOOTH",
"172 566 LINE",
"172 681 LINE SMOOTH",
"172 689 OFFCURVE",
"166 695 OFFCURVE",
"158 695 CURVE SMOOTH",
"104 695 LINE SMOOTH",
"96 695 OFFCURVE",
"90 689 OFFCURVE",
"90 681 CURVE SMOOTH",
"90 14 LINE SMOOTH",
"90 6 OFFCURVE",
"96 0 OFFCURVE",
"104 0 CURVE SMOOTH"
);
},
{
closed = 1;
nodes = (
"172 489 LINE",
"289 489 LINE SMOOTH",
"366 489 OFFCURVE",
"428 427 OFFCURVE",
"428 351 CURVE SMOOTH",
"428 275 OFFCURVE",
"366 213 OFFCURVE",
"289 213 CURVE SMOOTH",
"172 213 LINE"
);
}
);
width = 557;
}
);
leftKerningGroup = H;
unicode = 00DE;
},
{
glyphname = Q;
lastChange = "2016-03-12 01:06:39 +0000";
layers = (
{
anchors = (
{
name = bottom;
position = "{316, 0}";
},
{
name = top;
position = "{313, 687}";
}
);
hints = (
{
horizontal = 1;
origin = "{0, 32}";
target = "{0, 8}";
},
{
horizontal = 1;
origin = "{0, 26}";
target = "{1, 13}";
},
{
horizontal = 1;
origin = "{0, 19}";
target = "{1, 6}";
},
{
origin = "{0, 23}";
target = "{1, 2}";
},
{
origin = "{1, 10}";
target = "{0, 15}";
}
);
layerId = "DDABD3A5-4A8B-4D55-9B9E-1269DFBEF3A1";
paths = (
{
closed = 1;
nodes = (
"685 -193 LINE SMOOTH",
"694 -193 OFFCURVE",
"699 -187 OFFCURVE",
"699 -179 CURVE SMOOTH",
"699 -135 LINE SMOOTH",
"699 -127 OFFCURVE",
"693 -121 OFFCURVE",
"685 -121 CURVE SMOOTH",
"672 -121 LINE SMOOTH",
"616 -121 OFFCURVE",
"571 -75 OFFCURVE",
"521 -35 CURVE SMOOTH",
"446 25 LINE",
"514 68 OFFCURVE",
"560 144 OFFCURVE",
"560 231 CURVE SMOOTH",
"560 464 LINE SMOOTH",
"560 599 OFFCURVE",
"450 708 OFFCURVE",
"315 708 CURVE SMOOTH",
"180 708 OFFCURVE",
"70 599 OFFCURVE",
"70 464 CURVE SMOOTH",
"70 231 LINE SMOOTH",
"70 96 OFFCURVE",
"180 -13 OFFCURVE",
"315 -13 CURVE SMOOTH",
"380 -13 OFFCURVE",
"402 -41 OFFCURVE",
"489 -106 CURVE SMOOTH",
"544 -147 OFFCURVE",
"591 -193 OFFCURVE",
"664 -193 CURVE SMOOTH"
);
},
{
closed = 1;
nodes = (
"225 64 OFFCURVE",
"152 141 OFFCURVE",
"152 231 CURVE SMOOTH",
"152 464 LINE SMOOTH",
"152 554 OFFCURVE",
"225 631 OFFCURVE",
"315 631 CURVE SMOOTH",
"405 631 OFFCURVE",
"478 554 OFFCURVE",
"478 464 CURVE SMOOTH",
"478 231 LINE SMOOTH",
"478 141 OFFCURVE",
"405 64 OFFCURVE",
"315 64 CURVE SMOOTH"
);
}
);
width = 639;
},
{
anchors = (
{
name = bottom;
position = "{316, 0}";
},
{
name = top;
position = "{313, 687}";
}
);
associatedMasterId = "DDABD3A5-4A8B-4D55-9B9E-1269DFBEF3A1";
hints = (
{
horizontal = 1;
origin = "{0, 32}";
target = "{0, 8}";
},
{
horizontal = 1;
origin = "{0, 26}";
target = "{1, 13}";
},
{
horizontal = 1;
origin = "{0, 19}";
target = "{1, 6}";
},
{
origin = "{0, 23}";
target = "{1, 2}";
},
{
origin = "{1, 10}";
target = "{0, 15}";
}
);
layerId = "090A4C4A-2120-4C06-8D47-621508129634";
name = "Regular Mar 8 16, 21:50";
paths = (
{
closed = 1;
nodes = (
"700 -193 LINE SMOOTH",
"709 -193 OFFCURVE",
"714 -187 OFFCURVE",
"714 -179 CURVE SMOOTH",
"714 -130 LINE SMOOTH",
"714 -122 OFFCURVE",
"708 -116 OFFCURVE",
"700 -116 CURVE SMOOTH",
"680 -116 LINE SMOOTH",
"620 -116 OFFCURVE",
"573 -76 OFFCURVE",
"521 -35 CURVE SMOOTH",
"446 25 LINE",
"514 68 OFFCURVE",
"560 144 OFFCURVE",
"560 231 CURVE SMOOTH",
"560 464 LINE SMOOTH",
"560 599 OFFCURVE",
"450 708 OFFCURVE",
"315 708 CURVE SMOOTH",
"180 708 OFFCURVE",
"70 599 OFFCURVE",
"70 464 CURVE SMOOTH",
"70 231 LINE SMOOTH",
"70 96 OFFCURVE",
"180 -13 OFFCURVE",
"315 -13 CURVE SMOOTH",
"380 -13 OFFCURVE",
"403 -40 OFFCURVE",
"489 -106 CURVE SMOOTH",
"545 -149 OFFCURVE",
"602 -193 OFFCURVE",
"679 -193 CURVE SMOOTH"
);
},
{
closed = 1;
nodes = (
"225 64 OFFCURVE",
"152 141 OFFCURVE",
"152 231 CURVE SMOOTH",
"152 464 LINE SMOOTH",
"152 554 OFFCURVE",
"225 631 OFFCURVE",
"315 631 CURVE SMOOTH",
"405 631 OFFCURVE",
"478 554 OFFCURVE",
"478 464 CURVE SMOOTH",
"478 231 LINE SMOOTH",
"478 141 OFFCURVE",
"405 64 OFFCURVE",
"315 64 CURVE SMOOTH"
);
}
);
width = 630;
}
);
leftKerningGroup = O;
rightKerningGroup = Q;
unicode = 0051;
},
{
glyphname = R;
lastChange = "2016-03-12 01:06:39 +0000";
layers = (
{
anchors = (
{
name = bottom;
position = "{303, 0}";
},
{
name = top;
position = "{263, 687}";
}
);
hints = (
{
horizontal = 1;
origin = "{0, 28}";
target = up;
type = BottomGhost;
},
{
horizontal = 1;
origin = "{0, 4}";
target = "{1, 8}";
},
{
horizontal = 1;
origin = "{0, 21}";
target = "{1, 0}";
},
{
origin = "{0, 25}";
target = "{0, 3}";
},
{
origin = "{1, 4}";
target = "{0, 17}";
}
);
layerId = "DDABD3A5-4A8B-4D55-9B9E-1269DFBEF3A1";
paths = (
{
closed = 1;
nodes = (
"158 0 LINE SMOOTH",
"166 0 OFFCURVE",
"172 6 OFFCURVE",
"172 14 CURVE SMOOTH",
"172 292 LINE",
"250 292 LINE",
"425 9 LINE SMOOTH",
"428 3 OFFCURVE",
"433 0 OFFCURVE",
"440 0 CURVE SMOOTH",
"491 0 LINE SMOOTH",
"506 0 OFFCURVE",
"515 15 OFFCURVE",
"507 28 CURVE SMOOTH",
"341 296 LINE",
"434 315 OFFCURVE",
"503 395 OFFCURVE",
"503 493 CURVE SMOOTH",
"503 605 OFFCURVE",
"413 695 OFFCURVE",
"300 695 CURVE SMOOTH",
"126 695 LINE SMOOTH",
"106 695 OFFCURVE",
"90 679 OFFCURVE",
"90 659 CURVE SMOOTH",
"90 14 LINE SMOOTH",
"90 6 OFFCURVE",
"96 0 OFFCURVE",
"104 0 CURVE SMOOTH"
);
},
{
closed = 1;
nodes = (
"172 618 LINE",
"294 618 LINE SMOOTH",
"366 618 OFFCURVE",
"419 565 OFFCURVE",
"419 492 CURVE SMOOTH",
"419 422 OFFCURVE",
"366 369 OFFCURVE",
"294 369 CURVE SMOOTH",
"172 369 LINE"
);
}
);
width = 562;
}
);
leftKerningGroup = H;
rightKerningGroup = R;
unicode = 0052;
},
{
glyphname = S;
lastChange = "2016-03-12 01:06:38 +0000";
layers = (
{
anchors = (
{
name = bottom;
position = "{260, 0}";
},
{
name = top;
position = "{260, 687}";
}
);
hints = (
{
horizontal = 1;
origin = "{0, 52}";
target = "{0, 36}";
},
{
horizontal = 1;
origin = "{0, 24}";
target = "{0, 11}";
},
{
origin = "{0, 27}";
target = "{0, 8}";
},
{
origin = "{0, 33}";
target = "{0, 2}";
},
{
horizontal = 1;
origin = "{0, 15}";
target = up;
type = BottomGhost;
},
{
horizontal = 1;
origin = "{0, 42}";
target = down;
type = TopGhost;
}
);
layerId = "DDABD3A5-4A8B-4D55-9B9E-1269DFBEF3A1";
paths = (
{
closed = 1;
nodes = (
"380 -13 OFFCURVE",
"476 64 OFFCURVE",
"476 190 CURVE SMOOTH",
"476 327 OFFCURVE",
"360 360 OFFCURVE",
"281 391 CURVE SMOOTH",
"207 420 OFFCURVE",
"143 444 OFFCURVE",
"143 521 CURVE SMOOTH",
"143 591 OFFCURVE",
"196 633 OFFCURVE",
"277 633 CURVE SMOOTH",
"325 633 OFFCURVE",
"369 618 OFFCURVE",
"411 593 CURVE SMOOTH",
"419 588 OFFCURVE",
"428 592 OFFCURVE",
"432 599 CURVE SMOOTH",
"454 640 LINE SMOOTH",
"458 647 OFFCURVE",
"455 655 OFFCURVE",
"450 658 CURVE SMOOTH",
"404 688 OFFCURVE",
"341 708 OFFCURVE",
"276 708 CURVE SMOOTH",
"162 708 OFFCURVE",
"60 647 OFFCURVE",
"60 517 CURVE SMOOTH",
"60 384 OFFCURVE",
"167 346 OFFCURVE",
"255 312 CURVE SMOOTH",
"327 284 OFFCURVE",
"393 259 OFFCURVE",
"393 183 CURVE SMOOTH",
"393 108 OFFCURVE",
"330 63 OFFCURVE",
"247 63 CURVE SMOOTH",
"191 63 OFFCURVE",
"143 84 OFFCURVE",
"101 109 CURVE SMOOTH",
"98 111 OFFCURVE",
"96 111 OFFCURVE",
"93 111 CURVE SMOOTH",
"87 111 OFFCURVE",
"82 108 OFFCURVE",
"79 102 CURVE SMOOTH",
"56 57 LINE SMOOTH",
"54 51 OFFCURVE",
"56 43 OFFCURVE",
"61 40 CURVE SMOOTH",
"110 6 OFFCURVE",
"180 -13 OFFCURVE",
"246 -13 CURVE SMOOTH"
);
}
);
width = 531;
},
{
anchors = (
{
name = bottom;
position = "{252, 0}";
},
{
name = top;
position = "{252, 687}";
}
);
associatedMasterId = "DDABD3A5-4A8B-4D55-9B9E-1269DFBEF3A1";
hints = (
{
horizontal = 1;
origin = "{0, 61}";
target = "{0, 42}";
},
{
horizontal = 1;
origin = "{0, 30}";
target = "{0, 11}";
},
{
origin = "{0, 33}";
target = "{0, 8}";
},
{
origin = "{0, 39}";
target = "{0, 2}";
},
{
horizontal = 1;
origin = "{0, 51}";
target = down;
type = TopGhost;
},
{
horizontal = 1;
origin = "{0, 20}";
target = up;
type = BottomGhost;
}
);
layerId = "1590A9E5-B318-4F71-8D50-F3C6B4972504";
name = "Regular Feb 17 16, 01:26";
paths = (
{
closed = 1;
nodes = (
"373 -13 OFFCURVE",
"458 69 OFFCURVE",
"458 185 CURVE SMOOTH",
"458 320 OFFCURVE",
"350 352 OFFCURVE",
"276 385 CURVE SMOOTH",
"198 419 OFFCURVE",
"145 447 OFFCURVE",
"145 521 CURVE SMOOTH",
"145 589 OFFCURVE",
"189 633 OFFCURVE",
"256 633 CURVE SMOOTH",
"288 633 OFFCURVE",
"317 626 OFFCURVE",
"346 614 CURVE SMOOTH",
"365 606 OFFCURVE",
"378 600 OFFCURVE",
"396 588 CURVE SMOOTH",
"400 585 OFFCURVE",
"404 584 OFFCURVE",
"407 584 CURVE SMOOTH",
"417 584 OFFCURVE",
"425 592 OFFCURVE",
"425 603 CURVE SMOOTH",
"425 643 LINE SMOOTH",
"425 653 OFFCURVE",
"421 660 OFFCURVE",
"413 665 CURVE SMOOTH",
"367 692 OFFCURVE",
"309 708 OFFCURVE",
"256 708 CURVE SMOOTH",
"143 708 OFFCURVE",
"62 632 OFFCURVE",
"62 526 CURVE SMOOTH",
"62 394 OFFCURVE",
"139 355 OFFCURVE",
"212 321 CURVE SMOOTH",
"283 288 OFFCURVE",
"375 266 OFFCURVE",
"375 182 CURVE SMOOTH",
"375 111 OFFCURVE",
"324 63 OFFCURVE",
"250 63 CURVE SMOOTH",
"219 63 OFFCURVE",
"185 71 OFFCURVE",
"150 84 CURVE SMOOTH",
"136 90 OFFCURVE",
"117 99 OFFCURVE",
"95 112 CURVE SMOOTH",
"92 114 OFFCURVE",
"88 115 OFFCURVE",
"85 115 CURVE SMOOTH",
"76 115 OFFCURVE",
"68 108 OFFCURVE",
"68 97 CURVE SMOOTH",
"68 53 LINE SMOOTH",
"68 44 OFFCURVE",
"73 36 OFFCURVE",
"81 31 CURVE SMOOTH",
"127 3 OFFCURVE",
"190 -13 OFFCURVE",
"250 -13 CURVE SMOOTH"
);
}
);
width = 515;
}
);
leftKerningGroup = S;
rightKerningGroup = S;
unicode = 0053;
},
{
glyphname = T;
lastChange = "2016-03-12 01:06:38 +0000";
layers = (
{
anchors = (
{
name = bottom;
position = "{272, 0}";
},
{
name = center;
position = "{273, 383}";
},
{
name = top;
position = "{272, 687}";
}
);
hints = (
{
horizontal = 1;
origin = "{0, 25}";
target = up;
type = BottomGhost;
},
{
horizontal = 1;
origin = "{0, 13}";
target = "{0, 20}";
},
{
origin = "{0, 22}";
target = "{0, 3}";
}
);
layerId = "DDABD3A5-4A8B-4D55-9B9E-1269DFBEF3A1";
paths = (
{
closed = 1;
nodes = (
"299 0 LINE SMOOTH",
"307 0 OFFCURVE",
"313 6 OFFCURVE",
"313 14 CURVE SMOOTH",
"313 618 LINE",
"486 618 LINE SMOOTH",
"494 618 OFFCURVE",
"500 624 OFFCURVE",
"500 632 CURVE SMOOTH",
"500 681 LINE SMOOTH",
"500 689 OFFCURVE",
"494 695 OFFCURVE",
"486 695 CURVE SMOOTH",
"58 695 LINE SMOOTH",
"50 695 OFFCURVE",
"44 689 OFFCURVE",
"44 681 CURVE SMOOTH",
"44 632 LINE SMOOTH",
"44 624 OFFCURVE",
"50 618 OFFCURVE",
"58 618 CURVE SMOOTH",
"231 618 LINE",
"231 14 LINE SMOOTH",
"231 6 OFFCURVE",
"237 0 OFFCURVE",
"245 0 CURVE SMOOTH"
);
}
);
width = 544;
}
);
leftKerningGroup = T;
rightKerningGroup = T;
unicode = 0054;
},
{
glyphname = Tbar;
lastChange = "2016-03-12 01:06:39 +0000";
layers = (
{
hints = (
{
horizontal = 1;
origin = "{0, 25}";
target = up;
type = BottomGhost;
},
{
horizontal = 1;
origin = "{1, 15}";
target = "{1, 8}";
},
{
horizontal = 1;
origin = "{0, 13}";
target = "{0, 20}";
},
{
origin = "{0, 22}";
target = "{0, 3}";
}
);
layerId = "DDABD3A5-4A8B-4D55-9B9E-1269DFBEF3A1";
paths = (
{
closed = 1;
nodes = (
"300 0 LINE SMOOTH",
"308 0 OFFCURVE",
"314 6 OFFCURVE",
"314 14 CURVE SMOOTH",
"314 618 LINE",
"487 618 LINE SMOOTH",
"495 618 OFFCURVE",
"501 624 OFFCURVE",
"501 632 CURVE SMOOTH",
"501 681 LINE SMOOTH",
"501 689 OFFCURVE",
"495 695 OFFCURVE",
"487 695 CURVE SMOOTH",
"59 695 LINE SMOOTH",
"51 695 OFFCURVE",
"45 689 OFFCURVE",
"45 681 CURVE SMOOTH",
"45 632 LINE SMOOTH",
"45 624 OFFCURVE",
"51 618 OFFCURVE",
"59 618 CURVE SMOOTH",
"232 618 LINE",
"232 14 LINE SMOOTH",
"232 6 OFFCURVE",
"238 0 OFFCURVE",
"246 0 CURVE SMOOTH"
);
},
{
closed = 1;
nodes = (
"433 368 LINE SMOOTH",
"441 368 OFFCURVE",
"447 374 OFFCURVE",
"447 382 CURVE SMOOTH",
"447 419 LINE SMOOTH",
"447 427 OFFCURVE",
"441 433 OFFCURVE",
"433 433 CURVE SMOOTH",
"113 433 LINE SMOOTH",
"105 433 OFFCURVE",
"99 427 OFFCURVE",
"99 419 CURVE SMOOTH",
"99 382 LINE SMOOTH",
"99 374 OFFCURVE",
"105 368 OFFCURVE",
"113 368 CURVE SMOOTH"
);
}
);
width = 546;
}
);
leftKerningGroup = T;
rightKerningGroup = T;
unicode = 0166;
},
{
glyphname = U;
lastChange = "2016-03-12 01:06:38 +0000";
layers = (
{
anchors = (
{
name = bottom;
position = "{335, 0}";
},
{
name = ogonek;
position = "{424, 0}";
},
{
name = top;
position = "{335, 687}";
},
{
name = topright;
position = "{668, 687}";
}
);
hints = (
{
horizontal = 1;
origin = "{0, 29}";
target = "{0, 14}";
},
{
horizontal = 1;
origin = "{0, 22}";
target = down;
type = TopGhost;
},
{
origin = "{0, 26}";
target = "{0, 17}";
},
{
origin = "{0, 11}";
target = "{0, 2}";
}
);
layerId = "DDABD3A5-4A8B-4D55-9B9E-1269DFBEF3A1";
paths = (
{
closed = 1;
nodes = (
"473 -13 OFFCURVE",
"581 93 OFFCURVE",
"581 251 CURVE SMOOTH",
"581 681 LINE SMOOTH",
"581 689 OFFCURVE",
"575 695 OFFCURVE",
"567 695 CURVE SMOOTH",
"513 695 LINE SMOOTH",
"505 695 OFFCURVE",
"499 689 OFFCURVE",
"499 681 CURVE SMOOTH",
"499 246 LINE SMOOTH",
"499 135 OFFCURVE",
"428 66 OFFCURVE",
"336 66 CURVE SMOOTH",
"243 66 OFFCURVE",
"172 135 OFFCURVE",
"172 246 CURVE SMOOTH",
"172 681 LINE SMOOTH",
"172 689 OFFCURVE",
"166 695 OFFCURVE",
"158 695 CURVE SMOOTH",
"104 695 LINE SMOOTH",
"96 695 OFFCURVE",
"90 689 OFFCURVE",
"90 681 CURVE SMOOTH",
"90 251 LINE SMOOTH",
"90 93 OFFCURVE",
"198 -13 OFFCURVE",
"336 -13 CURVE SMOOTH"
);
}
);
width = 671;
}
);
leftKerningGroup = U;
rightKerningGroup = U;
unicode = 0055;
},
{
glyphname = Uogonek;
lastChange = "2016-03-12 01:06:38 +0000";
layers = (
{
hints = (
{
horizontal = 1;
origin = "{0, 53}";
target = "{0, 8}";
},
{
horizontal = 1;
origin = "{0, 44}";
target = "{0, 29}";
},
{
horizontal = 1;
origin = "{0, 37}";
target = down;
type = TopGhost;
},
{
origin = "{0, 41}";
target = "{0, 32}";
},
{
origin = "{0, 50}";
target = "{0, 11}";
},
{
origin = "{0, 26}";
target = "{0, 17}";
}
);
layerId = "DDABD3A5-4A8B-4D55-9B9E-1269DFBEF3A1";
paths = (
{
closed = 1;
nodes = (
"453 -197 LINE SMOOTH",
"461 -197 OFFCURVE",
"468 -190 OFFCURVE",
"468 -182 CURVE SMOOTH",
"468 -142 LINE SMOOTH",
"468 -134 OFFCURVE",
"461 -127 OFFCURVE",
"453 -127 CURVE SMOOTH",
"426 -127 LINE SMOOTH",
"405 -127 OFFCURVE",
"384 -120 OFFCURVE",
"384 -90 CURVE SMOOTH",
"384 -49 OFFCURVE",
"425 -12 OFFCURVE",
"490 41 CURVE SMOOTH",
"547 87 OFFCURVE",
"581 161 OFFCURVE",
"581 251 CURVE SMOOTH",
"581 681 LINE SMOOTH",
"581 689 OFFCURVE",
"575 695 OFFCURVE",
"567 695 CURVE SMOOTH",
"513 695 LINE SMOOTH",
"505 695 OFFCURVE",
"499 689 OFFCURVE",
"499 681 CURVE SMOOTH",
"499 246 LINE SMOOTH",
"499 135 OFFCURVE",
"428 66 OFFCURVE",
"336 66 CURVE SMOOTH",
"243 66 OFFCURVE",
"172 135 OFFCURVE",
"172 246 CURVE SMOOTH",
"172 681 LINE SMOOTH",
"172 689 OFFCURVE",
"166 695 OFFCURVE",
"158 695 CURVE SMOOTH",
"104 695 LINE SMOOTH",
"96 695 OFFCURVE",
"90 689 OFFCURVE",
"90 681 CURVE SMOOTH",
"90 251 LINE SMOOTH",
"90 93 OFFCURVE",
"198 -13 OFFCURVE",
"336 -13 CURVE SMOOTH",
"344 -13 OFFCURVE",
"350 -13 OFFCURVE",
"359 -12 CURVE",
"329 -38 OFFCURVE",
"305 -75 OFFCURVE",
"305 -112 CURVE SMOOTH",
"305 -165 OFFCURVE",
"355 -197 OFFCURVE",
"413 -197 CURVE SMOOTH"
);
}
);
width = 671;
}
);
leftKerningGroup = U;
rightKerningGroup = U;
unicode = 0172;
},
{
glyphname = V;
lastChange = "2016-03-12 01:06:38 +0000";
layers = (
{
anchors = (
{
name = bottom;
position = "{307, 0}";
},
{
name = top;
position = "{308, 687}";
}
);
hints = (
{
horizontal = 1;
origin = "{0, 24}";
target = up;
type = BottomGhost;
},
{
horizontal = 1;
origin = "{0, 17}";
target = down;
type = TopGhost;
},
{
place = "{34.96, 518.06}";
}
);
layerId = "DDABD3A5-4A8B-4D55-9B9E-1269DFBEF3A1";
paths = (
{
closed = 1;
nodes = (
"337 0 LINE SMOOTH",
"345 0 OFFCURVE",
"354 5 OFFCURVE",
"356 13 CURVE SMOOTH",
"562 673 LINE SMOOTH",
"566 685 OFFCURVE",
"559 695 OFFCURVE",
"547 695 CURVE SMOOTH",
"498 695 LINE SMOOTH",
"490 695 OFFCURVE",
"482 690 OFFCURVE",
"479 682 CURVE SMOOTH",
"304 104 LINE",
"129 682 LINE SMOOTH",
"127 690 OFFCURVE",
"118 695 OFFCURVE",
"110 695 CURVE SMOOTH",
"61 695 LINE SMOOTH",
"49 695 OFFCURVE",
"42 685 OFFCURVE",
"46 673 CURVE SMOOTH",
"252 13 LINE SMOOTH",
"255 5 OFFCURVE",
"263 0 OFFCURVE",
"271 0 CURVE SMOOTH"
);
}
);
width = 608;
}
);
leftKerningGroup = W;
rightKerningGroup = W;
unicode = 0056;
},
{
glyphname = W;
lastChange = "2016-03-12 01:06:38 +0000";
layers = (
{
anchors = (
{
name = bottom;
position = "{499, 0}";
},
{
name = top;
position = "{499, 687}";
}
);
hints = (
{
horizontal = 1;
origin = "{0, 42}";
target = up;
type = BottomGhost;
},
{
horizontal = 1;
origin = "{0, 35}";
target = down;
type = TopGhost;
},
{
horizontal = 1;
origin = "{0, 42}";
target = "{0, 30}";
}
);
layerId = "DDABD3A5-4A8B-4D55-9B9E-1269DFBEF3A1";
paths = (
{
closed = 1;
nodes = (
"322 0 LINE SMOOTH",
"333 0 OFFCURVE",
"344 7 OFFCURVE",
"347 18 CURVE SMOOTH",
"499 553 LINE",
"653 18 LINE SMOOTH",
"656 7 OFFCURVE",
"667 0 OFFCURVE",
"678 0 CURVE SMOOTH",
"734 0 LINE SMOOTH",
"745 0 OFFCURVE",
"756 7 OFFCURVE",
"759 18 CURVE SMOOTH",
"954 674 LINE SMOOTH",
"957 685 OFFCURVE",
"949 695 OFFCURVE",
"938 695 CURVE SMOOTH",
"886 695 LINE SMOOTH",
"877 695 OFFCURVE",
"869 689 OFFCURVE",
"867 681 CURVE SMOOTH",
"706 119 LINE",
"545 681 LINE SMOOTH",
"543 689 OFFCURVE",
"535 695 OFFCURVE",
"526 695 CURVE SMOOTH",
"474 695 LINE SMOOTH",
"465 695 OFFCURVE",
"457 689 OFFCURVE",
"455 681 CURVE SMOOTH",
"294 119 LINE",
"133 681 LINE SMOOTH",
"131 689 OFFCURVE",
"123 695 OFFCURVE",
"114 695 CURVE SMOOTH",
"62 695 LINE SMOOTH",
"51 695 OFFCURVE",
"42 685 OFFCURVE",
"46 674 CURVE",
"241 18 LINE SMOOTH",
"244 7 OFFCURVE",
"255 0 OFFCURVE",
"266 0 CURVE SMOOTH"
);
}
);
width = 999;
}
);
leftKerningGroup = W;
rightKerningGroup = W;
unicode = 0057;
},
{
glyphname = X;
lastChange = "2016-03-12 01:06:38 +0000";
layers = (
{
anchors = (
{
name = bottom;
position = "{305, 0}";
},
{
name = top;
position = "{310, 687}";
}
);
hints = (
{
horizontal = 1;
origin = "{0, 35}";
target = up;
type = BottomGhost;
},
{
horizontal = 1;
origin = "{0, 27}";
target = down;
type = TopGhost;
}
);
layerId = "DDABD3A5-4A8B-4D55-9B9E-1269DFBEF3A1";
paths = (
{
closed = 1;
nodes = (
"123 0 LINE SMOOTH",
"129 0 OFFCURVE",
"135 3 OFFCURVE",
"138 8 CURVE SMOOTH",
"304 271 LINE",
"469 8 LINE SMOOTH",
"472 3 OFFCURVE",
"478 0 OFFCURVE",
"484 0 CURVE SMOOTH",
"539 0 LINE SMOOTH",
"554 0 OFFCURVE",
"562 15 OFFCURVE",
"554 28 CURVE SMOOTH",
"352 348 LINE",
"553 667 LINE SMOOTH",
"561 680 OFFCURVE",
"553 695 OFFCURVE",
"538 695 CURVE SMOOTH",
"484 695 LINE SMOOTH",
"478 695 OFFCURVE",
"472 692 OFFCURVE",
"469 687 CURVE SMOOTH",
"304 425 LINE",
"138 687 LINE SMOOTH",
"135 692 OFFCURVE",
"129 695 OFFCURVE",
"123 695 CURVE SMOOTH",
"69 695 LINE SMOOTH",
"54 695 OFFCURVE",
"46 680 OFFCURVE",
"54 667 CURVE SMOOTH",
"255 348 LINE",
"53 28 LINE SMOOTH",
"45 15 OFFCURVE",
"53 0 OFFCURVE",
"68 0 CURVE SMOOTH"
);
}
);
width = 607;
}
);
leftKerningGroup = X;
rightKerningGroup = X;
unicode = 0058;
},
{
glyphname = Y;
lastChange = "2016-03-12 01:06:38 +0000";
layers = (
{
anchors = (
{
name = bottom;
position = "{284, 0}";
},
{
name = top;
position = "{284, 687}";
}
);
hints = (
{
horizontal = 1;
origin = "{0, 26}";
target = up;
type = BottomGhost;
},
{
horizontal = 1;
origin = "{0, 18}";
target = down;
type = TopGhost;
},
{
origin = "{0, 23}";
target = "{0, 3}";
}
);
layerId = "DDABD3A5-4A8B-4D55-9B9E-1269DFBEF3A1";
paths = (
{
closed = 1;
nodes = (
"311 0 LINE SMOOTH",
"319 0 OFFCURVE",
"325 6 OFFCURVE",
"325 14 CURVE SMOOTH",
"325 338 LINE",
"529 668 LINE SMOOTH",
"537 681 OFFCURVE",
"529 695 OFFCURVE",
"514 695 CURVE SMOOTH",
"460 695 LINE SMOOTH",
"454 695 OFFCURVE",
"449 692 OFFCURVE",
"445 686 CURVE SMOOTH",
"284 419 LINE",
"122 686 LINE SMOOTH",
"118 692 OFFCURVE",
"113 695 OFFCURVE",
"107 695 CURVE SMOOTH",
"53 695 LINE SMOOTH",
"38 695 OFFCURVE",
"30 681 OFFCURVE",
"38 668 CURVE SMOOTH",
"243 335 LINE",
"243 14 LINE SMOOTH",
"243 6 OFFCURVE",
"249 0 OFFCURVE",
"257 0 CURVE SMOOTH"
);
}
);
width = 567;
}
);
leftKerningGroup = Y;
rightKerningGroup = Y;
unicode = 0059;
},
{
glyphname = Z;
lastChange = "2016-03-12 01:06:38 +0000";
layers = (
{
anchors = (
{
name = bottom;
position = "{278, 0}";
},
{
name = top;
position = "{274, 687}";
}
);
hints = (
{
horizontal = 1;
origin = "{0, 31}";
target = "{0, 8}";
},
{
horizontal = 1;
origin = "{0, 16}";
target = "{0, 23}";
}
);
layerId = "DDABD3A5-4A8B-4D55-9B9E-1269DFBEF3A1";
paths = (
{
closed = 1;
nodes = (
"482 0 LINE SMOOTH",
"490 0 OFFCURVE",
"496 6 OFFCURVE",
"496 14 CURVE SMOOTH",
"496 63 LINE SMOOTH",
"496 71 OFFCURVE",
"490 77 OFFCURVE",
"482 77 CURVE SMOOTH",
"164 77 LINE",
"490 640 LINE SMOOTH",
"493 645 OFFCURVE",
"494 651 OFFCURVE",
"494 657 CURVE SMOOTH",
"494 676 OFFCURVE",
"480 695 OFFCURVE",
"460 695 CURVE SMOOTH",
"82 695 LINE SMOOTH",
"74 695 OFFCURVE",
"68 689 OFFCURVE",
"68 681 CURVE SMOOTH",
"68 632 LINE SMOOTH",
"68 624 OFFCURVE",
"74 618 OFFCURVE",
"82 618 CURVE SMOOTH",
"384 618 LINE",
"60 55 LINE SMOOTH",
"57 50 OFFCURVE",
"55 44 OFFCURVE",
"55 38 CURVE SMOOTH",
"55 19 OFFCURVE",
"69 0 OFFCURVE",
"89 0 CURVE SMOOTH"
);
}
);
width = 551;
}
);
leftKerningGroup = Z;
rightKerningGroup = Z;
unicode = 005A;
},
{
glyphname = a;
lastChange = "2016-03-12 01:06:39 +0000";
layers = (
{
anchors = (
{
name = bottom;
position = "{235, 0}";
},
{
name = ogonek;
position = "{451, 0}";
},
{
name = top;
position = "{274, 566}";
}
);
hints = (
{
horizontal = 1;
origin = "{0, 49}";
target = "{1, 12}";
},
{
horizontal = 1;
origin = "{0, 14}";
target = "{0, 33}";
},
{
horizontal = 1;
origin = "{0, 6}";
target = up;
type = BottomGhost;
},
{
origin = "{0, 46}";
target = "{1, 2}";
},
{
origin = "{0, 3}";
target = "{0, 10}";
}
);
layerId = "DDABD3A5-4A8B-4D55-9B9E-1269DFBEF3A1";
paths = (
{
closed = 1;
nodes = (
"302 -13 OFFCURVE",
"369 23 OFFCURVE",
"410 83 CURVE",
"410 14 LINE SMOOTH",
"410 6 OFFCURVE",
"416 0 OFFCURVE",
"424 0 CURVE SMOOTH",
"466 0 LINE SMOOTH",
"474 0 OFFCURVE",
"480 6 OFFCURVE",
"480 14 CURVE SMOOTH",
"480 398 LINE SMOOTH",
"480 507 OFFCURVE",
"397 579 OFFCURVE",
"275 579 CURVE SMOOTH",
"185 579 OFFCURVE",
"116 538 OFFCURVE",
"79 476 CURVE SMOOTH",
"77 472 OFFCURVE",
"76 469 OFFCURVE",
"76 466 CURVE SMOOTH",
"76 459 OFFCURVE",
"79 454 OFFCURVE",
"85 449 CURVE SMOOTH",
"112 431 LINE SMOOTH",
"116 428 OFFCURVE",
"121 426 OFFCURVE",
"125 426 CURVE SMOOTH",
"133 426 OFFCURVE",
"140 431 OFFCURVE",
"145 439 CURVE SMOOTH",
"169 479 OFFCURVE",
"213 505 OFFCURVE",
"273 505 CURVE SMOOTH",
"346 505 OFFCURVE",
"404 463 OFFCURVE",
"404 398 CURVE SMOOTH",
"404 390 LINE SMOOTH",
"404 351 OFFCURVE",
"388 332 OFFCURVE",
"349 326 CURVE SMOOTH",
"306 320 OFFCURVE",
"267 315 OFFCURVE",
"219 308 CURVE SMOOTH",
"113 293 OFFCURVE",
"50 233 OFFCURVE",
"50 145 CURVE SMOOTH",
"50 50 OFFCURVE",
"123 -13 OFFCURVE",
"225 -13 CURVE SMOOTH"
);
},
{
closed = 1;
nodes = (
"169 57 OFFCURVE",
"125 93 OFFCURVE",
"125 148 CURVE SMOOTH",
"125 200 OFFCURVE",
"159 232 OFFCURVE",
"225 242 CURVE SMOOTH",
"307 254 OFFCURVE",
"346 260 OFFCURVE",
"407 267 CURVE",
"407 226 LINE SMOOTH",
"407 153 OFFCURVE",
"337 57 OFFCURVE",
"233 57 CURVE SMOOTH"
);
}
);
width = 560;
}
);
leftKerningGroup = a;
rightKerningGroup = a;
unicode = 0061;
},
{
glyphname = aogonek;
lastChange = "2016-03-12 01:06:39 +0000";
layers = (
{
hints = (
{
horizontal = 1;
origin = "{0, 66}";
target = "{0, 8}";
},
{
horizontal = 1;
origin = "{0, 56}";
target = "{1, 12}";
},
{
horizontal = 1;
origin = "{0, 21}";
target = "{0, 40}";
},
{
horizontal = 1;
origin = "{0, 56}";
target = up;
type = BottomGhost;
},
{
origin = "{0, 53}";
target = "{1, 2}";
},
{
origin = "{0, 63}";
target = "{0, 11}";
},
{
origin = "{1, 9}";
target = "{0, 17}";
},
{
horizontal = 1;
origin = "{0, 34}";
target = up;
type = BottomGhost;
}
);
layerId = "DDABD3A5-4A8B-4D55-9B9E-1269DFBEF3A1";
paths = (
{
closed = 1;
nodes = (
"470 -197 LINE SMOOTH",
"478 -197 OFFCURVE",
"485 -190 OFFCURVE",
"485 -182 CURVE SMOOTH",
"485 -142 LINE SMOOTH",
"485 -134 OFFCURVE",
"478 -127 OFFCURVE",
"470 -127 CURVE SMOOTH",
"453 -127 LINE SMOOTH",
"432 -127 OFFCURVE",
"411 -120 OFFCURVE",
"411 -90 CURVE SMOOTH",
"411 -58 OFFCURVE",
"436 -32 OFFCURVE",
"467 0 CURVE SMOOTH",
"475 8 OFFCURVE",
"480 17 OFFCURVE",
"480 28 CURVE SMOOTH",
"480 398 LINE SMOOTH",
"480 507 OFFCURVE",
"397 579 OFFCURVE",
"275 579 CURVE SMOOTH",
"185 579 OFFCURVE",
"116 538 OFFCURVE",
"79 476 CURVE SMOOTH",
"77 472 OFFCURVE",
"76 469 OFFCURVE",
"76 466 CURVE SMOOTH",
"76 459 OFFCURVE",
"79 453 OFFCURVE",
"85 449 CURVE SMOOTH",
"112 431 LINE SMOOTH",
"116 428 OFFCURVE",
"121 426 OFFCURVE",
"125 426 CURVE SMOOTH",
"133 426 OFFCURVE",
"140 431 OFFCURVE",
"145 439 CURVE SMOOTH",
"169 479 OFFCURVE",
"213 505 OFFCURVE",
"273 505 CURVE SMOOTH",
"346 505 OFFCURVE",
"404 463 OFFCURVE",
"404 398 CURVE SMOOTH",
"404 390 LINE SMOOTH",
"404 351 OFFCURVE",
"388 332 OFFCURVE",
"349 326 CURVE SMOOTH",
"306 320 OFFCURVE",
"267 315 OFFCURVE",
"219 308 CURVE SMOOTH",
"113 293 OFFCURVE",
"50 233 OFFCURVE",
"50 145 CURVE SMOOTH",
"50 50 OFFCURVE",
"123 -13 OFFCURVE",
"225 -13 CURVE SMOOTH",
"302 -13 OFFCURVE",
"369 23 OFFCURVE",
"410 83 CURVE",
"410 9 LINE",
"378 -15 OFFCURVE",
"332 -61 OFFCURVE",
"332 -112 CURVE SMOOTH",
"332 -165 OFFCURVE",
"382 -197 OFFCURVE",
"440 -197 CURVE SMOOTH"
);
},
{
closed = 1;
nodes = (
"169 57 OFFCURVE",
"125 93 OFFCURVE",
"125 148 CURVE SMOOTH",
"125 200 OFFCURVE",
"159 232 OFFCURVE",
"225 242 CURVE SMOOTH",
"307 254 OFFCURVE",
"346 260 OFFCURVE",
"407 267 CURVE",
"407 226 LINE SMOOTH",
"407 153 OFFCURVE",
"337 57 OFFCURVE",
"233 57 CURVE SMOOTH"
);
}
);
width = 565;
}
);
leftKerningGroup = a;
leftMetricsKey = a;
rightKerningGroup = a;
rightMetricsKey = a;
unicode = 0105;
},
{
glyphname = ae;
lastChange = "2016-03-12 01:06:39 +0000";
layers = (
{
anchors = (
{
name = bottom;
position = "{453, 0}";
},
{
name = top;
position = "{453, 566}";
}
);
hints = (
{
horizontal = 1;
origin = "{0, 67}";
target = "{1, 12}";
},
{
horizontal = 1;
origin = "{0, 18}";
target = "{2, 8}";
},
{
horizontal = 1;
origin = "{0, 32}";
target = "{0, 51}";
},
{
horizontal = 1;
origin = "{0, 5}";
target = "{0, 14}";
},
{
origin = "{0, 64}";
target = "{1, 2}";
},
{
origin = "{1, 9}";
target = "{0, 17}";
},
{
origin = "{2, 7}";
target = "{0, 22}";
},
{
horizontal = 1;
origin = "{0, 45}";
target = up;
type = BottomGhost;
}
);
layerId = "DDABD3A5-4A8B-4D55-9B9E-1269DFBEF3A1";
paths = (
{
closed = 1;
nodes = (
"314 -13 OFFCURVE",
"395 35 OFFCURVE",
"436 109 CURVE",
"473 44 OFFCURVE",
"543 0 OFFCURVE",
"624 0 CURVE SMOOTH",
"769 0 LINE SMOOTH",
"777 0 OFFCURVE",
"783 6 OFFCURVE",
"783 14 CURVE SMOOTH",
"783 60 LINE SMOOTH",
"783 68 OFFCURVE",
"777 74 OFFCURVE",
"769 74 CURVE SMOOTH",
"624 74 LINE SMOOTH",
"547 74 OFFCURVE",
"485 136 OFFCURVE",
"485 213 CURVE SMOOTH",
"485 257 LINE",
"805 257 LINE SMOOTH",
"825 257 OFFCURVE",
"841 273 OFFCURVE",
"841 293 CURVE SMOOTH",
"841 361 LINE SMOOTH",
"841 482 OFFCURVE",
"744 579 OFFCURVE",
"624 579 CURVE SMOOTH",
"554 579 OFFCURVE",
"492 546 OFFCURVE",
"453 495 CURVE",
"419 548 OFFCURVE",
"355 579 OFFCURVE",
"275 579 CURVE SMOOTH",
"185 579 OFFCURVE",
"116 538 OFFCURVE",
"79 476 CURVE SMOOTH",
"77 472 OFFCURVE",
"76 469 OFFCURVE",
"76 466 CURVE SMOOTH",
"76 459 OFFCURVE",
"79 454 OFFCURVE",
"85 449 CURVE SMOOTH",
"112 431 LINE SMOOTH",
"116 428 OFFCURVE",
"121 426 OFFCURVE",
"125 426 CURVE SMOOTH",
"133 426 OFFCURVE",
"140 431 OFFCURVE",
"145 439 CURVE SMOOTH",
"169 479 OFFCURVE",
"213 505 OFFCURVE",
"273 505 CURVE SMOOTH",
"346 505 OFFCURVE",
"404 463 OFFCURVE",
"404 398 CURVE SMOOTH",
"404 390 LINE SMOOTH",
"404 351 OFFCURVE",
"388 332 OFFCURVE",
"349 326 CURVE SMOOTH",
"306 320 OFFCURVE",
"267 315 OFFCURVE",
"219 308 CURVE SMOOTH",
"113 293 OFFCURVE",
"50 233 OFFCURVE",
"50 145 CURVE SMOOTH",
"50 50 OFFCURVE",
"123 -13 OFFCURVE",
"225 -13 CURVE SMOOTH"
);
},
{
closed = 1;
nodes = (
"169 57 OFFCURVE",
"125 93 OFFCURVE",
"125 148 CURVE SMOOTH",
"125 200 OFFCURVE",
"159 232 OFFCURVE",
"225 242 CURVE SMOOTH",
"307 254 OFFCURVE",
"346 260 OFFCURVE",
"407 267 CURVE",
"407 226 LINE SMOOTH",
"407 153 OFFCURVE",
"337 57 OFFCURVE",
"233 57 CURVE SMOOTH"
);
},
{
closed = 1;
nodes = (
"485 366 LINE SMOOTH",
"485 443 OFFCURVE",
"547 505 OFFCURVE",
"624 505 CURVE SMOOTH",
"701 505 OFFCURVE",
"763 443 OFFCURVE",
"763 366 CURVE SMOOTH",
"763 329 LINE",
"485 329 LINE"
);
}
);
width = 899;
}
);
leftKerningGroup = a;
leftMetricsKey = a;
rightKerningGroup = e;
rightMetricsKey = e;
unicode = 00E6;
},
{
glyphname = b;
lastChange = "2016-03-12 01:06:39 +0000";
layers = (
{
anchors = (
{
name = bottom;
position = "{316, 0}";
},
{
name = top;
position = "{129, 760}";
}
);
hints = (
{
horizontal = 1;
origin = "{0, 29}";
target = "{1, 13}";
},
{
horizontal = 1;
origin = "{0, 6}";
target = "{1, 6}";
},
{
horizontal = 1;
origin = "{0, 14}";
target = down;
type = TopGhost;
},
{
horizontal = 1;
origin = "{0, 21}";
target = up;
type = BottomGhost;
},
{
origin = "{0, 18}";
target = "{1, 2}";
},
{
origin = "{1, 10}";
target = "{0, 2}";
}
);
layerId = "DDABD3A5-4A8B-4D55-9B9E-1269DFBEF3A1";
paths = (
{
closed = 1;
nodes = (
"431 -13 OFFCURVE",
"525 81 OFFCURVE",
"525 196 CURVE SMOOTH",
"525 370 LINE SMOOTH",
"525 485 OFFCURVE",
"431 579 OFFCURVE",
"316 579 CURVE SMOOTH",
"258 579 OFFCURVE",
"205 552 OFFCURVE",
"168 509 CURVE",
"168 745 LINE SMOOTH",
"168 753 OFFCURVE",
"162 759 OFFCURVE",
"154 759 CURVE SMOOTH",
"104 759 LINE SMOOTH",
"96 759 OFFCURVE",
"90 753 OFFCURVE",
"90 745 CURVE SMOOTH",
"90 14 LINE SMOOTH",
"90 6 OFFCURVE",
"96 0 OFFCURVE",
"104 0 CURVE SMOOTH",
"150 0 LINE SMOOTH",
"158 0 OFFCURVE",
"164 6 OFFCURVE",
"164 14 CURVE SMOOTH",
"164 53 LINE",
"202 12 OFFCURVE",
"256 -13 OFFCURVE",
"316 -13 CURVE SMOOTH"
);
},
{
closed = 1;
nodes = (
"230 61 OFFCURVE",
"168 123 OFFCURVE",
"168 200 CURVE SMOOTH",
"168 366 LINE SMOOTH",
"168 443 OFFCURVE",
"230 505 OFFCURVE",
"308 505 CURVE SMOOTH",
"385 505 OFFCURVE",
"447 443 OFFCURVE",
"447 366 CURVE SMOOTH",
"447 200 LINE SMOOTH",
"447 123 OFFCURVE",
"385 61 OFFCURVE",
"308 61 CURVE SMOOTH"
);
}
);
width = 590;
},
{
anchors = (
{
name = bottom;
position = "{325, 0}";
},
{
name = top;
position = "{135, 766}";
}
);
associatedMasterId = "DDABD3A5-4A8B-4D55-9B9E-1269DFBEF3A1";
hints = (
{
horizontal = 1;
origin = "{0, 29}";
target = "{1, 13}";
},
{
horizontal = 1;
origin = "{0, 6}";
target = "{1, 6}";
},
{
horizontal = 1;
origin = "{0, 14}";
target = down;
type = TopGhost;
},
{
horizontal = 1;
origin = "{0, 21}";
target = up;
type = BottomGhost;
},
{
origin = "{0, 18}";
target = "{1, 2}";
},
{
origin = "{1, 10}";
target = "{0, 2}";
}
);
layerId = "80E51D3E-A732-421E-AB63-C0766A535744";
name = "Bold Mar 8 16, 22:07";
paths = (
{
closed = 1;
nodes = (
"450 -13 OFFCURVE",
"552 92 OFFCURVE",
"552 217 CURVE SMOOTH",
"552 356 LINE SMOOTH",
"552 480 OFFCURVE",
"453 586 OFFCURVE",
"329 586 CURVE SMOOTH",
"280 586 OFFCURVE",
"232 565 OFFCURVE",
"195 526 CURVE",
"195 745 LINE SMOOTH",
"195 757 OFFCURVE",
"186 766 OFFCURVE",
"174 766 CURVE SMOOTH",
"96 766 LINE SMOOTH",
"84 766 OFFCURVE",
"75 757 OFFCURVE",
"75 745 CURVE SMOOTH",
"75 21 LINE SMOOTH",
"75 9 OFFCURVE",
"84 0 OFFCURVE",
"96 0 CURVE SMOOTH",
"161 0 LINE SMOOTH",
"173 0 OFFCURVE",
"182 9 OFFCURVE",
"182 21 CURVE SMOOTH",
"182 66 LINE",
"218 13 OFFCURVE",
"272 -13 OFFCURVE",
"329 -13 CURVE SMOOTH"
);
},
{
closed = 1;
nodes = (
"248 102 OFFCURVE",
"195 155 OFFCURVE",
"195 220 CURVE SMOOTH",
"195 353 LINE SMOOTH",
"195 418 OFFCURVE",
"248 471 OFFCURVE",
"314 471 CURVE SMOOTH",
"379 471 OFFCURVE",
"432 418 OFFCURVE",
"432 353 CURVE SMOOTH",
"432 220 LINE SMOOTH",
"432 155 OFFCURVE",
"379 102 OFFCURVE",
"314 102 CURVE SMOOTH"
);
}
);
width = 599;
}
);
leftKerningGroup = h;
rightKerningGroup = o;
unicode = 0062;
},
{
glyphname = c;
lastChange = "2016-03-12 01:06:38 +0000";
layers = (
{
anchors = (
{
name = bottom;
position = "{282, 0}";
},
{
name = top;
position = "{274, 566}";
}
);
hints = (
{
horizontal = 1;
origin = "{0, 55}";
target = "{0, 20}";
},
{
horizontal = 1;
origin = "{0, 48}";
target = "{0, 27}";
},
{
origin = "{0, 52}";
target = "{0, 23}";
},
{
horizontal = 1;
origin = "{0, 33}";
target = up;
type = BottomGhost;
},
{
horizontal = 1;
origin = "{0, 14}";
target = down;
type = TopGhost;
}
);
layerId = "DDABD3A5-4A8B-4D55-9B9E-1269DFBEF3A1";
paths = (
{
closed = 1;
nodes = (
"341 -13 OFFCURVE",
"393 10 OFFCURVE",
"431 47 CURVE SMOOTH",
"435 51 OFFCURVE",
"437 56 OFFCURVE",
"437 61 CURVE SMOOTH",
"437 67 OFFCURVE",
"435 72 OFFCURVE",
"431 76 CURVE SMOOTH",
"423 85 OFFCURVE",
"416 92 OFFCURVE",
"408 99 CURVE SMOOTH",
"403 103 OFFCURVE",
"398 105 OFFCURVE",
"393 105 CURVE SMOOTH",
"387 105 OFFCURVE",
"382 103 OFFCURVE",
"377 98 CURVE SMOOTH",
"352 75 OFFCURVE",
"319 61 OFFCURVE",
"282 61 CURVE SMOOTH",
"205 61 OFFCURVE",
"143 123 OFFCURVE",
"143 200 CURVE SMOOTH",
"143 366 LINE SMOOTH",
"143 443 OFFCURVE",
"205 505 OFFCURVE",
"282 505 CURVE SMOOTH",
"319 505 OFFCURVE",
"352 491 OFFCURVE",
"377 468 CURVE SMOOTH",
"382 463 OFFCURVE",
"387 461 OFFCURVE",
"393 461 CURVE SMOOTH",
"398 461 OFFCURVE",
"403 463 OFFCURVE",
"408 467 CURVE SMOOTH",
"417 475 OFFCURVE",
"424 482 OFFCURVE",
"431 490 CURVE SMOOTH",
"435 495 OFFCURVE",
"437 500 OFFCURVE",
"437 505 CURVE SMOOTH",
"437 510 OFFCURVE",
"435 515 OFFCURVE",
"431 519 CURVE SMOOTH",
"393 556 OFFCURVE",
"341 579 OFFCURVE",
"282 579 CURVE SMOOTH",
"162 579 OFFCURVE",
"65 482 OFFCURVE",
"65 361 CURVE SMOOTH",
"65 205 LINE SMOOTH",
"65 84 OFFCURVE",
"162 -13 OFFCURVE",
"282 -13 CURVE SMOOTH"
);
}
);
width = 492;
}
);
leftKerningGroup = o;
rightKerningGroup = c;
unicode = 0063;
},
{
glyphname = d;
lastChange = "2016-03-12 01:06:39 +0000";
layers = (
{
anchors = (
{
name = bottom;
position = "{285, 0}";
},
{
name = center;
position = "{457, 645}";
},
{
name = top;
position = "{461, 759}";
},
{
name = topright;
position = "{572, 562}";
}
);
hints = (
{
horizontal = 1;
origin = "{0, 29}";
target = "{1, 13}";
},
{
horizontal = 1;
origin = "{0, 22}";
target = "{1, 6}";
},
{
horizontal = 1;
origin = "{0, 15}";
target = down;
type = TopGhost;
},
{
horizontal = 1;
origin = "{0, 6}";
target = up;
type = BottomGhost;
},
{
origin = "{0, 26}";
target = "{1, 2}";
},
{
origin = "{1, 10}";
target = "{0, 10}";
}
);
layerId = "DDABD3A5-4A8B-4D55-9B9E-1269DFBEF3A1";
paths = (
{
closed = 1;
nodes = (
"334 -13 OFFCURVE",
"388 12 OFFCURVE",
"426 58 CURVE",
"426 14 LINE SMOOTH",
"426 6 OFFCURVE",
"432 0 OFFCURVE",
"440 0 CURVE SMOOTH",
"486 0 LINE SMOOTH",
"494 0 OFFCURVE",
"500 6 OFFCURVE",
"500 14 CURVE SMOOTH",
"500 745 LINE SMOOTH",
"500 753 OFFCURVE",
"494 759 OFFCURVE",
"486 759 CURVE SMOOTH",
"436 759 LINE SMOOTH",
"428 759 OFFCURVE",
"422 753 OFFCURVE",
"422 745 CURVE SMOOTH",
"422 522 LINE",
"383 558 OFFCURVE",
"330 579 OFFCURVE",
"275 579 CURVE SMOOTH",
"158 579 OFFCURVE",
"65 485 OFFCURVE",
"65 370 CURVE SMOOTH",
"65 196 LINE SMOOTH",
"65 81 OFFCURVE",
"159 -13 OFFCURVE",
"274 -13 CURVE SMOOTH"
);
},
{
closed = 1;
nodes = (
"205 61 OFFCURVE",
"143 123 OFFCURVE",
"143 200 CURVE SMOOTH",
"143 366 LINE SMOOTH",
"143 443 OFFCURVE",
"205 505 OFFCURVE",
"282 505 CURVE SMOOTH",
"360 505 OFFCURVE",
"422 443 OFFCURVE",
"422 366 CURVE SMOOTH",
"422 200 LINE SMOOTH",
"422 123 OFFCURVE",
"360 61 OFFCURVE",
"282 61 CURVE SMOOTH"
);
}
);
width = 590;
},
{
anchors = (
{
name = bottom;
position = "{285, 0}";
},
{
name = center;
position = "{457, 645}";
},
{
name = top;
position = "{461, 759}";
},
{
name = topright;
position = "{572, 562}";
}
);
associatedMasterId = "DDABD3A5-4A8B-4D55-9B9E-1269DFBEF3A1";
hints = (
{
horizontal = 1;
origin = "{0, 29}";
target = "{1, 13}";
},
{
horizontal = 1;
origin = "{0, 22}";
target = "{1, 6}";
},
{
horizontal = 1;
origin = "{0, 15}";
target = down;
type = TopGhost;
},
{
horizontal = 1;
origin = "{0, 6}";
target = up;
type = BottomGhost;
},
{
origin = "{0, 26}";
target = "{1, 2}";
},
{
origin = "{1, 10}";
target = "{0, 10}";
}
);
layerId = "B0B9CB6F-42D1-4225-A992-2041CC383E57";
name = "Regular Mar 8 16, 22:04";
paths = (
{
closed = 1;
nodes = (
"334 -13 OFFCURVE",
"390 13 OFFCURVE",
"426 60 CURVE",
"426 21 LINE SMOOTH",
"426 9 OFFCURVE",
"435 0 OFFCURVE",
"447 0 CURVE SMOOTH",
"479 0 LINE SMOOTH",
"491 0 OFFCURVE",
"500 9 OFFCURVE",
"500 21 CURVE SMOOTH",
"500 745 LINE SMOOTH",
"500 753 OFFCURVE",
"494 759 OFFCURVE",
"486 759 CURVE SMOOTH",
"436 759 LINE SMOOTH",
"428 759 OFFCURVE",
"422 753 OFFCURVE",
"422 745 CURVE SMOOTH",
"422 525 LINE",
"386 559 OFFCURVE",
"332 579 OFFCURVE",
"274 579 CURVE SMOOTH",
"159 579 OFFCURVE",
"65 485 OFFCURVE",
"65 370 CURVE SMOOTH",
"65 196 LINE SMOOTH",
"65 81 OFFCURVE",
"159 -13 OFFCURVE",
"274 -13 CURVE SMOOTH"
);
},
{
closed = 1;
nodes = (
"205 61 OFFCURVE",
"143 123 OFFCURVE",
"143 200 CURVE SMOOTH",
"143 366 LINE SMOOTH",
"143 443 OFFCURVE",
"205 505 OFFCURVE",
"282 505 CURVE SMOOTH",
"360 505 OFFCURVE",
"422 443 OFFCURVE",
"422 366 CURVE SMOOTH",
"422 200 LINE SMOOTH",
"422 123 OFFCURVE",
"360 61 OFFCURVE",
"282 61 CURVE SMOOTH"
);
}
);
width = 590;
}
);
leftKerningGroup = o;
rightKerningGroup = d;
unicode = 0064;
},
{
glyphname = eth;
lastChange = "2016-03-12 01:06:39 +0000";
layers = (
{
hints = (
{
horizontal = 1;
origin = "{0, 59}";
target = "{1, 13}";
},
{
horizontal = 1;
origin = "{1, 6}";
target = "{0, 52}";
},
{
horizontal = 1;
origin = "{0, 21}";
target = up;
type = BottomGhost;
},
{
horizontal = 1;
origin = "{0, 24}";
target = "{0, 31}";
},
{
origin = "{0, 56}";
target = "{1, 2}";
},
{
origin = "{1, 10}";
target = "{0, 2}";
},
{
horizontal = 1;
origin = "{0, 42}";
target = up;
type = BottomGhost;
}
);
layerId = "DDABD3A5-4A8B-4D55-9B9E-1269DFBEF3A1";
paths = (
{
closed = 1;
nodes = (
"402 -13 OFFCURVE",
"499 84 OFFCURVE",
"499 205 CURVE SMOOTH",
"499 316 LINE SMOOTH",
"499 416 OFFCURVE",
"492 501 OFFCURVE",
"458 574 CURVE SMOOTH",
"443 604 OFFCURVE",
"425 632 OFFCURVE",
"403 655 CURVE",
"478 690 LINE SMOOTH",
"484 693 OFFCURVE",
"489 700 OFFCURVE",
"489 707 CURVE SMOOTH",
"489 747 LINE SMOOTH",
"489 754 OFFCURVE",
"483 759 OFFCURVE",
"477 759 CURVE SMOOTH",
"476 759 OFFCURVE",
"474 759 OFFCURVE",
"472 758 CURVE SMOOTH",
"351 701 LINE",
"297 739 OFFCURVE",
"231 759 OFFCURVE",
"159 759 CURVE SMOOTH",
"150 759 OFFCURVE",
"144 753 OFFCURVE",
"144 745 CURVE SMOOTH",
"144 700 LINE SMOOTH",
"144 693 OFFCURVE",
"150 686 OFFCURVE",
"157 686 CURVE SMOOTH",
"198 686 OFFCURVE",
"236 678 OFFCURVE",
"269 663 CURVE",
"188 625 LINE SMOOTH",
"182 622 OFFCURVE",
"177 615 OFFCURVE",
"177 608 CURVE SMOOTH",
"177 568 LINE SMOOTH",
"177 561 OFFCURVE",
"183 556 OFFCURVE",
"189 556 CURVE SMOOTH",
"190 556 OFFCURVE",
"192 556 OFFCURVE",
"194 557 CURVE SMOOTH",
"332 622 LINE",
"369 587 OFFCURVE",
"396 541 OFFCURVE",
"409 485 CURVE",
"373 511 OFFCURVE",
"329 526 OFFCURVE",
"282 526 CURVE SMOOTH",
"162 526 OFFCURVE",
"65 430 OFFCURVE",
"65 308 CURVE SMOOTH",
"65 205 LINE SMOOTH",
"65 84 OFFCURVE",
"162 -13 OFFCURVE",
"282 -13 CURVE SMOOTH"
);
},
{
closed = 1;
nodes = (
"205 61 OFFCURVE",
"143 123 OFFCURVE",
"143 200 CURVE SMOOTH",
"143 313 LINE SMOOTH",
"143 390 OFFCURVE",
"205 452 OFFCURVE",
"282 452 CURVE SMOOTH",
"359 452 OFFCURVE",
"421 390 OFFCURVE",
"421 313 CURVE SMOOTH",
"421 200 LINE SMOOTH",
"421 123 OFFCURVE",
"359 61 OFFCURVE",
"282 61 CURVE SMOOTH"
);
}
);
width = 574;
}
);
leftKerningGroup = o;
unicode = 00F0;
},
{
glyphname = dcaron;
lastChange = "2016-03-12 01:06:39 +0000";
layers = (
{
annotations = (
{
position = "{13.219, 522.266}";
type = Text;
}
);
hints = (
{
horizontal = 1;
origin = "{0, 29}";
target = "{1, 13}";
},
{
horizontal = 1;
origin = "{0, 22}";
target = "{1, 6}";
},
{
horizontal = 1;
origin = "{0, 15}";
target = "{2, 15}";
},
{
horizontal = 1;
origin = "{0, 6}";
target = up;
type = BottomGhost;
},
{
origin = "{0, 26}";
target = "{1, 2}";
},
{
origin = "{1, 10}";
target = "{0, 10}";
}
);
layerId = "DDABD3A5-4A8B-4D55-9B9E-1269DFBEF3A1";
paths = (
{
closed = 1;
nodes = (
"334 -13 OFFCURVE",
"388 12 OFFCURVE",
"426 58 CURVE",
"426 14 LINE SMOOTH",
"426 6 OFFCURVE",
"432 0 OFFCURVE",
"440 0 CURVE SMOOTH",
"486 0 LINE SMOOTH",
"494 0 OFFCURVE",
"500 6 OFFCURVE",
"500 14 CURVE SMOOTH",
"500 745 LINE SMOOTH",
"500 753 OFFCURVE",
"494 759 OFFCURVE",
"486 759 CURVE SMOOTH",
"436 759 LINE SMOOTH",
"428 759 OFFCURVE",
"422 753 OFFCURVE",
"422 745 CURVE SMOOTH",
"422 522 LINE",
"383 558 OFFCURVE",
"330 579 OFFCURVE",
"275 579 CURVE SMOOTH",
"158 579 OFFCURVE",
"65 485 OFFCURVE",
"65 370 CURVE SMOOTH",
"65 196 LINE SMOOTH",
"65 81 OFFCURVE",
"159 -13 OFFCURVE",
"274 -13 CURVE SMOOTH"
);
},
{
closed = 1;
nodes = (
"205 61 OFFCURVE",
"143 123 OFFCURVE",
"143 200 CURVE SMOOTH",
"143 366 LINE SMOOTH",
"143 443 OFFCURVE",
"205 505 OFFCURVE",
"282 505 CURVE SMOOTH",
"360 505 OFFCURVE",
"422 443 OFFCURVE",
"422 366 CURVE SMOOTH",
"422 200 LINE SMOOTH",
"422 123 OFFCURVE",
"360 61 OFFCURVE",
"282 61 CURVE SMOOTH"
);
},
{
closed = 1;
nodes = (
"593 631 LINE SMOOTH",
"606 631 OFFCURVE",
"613 636 OFFCURVE",
"619 643 CURVE SMOOTH",
"700 736 LINE SMOOTH",
"708 745 OFFCURVE",
"703 759 OFFCURVE",
"690 759 CURVE SMOOTH",
"623 759 LINE SMOOTH",
"608 759 OFFCURVE",
"599 750 OFFCURVE",
"595 740 CURVE SMOOTH",
"558 650 LINE SMOOTH",
"554 640 OFFCURVE",
"558 631 OFFCURVE",
"569 631 CURVE SMOOTH"
);
}
);
width = 595;
}
);
leftKerningGroup = o;
unicode = 010F;
},
{
glyphname = dcroat;
lastChange = "2016-03-12 01:06:39 +0000";
layers = (
{
hints = (
{
horizontal = 1;
origin = "{0, 29}";
target = "{1, 13}";
},
{
horizontal = 1;
origin = "{0, 22}";
target = "{1, 6}";
},
{
horizontal = 1;
origin = "{2, 15}";
target = "{2, 8}";
},
{
horizontal = 1;
origin = "{0, 15}";
target = "{2, 15}";
},
{
horizontal = 1;
origin = "{0, 6}";
target = up;
type = BottomGhost;
},
{
origin = "{0, 26}";
target = "{1, 2}";
},
{
origin = "{1, 10}";
target = "{0, 10}";
}
);
layerId = "DDABD3A5-4A8B-4D55-9B9E-1269DFBEF3A1";
paths = (
{
closed = 1;
nodes = (
"334 -13 OFFCURVE",
"388 12 OFFCURVE",
"426 58 CURVE",
"426 14 LINE SMOOTH",
"426 6 OFFCURVE",
"432 0 OFFCURVE",
"440 0 CURVE SMOOTH",
"486 0 LINE SMOOTH",
"494 0 OFFCURVE",
"500 6 OFFCURVE",
"500 14 CURVE SMOOTH",
"500 745 LINE SMOOTH",
"500 753 OFFCURVE",
"494 759 OFFCURVE",
"486 759 CURVE SMOOTH",
"436 759 LINE SMOOTH",
"428 759 OFFCURVE",
"422 753 OFFCURVE",
"422 745 CURVE SMOOTH",
"422 522 LINE",
"383 558 OFFCURVE",
"330 579 OFFCURVE",
"275 579 CURVE SMOOTH",
"158 579 OFFCURVE",
"65 485 OFFCURVE",
"65 370 CURVE SMOOTH",
"65 196 LINE SMOOTH",
"65 81 OFFCURVE",
"159 -13 OFFCURVE",
"274 -13 CURVE SMOOTH"
);
},
{
closed = 1;
nodes = (
"205 61 OFFCURVE",
"143 123 OFFCURVE",
"143 200 CURVE SMOOTH",
"143 366 LINE SMOOTH",
"143 443 OFFCURVE",
"205 505 OFFCURVE",
"282 505 CURVE SMOOTH",
"360 505 OFFCURVE",
"422 443 OFFCURVE",
"422 366 CURVE SMOOTH",
"422 200 LINE SMOOTH",
"422 123 OFFCURVE",
"360 61 OFFCURVE",
"282 61 CURVE SMOOTH"
);
},
{
closed = 1;
nodes = (
"557 615 LINE SMOOTH",
"565 615 OFFCURVE",
"571 621 OFFCURVE",
"571 629 CURVE SMOOTH",
"571 661 LINE SMOOTH",
"571 669 OFFCURVE",
"565 675 OFFCURVE",
"557 675 CURVE SMOOTH",
"333 675 LINE SMOOTH",
"325 675 OFFCURVE",
"319 669 OFFCURVE",
"319 661 CURVE SMOOTH",
"319 629 LINE SMOOTH",
"319 621 OFFCURVE",
"325 615 OFFCURVE",
"333 615 CURVE SMOOTH"
);
}
);
width = 607;
}
);
leftKerningGroup = o;
unicode = 0111;
},
{
glyphname = e;
lastChange = "2016-03-12 01:06:39 +0000";
layers = (
{
anchors = (
{
name = bottom;
position = "{280, 0}";
},
{
name = ogonek;
position = "{412, 0}";
},
{
name = top;
position = "{282, 566}";
}
);
hints = (
{
horizontal = 1;
origin = "{0, 27}";
target = "{0, 8}";
},
{
horizontal = 1;
origin = "{0, 12}";
target = "{1, 8}";
},
{
horizontal = 1;
origin = "{0, 20}";
target = "{1, 3}";
},
{
origin = "{0, 24}";
target = "{0, 11}";
},
{
origin = "{1, 7}";
target = "{0, 16}";
}
);
layerId = "DDABD3A5-4A8B-4D55-9B9E-1269DFBEF3A1";
paths = (
{
closed = 1;
nodes = (
"427 0 LINE SMOOTH",
"435 0 OFFCURVE",
"441 6 OFFCURVE",
"441 14 CURVE SMOOTH",
"441 60 LINE SMOOTH",
"441 68 OFFCURVE",
"435 74 OFFCURVE",
"427 74 CURVE SMOOTH",
"282 74 LINE SMOOTH",
"205 74 OFFCURVE",
"143 136 OFFCURVE",
"143 213 CURVE SMOOTH",
"143 257 LINE",
"463 257 LINE SMOOTH",
"483 257 OFFCURVE",
"499 273 OFFCURVE",
"499 293 CURVE SMOOTH",
"499 361 LINE SMOOTH",
"499 482 OFFCURVE",
"402 579 OFFCURVE",
"282 579 CURVE SMOOTH",
"162 579 OFFCURVE",
"65 482 OFFCURVE",
"65 361 CURVE SMOOTH",
"65 218 LINE SMOOTH",
"65 97 OFFCURVE",
"162 0 OFFCURVE",
"282 0 CURVE SMOOTH"
);
},
{
closed = 1;
nodes = (
"143 366 LINE SMOOTH",
"143 443 OFFCURVE",
"205 505 OFFCURVE",
"282 505 CURVE SMOOTH",
"359 505 OFFCURVE",
"421 443 OFFCURVE",
"421 366 CURVE SMOOTH",
"421 329 LINE",
"143 329 LINE"
);
}
);
width = 557;
}
);
leftKerningGroup = o;
rightKerningGroup = e;
unicode = 0065;
},
{
glyphname = eogonek;
lastChange = "2016-03-12 01:06:39 +0000";
layers = (
{
hints = (
{
horizontal = 1;
origin = "{0, 48}";
target = "{0, 8}";
},
{
horizontal = 1;
origin = "{0, 41}";
target = "{0, 22}";
},
{
horizontal = 1;
origin = "{0, 26}";
target = "{1, 8}";
},
{
horizontal = 1;
origin = "{0, 34}";
target = "{1, 3}";
},
{
origin = "{0, 38}";
target = "{0, 25}";
},
{
origin = "{0, 45}";
target = "{0, 11}";
},
{
origin = "{1, 7}";
target = "{0, 30}";
}
);
layerId = "DDABD3A5-4A8B-4D55-9B9E-1269DFBEF3A1";
paths = (
{
closed = 1;
nodes = (
"431 -197 LINE SMOOTH",
"439 -197 OFFCURVE",
"446 -190 OFFCURVE",
"446 -182 CURVE SMOOTH",
"446 -142 LINE SMOOTH",
"446 -134 OFFCURVE",
"439 -127 OFFCURVE",
"431 -127 CURVE SMOOTH",
"414 -127 LINE SMOOTH",
"393 -127 OFFCURVE",
"372 -120 OFFCURVE",
"372 -90 CURVE SMOOTH",
"372 -58 OFFCURVE",
"397 -32 OFFCURVE",
"428 0 CURVE SMOOTH",
"436 8 OFFCURVE",
"441 17 OFFCURVE",
"441 28 CURVE SMOOTH",
"441 60 LINE SMOOTH",
"441 68 OFFCURVE",
"435 74 OFFCURVE",
"427 74 CURVE SMOOTH",
"282 74 LINE SMOOTH",
"205 74 OFFCURVE",
"143 136 OFFCURVE",
"143 213 CURVE SMOOTH",
"143 257 LINE",
"463 257 LINE SMOOTH",
"483 257 OFFCURVE",
"499 273 OFFCURVE",
"499 293 CURVE SMOOTH",
"499 361 LINE SMOOTH",
"499 482 OFFCURVE",
"402 579 OFFCURVE",
"282 579 CURVE SMOOTH",
"162 579 OFFCURVE",
"65 482 OFFCURVE",
"65 361 CURVE SMOOTH",
"65 218 LINE SMOOTH",
"65 97 OFFCURVE",
"162 0 OFFCURVE",
"282 0 CURVE SMOOTH",
"360 0 LINE",
"329 -26 OFFCURVE",
"293 -67 OFFCURVE",
"293 -112 CURVE SMOOTH",
"293 -165 OFFCURVE",
"343 -197 OFFCURVE",
"401 -197 CURVE SMOOTH"
);
},
{
closed = 1;
nodes = (
"143 366 LINE SMOOTH",
"143 443 OFFCURVE",
"205 505 OFFCURVE",
"282 505 CURVE SMOOTH",
"359 505 OFFCURVE",
"421 443 OFFCURVE",
"421 366 CURVE SMOOTH",
"421 329 LINE",
"143 329 LINE"
);
}
);
width = 557;
}
);
leftKerningGroup = o;
leftMetricsKey = e;
rightKerningGroup = e;
rightMetricsKey = e;
unicode = 0119;
},
{
glyphname = f;
lastChange = "2016-03-12 01:06:38 +0000";
layers = (
{
anchors = (
{
name = bottom;
position = "{171, 0}";
},
{
name = top;
position = "{184, 759}";
}
);
hints = (
{
horizontal = 1;
place = "{0, 0}";
},
{
horizontal = 1;
origin = "{0, 13}";
target = "{0, 4}";
},
{
horizontal = 1;
origin = "{0, 26}";
target = "{0, 17}";
},
{
origin = "{0, 40}";
target = "{0, 3}";
}
);
layerId = "DDABD3A5-4A8B-4D55-9B9E-1269DFBEF3A1";
paths = (
{
closed = 1;
nodes = (
"194 0 LINE SMOOTH",
"202 0 OFFCURVE",
"208 6 OFFCURVE",
"208 14 CURVE SMOOTH",
"208 492 LINE",
"344 492 LINE SMOOTH",
"352 492 OFFCURVE",
"358 498 OFFCURVE",
"358 506 CURVE SMOOTH",
"358 552 LINE SMOOTH",
"358 560 OFFCURVE",
"352 566 OFFCURVE",
"344 566 CURVE SMOOTH",
"208 566 LINE",
"208 610 LINE SMOOTH",
"208 656 OFFCURVE",
"238 688 OFFCURVE",
"283 688 CURVE SMOOTH",
"364 688 LINE SMOOTH",
"372 688 OFFCURVE",
"378 694 OFFCURVE",
"378 702 CURVE SMOOTH",
"378 745 LINE SMOOTH",
"378 753 OFFCURVE",
"372 759 OFFCURVE",
"364 759 CURVE SMOOTH",
"284 759 LINE SMOOTH",
"184 759 OFFCURVE",
"130 690 OFFCURVE",
"130 606 CURVE SMOOTH",
"130 566 LINE",
"54 566 LINE SMOOTH",
"46 566 OFFCURVE",
"40 560 OFFCURVE",
"40 552 CURVE SMOOTH",
"40 506 LINE SMOOTH",
"40 498 OFFCURVE",
"46 492 OFFCURVE",
"54 492 CURVE SMOOTH",
"130 492 LINE",
"130 14 LINE SMOOTH",
"130 6 OFFCURVE",
"136 0 OFFCURVE",
"144 0 CURVE SMOOTH"
);
}
);
width = 408;
}
);
leftKerningGroup = f;
rightKerningGroup = f;
unicode = 0066;
},
{
glyphname = g;
lastChange = "2016-03-12 01:06:39 +0000";
layers = (
{
anchors = (
{
name = bottom;
position = "{284, -193}";
},
{
name = top;
position = "{275, 566}";
}
);
hints = (
{
horizontal = 1;
origin = "{0, 53}";
target = "{1, 17}";
},
{
horizontal = 1;
origin = "{0, 17}";
target = "{2, 11}";
},
{
horizontal = 1;
origin = "{0, 32}";
target = "{0, 23}";
},
{
horizontal = 1;
origin = "{0, 35}";
target = "{2, 5}";
},
{
horizontal = 1;
origin = "{0, 32}";
target = "{2, 5}";
},
{
origin = "{0, 50}";
target = "{1, 2}";
},
{
origin = "{1, 14}";
target = "{0, 2}";
},
{
origin = "{0, 44}";
target = "{0, 11}";
},
{
origin = "{2, 8}";
target = "{0, 20}";
},
{
origin = "{0, 38}";
target = "{2, 2}";
}
);
layerId = "DDABD3A5-4A8B-4D55-9B9E-1269DFBEF3A1";
paths = (
{
closed = 1;
nodes = (
"413 -206 OFFCURVE",
"519 -152 OFFCURVE",
"519 -38 CURVE SMOOTH",
"519 69 OFFCURVE",
"425 80 OFFCURVE",
"353 86 CURVE SMOOTH",
"261 94 OFFCURVE",
"198 97 OFFCURVE",
"170 112 CURVE SMOOTH",
"159 118 OFFCURVE",
"150 128 OFFCURVE",
"150 146 CURVE SMOOTH",
"150 170 OFFCURVE",
"166 193 OFFCURVE",
"196 206 CURVE",
"221 198 OFFCURVE",
"247 193 OFFCURVE",
"275 193 CURVE SMOOTH",
"389 193 OFFCURVE",
"481 269 OFFCURVE",
"481 386 CURVE SMOOTH",
"481 427 OFFCURVE",
"470 463 OFFCURVE",
"450 492 CURVE",
"551 492 LINE SMOOTH",
"559 492 OFFCURVE",
"565 498 OFFCURVE",
"565 506 CURVE SMOOTH",
"565 552 LINE SMOOTH",
"565 560 OFFCURVE",
"559 566 OFFCURVE",
"551 566 CURVE SMOOTH",
"353 566 LINE",
"329 574 OFFCURVE",
"303 579 OFFCURVE",
"275 579 CURVE SMOOTH",
"161 579 OFFCURVE",
"69 503 OFFCURVE",
"69 386 CURVE SMOOTH",
"69 322 OFFCURVE",
"97 270 OFFCURVE",
"141 236 CURVE",
"102 211 OFFCURVE",
"76 172 OFFCURVE",
"76 130 CURVE SMOOTH",
"76 95 OFFCURVE",
"93 74 OFFCURVE",
"124 53 CURVE",
"88 25 OFFCURVE",
"65 -20 OFFCURVE",
"65 -67 CURVE SMOOTH",
"65 -163 OFFCURVE",
"160 -206 OFFCURVE",
"279 -206 CURVE SMOOTH"
);
},
{
closed = 1;
nodes = (
"210 -137 OFFCURVE",
"137 -116 OFFCURVE",
"137 -50 CURVE SMOOTH",
"137 -20 OFFCURVE",
"153 12 OFFCURVE",
"180 32 CURVE",
"190 30 OFFCURVE",
"203 28 OFFCURVE",
"220 26 CURVE SMOOTH",
"273 19 OFFCURVE",
"313 17 OFFCURVE",
"336 15 CURVE SMOOTH",
"406 9 OFFCURVE",
"446 4 OFFCURVE",
"446 -46 CURVE SMOOTH",
"446 -112 OFFCURVE",
"374 -137 OFFCURVE",
"288 -137 CURVE SMOOTH"
);
},
{
closed = 1;
nodes = (
"195 262 OFFCURVE",
"145 314 OFFCURVE",
"145 386 CURVE SMOOTH",
"145 458 OFFCURVE",
"195 510 OFFCURVE",
"275 510 CURVE SMOOTH",
"355 510 OFFCURVE",
"405 458 OFFCURVE",
"405 386 CURVE SMOOTH",
"405 314 OFFCURVE",
"355 262 OFFCURVE",
"275 262 CURVE SMOOTH"
);
}
);
width = 585;
}
);
leftKerningGroup = g;
rightKerningGroup = g;
unicode = 0067;
},
{
glyphname = gcommaaccent;
lastChange = "2016-03-12 01:06:39 +0000";
layers = (
{
anchors = (
{
name = bottom;
position = "{274, -193}";
},
{
name = top;
position = "{275, 879}";
}
);
hints = (
{
horizontal = 1;
origin = "{0, 53}";
target = "{1, 17}";
},
{
horizontal = 1;
origin = "{0, 17}";
target = "{2, 11}";
},
{
horizontal = 1;
origin = "{0, 32}";
target = "{0, 23}";
},
{
horizontal = 1;
origin = "{3, 8}";
target = "{3, 15}";
},
{
horizontal = 1;
origin = "{0, 35}";
target = "{2, 5}";
},
{
horizontal = 1;
origin = "{0, 32}";
target = "{2, 5}";
},
{
origin = "{0, 38}";
target = "{2, 2}";
},
{
origin = "{1, 14}";
target = "{0, 2}";
},
{
origin = "{0, 50}";
target = "{1, 2}";
},
{
origin = "{0, 44}";
target = "{0, 11}";
},
{
origin = "{2, 8}";
target = "{0, 20}";
}
);
layerId = "DDABD3A5-4A8B-4D55-9B9E-1269DFBEF3A1";
paths = (
{
closed = 1;
nodes = (
"413 -206 OFFCURVE",
"519 -152 OFFCURVE",
"519 -38 CURVE SMOOTH",
"519 69 OFFCURVE",
"425 80 OFFCURVE",
"353 86 CURVE SMOOTH",
"261 94 OFFCURVE",
"198 97 OFFCURVE",
"170 112 CURVE SMOOTH",
"159 118 OFFCURVE",
"150 128 OFFCURVE",
"150 146 CURVE SMOOTH",
"150 170 OFFCURVE",
"166 193 OFFCURVE",
"196 206 CURVE",
"221 198 OFFCURVE",
"247 193 OFFCURVE",
"275 193 CURVE SMOOTH",
"389 193 OFFCURVE",
"481 269 OFFCURVE",
"481 386 CURVE SMOOTH",
"481 427 OFFCURVE",
"470 463 OFFCURVE",
"450 492 CURVE",
"551 492 LINE SMOOTH",
"559 492 OFFCURVE",
"565 498 OFFCURVE",
"565 506 CURVE SMOOTH",
"565 552 LINE SMOOTH",
"565 560 OFFCURVE",
"559 566 OFFCURVE",
"551 566 CURVE SMOOTH",
"353 566 LINE",
"329 574 OFFCURVE",
"303 579 OFFCURVE",
"275 579 CURVE SMOOTH",
"161 579 OFFCURVE",
"69 503 OFFCURVE",
"69 386 CURVE SMOOTH",
"69 322 OFFCURVE",
"97 270 OFFCURVE",
"141 236 CURVE",
"102 211 OFFCURVE",
"76 172 OFFCURVE",
"76 130 CURVE SMOOTH",
"76 95 OFFCURVE",
"93 74 OFFCURVE",
"124 53 CURVE",
"88 25 OFFCURVE",
"65 -20 OFFCURVE",
"65 -67 CURVE SMOOTH",
"65 -163 OFFCURVE",
"160 -206 OFFCURVE",
"279 -206 CURVE SMOOTH"
);
},
{
closed = 1;
nodes = (
"210 -137 OFFCURVE",
"137 -116 OFFCURVE",
"137 -50 CURVE SMOOTH",
"137 -20 OFFCURVE",
"153 12 OFFCURVE",
"180 32 CURVE",
"190 30 OFFCURVE",
"203 28 OFFCURVE",
"220 26 CURVE SMOOTH",
"273 19 OFFCURVE",
"313 17 OFFCURVE",
"336 15 CURVE SMOOTH",
"406 9 OFFCURVE",
"446 4 OFFCURVE",
"446 -46 CURVE SMOOTH",
"446 -112 OFFCURVE",
"374 -137 OFFCURVE",
"288 -137 CURVE SMOOTH"
);
},
{
closed = 1;
nodes = (
"195 262 OFFCURVE",
"145 314 OFFCURVE",
"145 386 CURVE SMOOTH",
"145 458 OFFCURVE",
"195 510 OFFCURVE",
"275 510 CURVE SMOOTH",
"355 510 OFFCURVE",
"405 458 OFFCURVE",
"405 386 CURVE SMOOTH",
"405 314 OFFCURVE",
"355 262 OFFCURVE",
"275 262 CURVE SMOOTH"
);
},
{
closed = 1;
nodes = (
"307 631 LINE SMOOTH",
"322 631 OFFCURVE",
"330 640 OFFCURVE",
"335 650 CURVE SMOOTH",
"383 752 LINE SMOOTH",
"388 762 OFFCURVE",
"383 771 OFFCURVE",
"372 771 CURVE SMOOTH",
"348 771 LINE SMOOTH",
"335 771 OFFCURVE",
"328 766 OFFCURVE",
"322 759 CURVE SMOOTH",
"230 654 LINE SMOOTH",
"222 645 OFFCURVE",
"227 631 OFFCURVE",
"240 631 CURVE SMOOTH"
);
}
);
width = 585;
}
);
leftKerningGroup = g;
leftMetricsKey = g;
rightKerningGroup = g;
unicode = 0123;
},
{
glyphname = h;
lastChange = "2016-03-12 01:06:38 +0000";
layers = (
{
anchors = (
{
name = bottom;
position = "{305, 0}";
},
{
name = center;
position = "{130, 652}";
},
{
name = top;
position = "{129, 759}";
}
);
guideLines = (
{
angle = 90;
position = "{113, 374}";
}
);
hints = (
{
horizontal = 1;
origin = "{0, 37}";
target = up;
type = BottomGhost;
},
{
horizontal = 1;
origin = "{0, 22}";
target = "{0, 7}";
},
{
horizontal = 1;
origin = "{0, 30}";
target = down;
type = TopGhost;
},
{
origin = "{0, 34}";
target = "{0, 3}";
},
{
origin = "{0, 11}";
target = "{0, 18}";
}
);
layerId = "DDABD3A5-4A8B-4D55-9B9E-1269DFBEF3A1";
paths = (
{
closed = 1;
nodes = (
"154 0 LINE SMOOTH",
"162 0 OFFCURVE",
"168 6 OFFCURVE",
"168 14 CURVE SMOOTH",
"168 341 LINE SMOOTH",
"168 446 OFFCURVE",
"230 506 OFFCURVE",
"317 506 CURVE SMOOTH",
"390 506 OFFCURVE",
"441 462 OFFCURVE",
"441 375 CURVE SMOOTH",
"441 14 LINE SMOOTH",
"441 6 OFFCURVE",
"447 0 OFFCURVE",
"455 0 CURVE SMOOTH",
"505 0 LINE SMOOTH",
"513 0 OFFCURVE",
"519 6 OFFCURVE",
"519 14 CURVE SMOOTH",
"519 390 LINE SMOOTH",
"519 503 OFFCURVE",
"443 579 OFFCURVE",
"329 579 CURVE SMOOTH",
"261 579 OFFCURVE",
"203 551 OFFCURVE",
"168 496 CURVE",
"168 745 LINE SMOOTH",
"168 753 OFFCURVE",
"162 759 OFFCURVE",
"154 759 CURVE SMOOTH",
"104 759 LINE SMOOTH",
"96 759 OFFCURVE",
"90 753 OFFCURVE",
"90 745 CURVE SMOOTH",
"90 14 LINE SMOOTH",
"90 6 OFFCURVE",
"96 0 OFFCURVE",
"104 0 CURVE SMOOTH"
);
}
);
width = 594;
}
);
leftKerningGroup = h;
rightKerningGroup = h;
unicode = 0068;
},
{
glyphname = hbar;
lastChange = "2016-03-12 01:06:39 +0000";
layers = (
{
hints = (
{
horizontal = 1;
origin = "{0, 37}";
target = up;
type = BottomGhost;
},
{
horizontal = 1;
origin = "{0, 22}";
target = "{0, 7}";
},
{
horizontal = 1;
origin = "{0, 30}";
target = "{0, 22}";
},
{
horizontal = 1;
origin = "{0, 22}";
target = "{1, 8}";
},
{
origin = "{0, 34}";
target = "{0, 3}";
},
{
origin = "{0, 11}";
target = "{0, 18}";
}
);
layerId = "DDABD3A5-4A8B-4D55-9B9E-1269DFBEF3A1";
paths = (
{
closed = 1;
nodes = (
"155 0 LINE SMOOTH",
"163 0 OFFCURVE",
"170 7 OFFCURVE",
"170 15 CURVE SMOOTH",
"170 341 LINE SMOOTH",
"170 446 OFFCURVE",
"232 506 OFFCURVE",
"319 506 CURVE SMOOTH",
"392 506 OFFCURVE",
"443 462 OFFCURVE",
"443 375 CURVE SMOOTH",
"443 14 LINE SMOOTH",
"443 6 OFFCURVE",
"449 0 OFFCURVE",
"457 0 CURVE SMOOTH",
"506 0 LINE SMOOTH",
"514 0 OFFCURVE",
"521 7 OFFCURVE",
"521 15 CURVE SMOOTH",
"521 390 LINE SMOOTH",
"521 503 OFFCURVE",
"445 579 OFFCURVE",
"331 579 CURVE SMOOTH",
"263 579 OFFCURVE",
"205 551 OFFCURVE",
"170 496 CURVE",
"170 744 LINE SMOOTH",
"170 752 OFFCURVE",
"163 759 OFFCURVE",
"155 759 CURVE SMOOTH",
"107 759 LINE SMOOTH",
"99 759 OFFCURVE",
"92 752 OFFCURVE",
"92 744 CURVE SMOOTH",
"92 15 LINE SMOOTH",
"92 7 OFFCURVE",
"99 0 OFFCURVE",
"107 0 CURVE SMOOTH"
);
},
{
closed = 1;
nodes = (
"263 615 LINE SMOOTH",
"271 615 OFFCURVE",
"277 621 OFFCURVE",
"277 629 CURVE SMOOTH",
"277 661 LINE SMOOTH",
"277 669 OFFCURVE",
"271 675 OFFCURVE",
"263 675 CURVE SMOOTH",
"19 675 LINE SMOOTH",
"11 675 OFFCURVE",
"5 669 OFFCURVE",
"5 661 CURVE SMOOTH",
"5 629 LINE SMOOTH",
"5 621 OFFCURVE",
"11 615 OFFCURVE",
"19 615 CURVE SMOOTH"
);
}
);
width = 596;
}
);
rightKerningGroup = h;
unicode = 0127;
},
{
glyphname = i;
lastChange = "2016-03-12 01:06:39 +0000";
layers = (
{
hints = (
{
horizontal = 1;
origin = "{0, 25}";
target = "{0, 8}";
},
{
horizontal = 1;
origin = "{0, 13}";
target = "{0, 20}";
},
{
horizontal = 1;
origin = "{1, 8}";
target = "{1, 15}";
},
{
origin = "{0, 22}";
target = "{0, 8}";
}
);
layerId = "DDABD3A5-4A8B-4D55-9B9E-1269DFBEF3A1";
paths = (
{
closed = 1;
nodes = (
"344 0 LINE SMOOTH",
"352 0 OFFCURVE",
"358 6 OFFCURVE",
"358 14 CURVE SMOOTH",
"358 60 LINE SMOOTH",
"358 68 OFFCURVE",
"352 74 OFFCURVE",
"344 74 CURVE SMOOTH",
"241 74 LINE",
"241 530 LINE SMOOTH",
"241 550 OFFCURVE",
"225 566 OFFCURVE",
"205 566 CURVE SMOOTH",
"59 566 LINE SMOOTH",
"51 566 OFFCURVE",
"45 560 OFFCURVE",
"45 552 CURVE SMOOTH",
"45 506 LINE SMOOTH",
"45 498 OFFCURVE",
"51 492 OFFCURVE",
"59 492 CURVE SMOOTH",
"163 492 LINE",
"163 36 LINE SMOOTH",
"163 16 OFFCURVE",
"179 0 OFFCURVE",
"199 0 CURVE SMOOTH"
);
},
{
closed = 1;
nodes = (
"226 644 LINE SMOOTH",
"234 644 OFFCURVE",
"240 650 OFFCURVE",
"240 658 CURVE SMOOTH",
"240 745 LINE SMOOTH",
"240 753 OFFCURVE",
"234 759 OFFCURVE",
"226 759 CURVE SMOOTH",
"178 759 LINE SMOOTH",
"170 759 OFFCURVE",
"164 753 OFFCURVE",
"164 745 CURVE SMOOTH",
"164 658 LINE SMOOTH",
"164 650 OFFCURVE",
"170 644 OFFCURVE",
"178 644 CURVE SMOOTH"
);
}
);
width = 393;
}
);
leftKerningGroup = i;
rightKerningGroup = i;
unicode = 0069;
},
{
glyphname = idotless;
lastChange = "2016-03-12 01:06:38 +0000";
layers = (
{
anchors = (
{
name = bottom;
position = "{223, 0}";
},
{
name = ogonek;
position = "{329, 0}";
},
{
name = top;
position = "{191, 566}";
}
);
hints = (
{
horizontal = 1;
place = "{0, 74}";
},
{
horizontal = 1;
place = "{566, -74}";
},
{
place = "{162, 78}";
}
);
layerId = "DDABD3A5-4A8B-4D55-9B9E-1269DFBEF3A1";
paths = (
{
closed = 1;
nodes = (
"344 0 LINE SMOOTH",
"352 0 OFFCURVE",
"358 6 OFFCURVE",
"358 14 CURVE SMOOTH",
"358 60 LINE SMOOTH",
"358 68 OFFCURVE",
"352 74 OFFCURVE",
"344 74 CURVE SMOOTH",
"241 74 LINE",
"241 530 LINE SMOOTH",
"241 550 OFFCURVE",
"225 566 OFFCURVE",
"205 566 CURVE SMOOTH",
"59 566 LINE SMOOTH",
"51 566 OFFCURVE",
"45 560 OFFCURVE",
"45 552 CURVE SMOOTH",
"45 506 LINE SMOOTH",
"45 498 OFFCURVE",
"51 492 OFFCURVE",
"59 492 CURVE SMOOTH",
"163 492 LINE",
"163 36 LINE SMOOTH",
"163 16 OFFCURVE",
"179 0 OFFCURVE",
"199 0 CURVE SMOOTH"
);
}
);
width = 393;
}
);
leftKerningGroup = i;
rightKerningGroup = i;
unicode = 0131;
},
{
glyphname = iogonek;
lastChange = "2016-03-12 01:06:39 +0000";
layers = (
{
hints = (
{
horizontal = 1;
origin = "{0, 46}";
target = "{0, 8}";
},
{
horizontal = 1;
origin = "{0, 39}";
target = "{0, 22}";
},
{
horizontal = 1;
origin = "{0, 27}";
target = "{0, 34}";
},
{
horizontal = 1;
origin = "{1, 15}";
target = "{1, 8}";
},
{
origin = "{1, 12}";
target = "{1, 3}";
},
{
origin = "{0, 43}";
target = "{0, 11}";
},
{
origin = "{0, 36}";
target = "{0, 22}";
}
);
layerId = "DDABD3A5-4A8B-4D55-9B9E-1269DFBEF3A1";
paths = (
{
closed = 1;
nodes = (
"348 -197 LINE SMOOTH",
"356 -197 OFFCURVE",
"363 -190 OFFCURVE",
"363 -182 CURVE SMOOTH",
"363 -142 LINE SMOOTH",
"363 -134 OFFCURVE",
"356 -127 OFFCURVE",
"348 -127 CURVE SMOOTH",
"331 -127 LINE SMOOTH",
"310 -127 OFFCURVE",
"289 -120 OFFCURVE",
"289 -90 CURVE SMOOTH",
"289 -58 OFFCURVE",
"314 -32 OFFCURVE",
"345 0 CURVE SMOOTH",
"353 8 OFFCURVE",
"358 17 OFFCURVE",
"358 28 CURVE SMOOTH",
"358 60 LINE SMOOTH",
"358 68 OFFCURVE",
"352 74 OFFCURVE",
"344 74 CURVE SMOOTH",
"241 74 LINE",
"241 530 LINE SMOOTH",
"241 550 OFFCURVE",
"225 566 OFFCURVE",
"205 566 CURVE SMOOTH",
"59 566 LINE SMOOTH",
"51 566 OFFCURVE",
"45 560 OFFCURVE",
"45 552 CURVE SMOOTH",
"45 506 LINE SMOOTH",
"45 498 OFFCURVE",
"51 492 OFFCURVE",
"59 492 CURVE SMOOTH",
"163 492 LINE",
"163 36 LINE SMOOTH",
"163 16 OFFCURVE",
"179 0 OFFCURVE",
"199 0 CURVE SMOOTH",
"277 0 LINE",
"246 -26 OFFCURVE",
"210 -67 OFFCURVE",
"210 -112 CURVE SMOOTH",
"210 -165 OFFCURVE",
"260 -197 OFFCURVE",
"318 -197 CURVE SMOOTH"
);
},
{
closed = 1;
nodes = (
"223 664 LINE SMOOTH",
"231 664 OFFCURVE",
"237 670 OFFCURVE",
"237 678 CURVE SMOOTH",
"237 765 LINE SMOOTH",
"237 773 OFFCURVE",
"231 779 OFFCURVE",
"223 779 CURVE SMOOTH",
"175 779 LINE SMOOTH",
"167 779 OFFCURVE",
"161 773 OFFCURVE",
"161 765 CURVE SMOOTH",
"161 678 LINE SMOOTH",
"161 670 OFFCURVE",
"167 664 OFFCURVE",
"175 664 CURVE SMOOTH"
);
}
);
width = 393;
}
);
leftKerningGroup = i;
rightKerningGroup = i;
unicode = 012F;
},
{
glyphname = j;
lastChange = "2016-03-12 01:06:39 +0000";
layers = (
{
guideLines = (
{
angle = 90;
position = "{31, -135}";
}
);
hints = (
{
horizontal = 1;
origin = "{0, 28}";
target = "{0, 21}";
},
{
horizontal = 1;
origin = "{0, 8}";
target = "{0, 15}";
},
{
horizontal = 1;
origin = "{1, 15}";
target = "{1, 8}";
},
{
origin = "{0, 17}";
target = "{0, 3}";
}
);
layerId = "DDABD3A5-4A8B-4D55-9B9E-1269DFBEF3A1";
paths = (
{
closed = 1;
nodes = (
"116 -193 LINE SMOOTH",
"206 -193 OFFCURVE",
"260 -124 OFFCURVE",
"260 -43 CURVE SMOOTH",
"260 530 LINE SMOOTH",
"260 550 OFFCURVE",
"244 566 OFFCURVE",
"224 566 CURVE SMOOTH",
"49 566 LINE SMOOTH",
"41 566 OFFCURVE",
"35 560 OFFCURVE",
"35 552 CURVE SMOOTH",
"35 506 LINE SMOOTH",
"35 498 OFFCURVE",
"41 492 OFFCURVE",
"49 492 CURVE SMOOTH",
"182 492 LINE",
"182 -43 LINE SMOOTH",
"182 -90 OFFCURVE",
"152 -121 OFFCURVE",
"107 -121 CURVE SMOOTH",
"49 -121 LINE SMOOTH",
"41 -121 OFFCURVE",
"35 -127 OFFCURVE",
"35 -135 CURVE SMOOTH",
"35 -179 LINE SMOOTH",
"35 -187 OFFCURVE",
"41 -193 OFFCURVE",
"49 -193 CURVE SMOOTH"
);
},
{
closed = 1;
nodes = (
"245 664 LINE SMOOTH",
"253 664 OFFCURVE",
"259 670 OFFCURVE",
"259 678 CURVE SMOOTH",
"259 765 LINE SMOOTH",
"259 773 OFFCURVE",
"253 779 OFFCURVE",
"245 779 CURVE SMOOTH",
"197 779 LINE SMOOTH",
"189 779 OFFCURVE",
"183 773 OFFCURVE",
"183 765 CURVE SMOOTH",
"183 678 LINE SMOOTH",
"183 670 OFFCURVE",
"189 664 OFFCURVE",
"197 664 CURVE SMOOTH"
);
}
);
width = 355;
}
);
leftKerningGroup = j;
rightKerningGroup = j;
unicode = 006A;
},
{
glyphname = k;
lastChange = "2016-03-12 01:06:38 +0000";
layers = (
{
anchors = (
{
name = bottom;
position = "{293, 0}";
},
{
name = top;
position = "{280, 566}";
}
);
hints = (
{
horizontal = 1;
origin = "{0, 42}";
target = up;
type = BottomGhost;
},
{
horizontal = 1;
origin = "{0, 4}";
target = "{0, 30}";
},
{
horizontal = 1;
origin = "{0, 25}";
target = down;
type = TopGhost;
},
{
horizontal = 1;
origin = "{0, 35}";
target = down;
type = TopGhost;
},
{
origin = "{0, 39}";
target = "{0, 3}";
}
);
layerId = "DDABD3A5-4A8B-4D55-9B9E-1269DFBEF3A1";
paths = (
{
closed = 1;
nodes = (
"153 0 LINE SMOOTH",
"161 0 OFFCURVE",
"168 5 OFFCURVE",
"168 13 CURVE SMOOTH",
"168 272 LINE",
"209 272 LINE",
"418 9 LINE SMOOTH",
"423 3 OFFCURVE",
"428 0 OFFCURVE",
"435 0 CURVE SMOOTH",
"500 0 LINE SMOOTH",
"508 0 OFFCURVE",
"512 6 OFFCURVE",
"512 12 CURVE SMOOTH",
"512 15 OFFCURVE",
"511 17 OFFCURVE",
"509 20 CURVE SMOOTH",
"275 312 LINE",
"497 544 LINE SMOOTH",
"500 547 OFFCURVE",
"501 550 OFFCURVE",
"501 554 CURVE SMOOTH",
"501 560 OFFCURVE",
"496 566 OFFCURVE",
"488 566 CURVE SMOOTH",
"423 566 LINE SMOOTH",
"416 566 OFFCURVE",
"411 563 OFFCURVE",
"406 557 CURVE SMOOTH",
"209 346 LINE",
"168 346 LINE",
"168 745 LINE SMOOTH",
"168 753 OFFCURVE",
"162 759 OFFCURVE",
"154 759 CURVE SMOOTH",
"104 759 LINE SMOOTH",
"96 759 OFFCURVE",
"90 753 OFFCURVE",
"90 745 CURVE SMOOTH",
"90 13 LINE SMOOTH",
"90 5 OFFCURVE",
"97 0 OFFCURVE",
"105 0 CURVE SMOOTH"
);
}
);
width = 537;
}
);
leftKerningGroup = h;
rightKerningGroup = k;
unicode = 006B;
},
{
glyphname = l;
lastChange = "2016-03-12 01:06:38 +0000";
layers = (
{
anchors = (
{
name = bottom;
position = "{224, 0}";
},
{
name = center;
position = "{161, 395}";
},
{
name = top;
position = "{167, 759}";
},
{
name = topright;
position = "{322, 695}";
}
);
hints = (
{
horizontal = 1;
origin = "{0, 25}";
target = "{0, 8}";
},
{
horizontal = 1;
origin = "{0, 13}";
target = "{0, 20}";
},
{
origin = "{0, 22}";
target = "{0, 8}";
}
);
layerId = "DDABD3A5-4A8B-4D55-9B9E-1269DFBEF3A1";
paths = (
{
closed = 1;
nodes = (
"306 0 LINE SMOOTH",
"314 0 OFFCURVE",
"320 6 OFFCURVE",
"320 14 CURVE SMOOTH",
"320 60 LINE SMOOTH",
"320 68 OFFCURVE",
"314 74 OFFCURVE",
"306 74 CURVE SMOOTH",
"200 74 LINE",
"200 723 LINE SMOOTH",
"200 743 OFFCURVE",
"184 759 OFFCURVE",
"164 759 CURVE SMOOTH",
"29 759 LINE SMOOTH",
"21 759 OFFCURVE",
"15 753 OFFCURVE",
"15 745 CURVE SMOOTH",
"15 699 LINE SMOOTH",
"15 691 OFFCURVE",
"21 685 OFFCURVE",
"29 685 CURVE SMOOTH",
"122 685 LINE",
"122 36 LINE SMOOTH",
"122 16 OFFCURVE",
"138 0 OFFCURVE",
"158 0 CURVE SMOOTH"
);
}
);
width = 350;
}
);
leftKerningGroup = l;
rightKerningGroup = l;
unicode = 006C;
},
{
glyphname = lcaron;
lastChange = "2016-03-12 01:06:39 +0000";
layers = (
{
hints = (
{
horizontal = 1;
origin = "{0, 25}";
target = "{0, 8}";
},
{
horizontal = 1;
origin = "{0, 13}";
target = "{0, 20}";
},
{
origin = "{0, 22}";
target = "{0, 8}";
}
);
layerId = "DDABD3A5-4A8B-4D55-9B9E-1269DFBEF3A1";
paths = (
{
closed = 1;
nodes = (
"306 0 LINE SMOOTH",
"314 0 OFFCURVE",
"320 6 OFFCURVE",
"320 14 CURVE SMOOTH",
"320 60 LINE SMOOTH",
"320 68 OFFCURVE",
"314 74 OFFCURVE",
"306 74 CURVE SMOOTH",
"200 74 LINE",
"200 723 LINE SMOOTH",
"200 743 OFFCURVE",
"184 759 OFFCURVE",
"164 759 CURVE SMOOTH",
"29 759 LINE SMOOTH",
"21 759 OFFCURVE",
"15 753 OFFCURVE",
"15 745 CURVE SMOOTH",
"15 699 LINE SMOOTH",
"15 691 OFFCURVE",
"21 685 OFFCURVE",
"29 685 CURVE SMOOTH",
"122 685 LINE",
"122 36 LINE SMOOTH",
"122 16 OFFCURVE",
"138 0 OFFCURVE",
"158 0 CURVE SMOOTH"
);
},
{
closed = 1;
nodes = (
"311 631 LINE SMOOTH",
"324 631 OFFCURVE",
"331 636 OFFCURVE",
"337 643 CURVE SMOOTH",
"418 736 LINE SMOOTH",
"426 745 OFFCURVE",
"421 759 OFFCURVE",
"408 759 CURVE SMOOTH",
"341 759 LINE SMOOTH",
"326 759 OFFCURVE",
"317 750 OFFCURVE",
"313 740 CURVE SMOOTH",
"276 650 LINE SMOOTH",
"272 640 OFFCURVE",
"276 631 OFFCURVE",
"287 631 CURVE SMOOTH"
);
}
);
width = 362;
}
);
leftKerningGroup = l;
leftMetricsKey = l;
unicode = 013E;
},
{
glyphname = lslash;
lastChange = "2016-03-12 01:06:39 +0000";
layers = (
{
hints = (
{
horizontal = 1;
origin = "{0, 25}";
target = "{0, 8}";
},
{
horizontal = 1;
origin = "{1, 10}";
target = down;
type = TopGhost;
},
{
horizontal = 1;
origin = "{0, 13}";
target = "{0, 20}";
},
{
origin = "{0, 22}";
target = "{0, 8}";
}
);
layerId = "DDABD3A5-4A8B-4D55-9B9E-1269DFBEF3A1";
paths = (
{
closed = 1;
nodes = (
"336 0 LINE SMOOTH",
"344 0 OFFCURVE",
"350 6 OFFCURVE",
"350 14 CURVE SMOOTH",
"350 60 LINE SMOOTH",
"350 68 OFFCURVE",
"344 74 OFFCURVE",
"336 74 CURVE SMOOTH",
"230 74 LINE",
"230 723 LINE SMOOTH",
"230 743 OFFCURVE",
"214 759 OFFCURVE",
"194 759 CURVE SMOOTH",
"59 759 LINE SMOOTH",
"51 759 OFFCURVE",
"45 753 OFFCURVE",
"45 745 CURVE SMOOTH",
"45 699 LINE SMOOTH",
"45 691 OFFCURVE",
"51 685 OFFCURVE",
"59 685 CURVE SMOOTH",
"152 685 LINE",
"152 36 LINE SMOOTH",
"152 16 OFFCURVE",
"168 0 OFFCURVE",
"188 0 CURVE SMOOTH"
);
},
{
closed = 1;
nodes = (
"62 231 OFFCURVE",
"65 233 OFFCURVE",
"68 235 CURVE SMOOTH",
"344 490 LINE SMOOTH",
"348 494 OFFCURVE",
"350 498 OFFCURVE",
"350 503 CURVE SMOOTH",
"350 554 LINE SMOOTH",
"350 563 OFFCURVE",
"344 569 OFFCURVE",
"337 569 CURVE SMOOTH",
"333 569 OFFCURVE",
"330 567 OFFCURVE",
"327 565 CURVE SMOOTH",
"51 310 LINE SMOOTH",
"47 306 OFFCURVE",
"45 302 OFFCURVE",
"45 297 CURVE SMOOTH",
"45 246 LINE SMOOTH",
"45 237 OFFCURVE",
"51 231 OFFCURVE",
"58 231 CURVE SMOOTH"
);
}
);
width = 395;
}
);
unicode = 0142;
},
{
glyphname = m;
lastChange = "2016-03-12 01:06:38 +0000";
layers = (
{
anchors = (
{
name = bottom;
position = "{472, 0}";
},
{
name = top;
position = "{486, 566}";
}
);
hints = (
{
horizontal = 1;
origin = "{0, 58}";
target = up;
type = BottomGhost;
},
{
horizontal = 1;
origin = "{0, 37}";
target = "{0, 22}";
},
{
horizontal = 1;
origin = "{0, 43}";
target = "{0, 7}";
},
{
horizontal = 1;
origin = "{0, 51}";
target = down;
type = TopGhost;
},
{
origin = "{0, 55}";
target = "{0, 3}";
},
{
origin = "{0, 11}";
target = "{0, 18}";
},
{
origin = "{0, 26}";
target = "{0, 33}";
}
);
layerId = "DDABD3A5-4A8B-4D55-9B9E-1269DFBEF3A1";
paths = (
{
closed = 1;
nodes = (
"154 0 LINE SMOOTH",
"162 0 OFFCURVE",
"168 6 OFFCURVE",
"168 14 CURVE SMOOTH",
"168 341 LINE SMOOTH",
"168 446 OFFCURVE",
"226 506 OFFCURVE",
"307 506 CURVE SMOOTH",
"380 506 OFFCURVE",
"431 462 OFFCURVE",
"431 375 CURVE SMOOTH",
"431 14 LINE SMOOTH",
"431 6 OFFCURVE",
"437 0 OFFCURVE",
"445 0 CURVE SMOOTH",
"495 0 LINE SMOOTH",
"503 0 OFFCURVE",
"509 6 OFFCURVE",
"509 14 CURVE SMOOTH",
"509 340 LINE SMOOTH",
"509 445 OFFCURVE",
"567 505 OFFCURVE",
"648 505 CURVE SMOOTH",
"721 505 OFFCURVE",
"772 461 OFFCURVE",
"772 374 CURVE SMOOTH",
"772 14 LINE SMOOTH",
"772 6 OFFCURVE",
"778 0 OFFCURVE",
"786 0 CURVE SMOOTH",
"836 0 LINE SMOOTH",
"844 0 OFFCURVE",
"850 6 OFFCURVE",
"850 14 CURVE SMOOTH",
"850 389 LINE SMOOTH",
"850 502 OFFCURVE",
"774 578 OFFCURVE",
"660 578 CURVE SMOOTH",
"587 578 OFFCURVE",
"524 541 OFFCURVE",
"495 469 CURVE",
"468 537 OFFCURVE",
"404 579 OFFCURVE",
"319 579 CURVE SMOOTH",
"256 579 OFFCURVE",
"201 552 OFFCURVE",
"168 498 CURVE",
"168 552 LINE SMOOTH",
"168 560 OFFCURVE",
"162 566 OFFCURVE",
"154 566 CURVE SMOOTH",
"104 566 LINE SMOOTH",
"96 566 OFFCURVE",
"90 560 OFFCURVE",
"90 552 CURVE SMOOTH",
"90 14 LINE SMOOTH",
"90 6 OFFCURVE",
"96 0 OFFCURVE",
"104 0 CURVE SMOOTH"
);
}
);
width = 925;
}
);
leftKerningGroup = n;
rightKerningGroup = n;
unicode = 006D;
},
{
glyphname = n;
lastChange = "2016-03-12 01:06:38 +0000";
layers = (
{
anchors = (
{
name = bottom;
position = "{304, 0}";
},
{
name = top;
position = "{305, 566}";
}
);
hints = (
{
horizontal = 1;
origin = "{0, 30}";
target = down;
type = TopGhost;
},
{
horizontal = 1;
origin = "{0, 7}";
target = "{0, 22}";
},
{
origin = "{0, 34}";
target = "{0, 3}";
},
{
origin = "{0, 11}";
target = "{0, 18}";
}
);
layerId = "DDABD3A5-4A8B-4D55-9B9E-1269DFBEF3A1";
paths = (
{
closed = 1;
nodes = (
"154 1 LINE SMOOTH",
"162 1 OFFCURVE",
"168 7 OFFCURVE",
"168 15 CURVE SMOOTH",
"168 342 LINE SMOOTH",
"168 447 OFFCURVE",
"230 507 OFFCURVE",
"317 507 CURVE SMOOTH",
"390 507 OFFCURVE",
"441 463 OFFCURVE",
"441 376 CURVE SMOOTH",
"441 15 LINE SMOOTH",
"441 7 OFFCURVE",
"447 1 OFFCURVE",
"455 1 CURVE SMOOTH",
"505 1 LINE SMOOTH",
"513 1 OFFCURVE",
"519 7 OFFCURVE",
"519 15 CURVE SMOOTH",
"519 391 LINE SMOOTH",
"519 504 OFFCURVE",
"443 580 OFFCURVE",
"329 580 CURVE SMOOTH",
"261 580 OFFCURVE",
"203 552 OFFCURVE",
"168 497 CURVE",
"168 552 LINE SMOOTH",
"168 560 OFFCURVE",
"162 566 OFFCURVE",
"154 566 CURVE SMOOTH",
"104 566 LINE SMOOTH",
"96 566 OFFCURVE",
"90 560 OFFCURVE",
"90 552 CURVE SMOOTH",
"90 15 LINE SMOOTH",
"90 7 OFFCURVE",
"96 1 OFFCURVE",
"104 1 CURVE SMOOTH"
);
}
);
width = 594;
}
);
leftKerningGroup = n;
rightKerningGroup = n;
unicode = 006E;
},
{
glyphname = eng;
lastChange = "2016-03-12 01:06:38 +0000";
layers = (
{
hints = (
{
horizontal = 1;
origin = "{0, 45}";
target = "{0, 38}";
},
{
horizontal = 1;
origin = "{0, 15}";
target = down;
type = TopGhost;
},
{
horizontal = 1;
origin = "{0, 30}";
target = "{0, 7}";
},
{
origin = "{0, 19}";
target = "{0, 26}";
},
{
origin = "{0, 34}";
target = "{0, 3}";
}
);
layerId = "DDABD3A5-4A8B-4D55-9B9E-1269DFBEF3A1";
paths = (
{
closed = 1;
nodes = (
"375 -193 LINE SMOOTH",
"465 -193 OFFCURVE",
"519 -124 OFFCURVE",
"519 -43 CURVE SMOOTH",
"519 391 LINE SMOOTH",
"519 504 OFFCURVE",
"443 580 OFFCURVE",
"329 580 CURVE SMOOTH",
"261 580 OFFCURVE",
"203 552 OFFCURVE",
"168 497 CURVE",
"168 552 LINE SMOOTH",
"168 560 OFFCURVE",
"162 566 OFFCURVE",
"154 566 CURVE SMOOTH",
"104 566 LINE SMOOTH",
"96 566 OFFCURVE",
"90 560 OFFCURVE",
"90 552 CURVE SMOOTH",
"90 15 LINE SMOOTH",
"90 7 OFFCURVE",
"96 1 OFFCURVE",
"104 1 CURVE SMOOTH",
"154 1 LINE SMOOTH",
"162 1 OFFCURVE",
"168 7 OFFCURVE",
"168 15 CURVE SMOOTH",
"168 342 LINE SMOOTH",
"168 447 OFFCURVE",
"230 507 OFFCURVE",
"317 507 CURVE SMOOTH",
"390 507 OFFCURVE",
"441 463 OFFCURVE",
"441 376 CURVE SMOOTH",
"441 -43 LINE SMOOTH",
"441 -90 OFFCURVE",
"411 -121 OFFCURVE",
"366 -121 CURVE SMOOTH",
"308 -121 LINE SMOOTH",
"300 -121 OFFCURVE",
"294 -127 OFFCURVE",
"294 -135 CURVE SMOOTH",
"294 -179 LINE SMOOTH",
"294 -187 OFFCURVE",
"300 -193 OFFCURVE",
"308 -193 CURVE SMOOTH"
);
}
);
width = 604;
}
);
leftKerningGroup = n;
rightKerningGroup = j;
unicode = 014B;
},
{
glyphname = o;
lastChange = "2016-03-12 01:06:39 +0000";
layers = (
{
anchors = (
{
name = bottom;
position = "{283, 0}";
},
{
name = center;
position = "{282, 283}";
},
{
name = ogonek;
position = "{372, 0}";
},
{
name = top;
position = "{280, 566}";
},
{
name = topright;
position = "{543, 566}";
}
);
hints = (
{
horizontal = 1;
origin = "{0, 13}";
target = "{1, 13}";
},
{
horizontal = 1;
origin = "{0, 6}";
target = "{1, 6}";
},
{
origin = "{0, 10}";
target = "{1, 2}";
},
{
origin = "{1, 10}";
target = "{0, 2}";
}
);
layerId = "DDABD3A5-4A8B-4D55-9B9E-1269DFBEF3A1";
paths = (
{
closed = 1;
nodes = (
"402 -13 OFFCURVE",
"499 84 OFFCURVE",
"499 205 CURVE SMOOTH",
"499 361 LINE SMOOTH",
"499 482 OFFCURVE",
"402 579 OFFCURVE",
"282 579 CURVE SMOOTH",
"162 579 OFFCURVE",
"65 482 OFFCURVE",
"65 361 CURVE SMOOTH",
"65 205 LINE SMOOTH",
"65 84 OFFCURVE",
"162 -13 OFFCURVE",
"282 -13 CURVE SMOOTH"
);
},
{
closed = 1;
nodes = (
"205 61 OFFCURVE",
"143 123 OFFCURVE",
"143 200 CURVE SMOOTH",
"143 366 LINE SMOOTH",
"143 443 OFFCURVE",
"205 505 OFFCURVE",
"282 505 CURVE SMOOTH",
"359 505 OFFCURVE",
"421 443 OFFCURVE",
"421 366 CURVE SMOOTH",
"421 200 LINE SMOOTH",
"421 123 OFFCURVE",
"359 61 OFFCURVE",
"282 61 CURVE SMOOTH"
);
}
);
width = 564;
}
);
leftKerningGroup = o;
rightKerningGroup = o;
unicode = 006F;
},
{
glyphname = oe;
lastChange = "2016-03-12 01:06:39 +0000";
layers = (
{
anchors = (
{
name = bottom;
position = "{460, 0}";
},
{
name = top;
position = "{460, 566}";
}
);
hints = (
{
horizontal = 1;
origin = "{0, 39}";
target = "{1, 13}";
},
{
horizontal = 1;
origin = "{0, 18}";
target = "{2, 8}";
},
{
horizontal = 1;
origin = "{0, 32}";
target = "{1, 6}";
},
{
horizontal = 1;
origin = "{0, 5}";
target = "{0, 14}";
},
{
origin = "{0, 36}";
target = "{1, 2}";
},
{
origin = "{1, 10}";
target = "{0, 17}";
},
{
origin = "{2, 7}";
target = "{0, 22}";
}
);
layerId = "DDABD3A5-4A8B-4D55-9B9E-1269DFBEF3A1";
paths = (
{
closed = 1;
nodes = (
"359 -13 OFFCURVE",
"426 27 OFFCURVE",
"465 87 CURVE",
"504 34 OFFCURVE",
"567 0 OFFCURVE",
"638 0 CURVE SMOOTH",
"783 0 LINE SMOOTH",
"791 0 OFFCURVE",
"797 6 OFFCURVE",
"797 14 CURVE SMOOTH",
"797 60 LINE SMOOTH",
"797 68 OFFCURVE",
"791 74 OFFCURVE",
"783 74 CURVE SMOOTH",
"638 74 LINE SMOOTH",
"561 74 OFFCURVE",
"499 136 OFFCURVE",
"499 213 CURVE SMOOTH",
"499 257 LINE",
"819 257 LINE SMOOTH",
"839 257 OFFCURVE",
"855 273 OFFCURVE",
"855 293 CURVE SMOOTH",
"855 361 LINE SMOOTH",
"855 482 OFFCURVE",
"758 579 OFFCURVE",
"638 579 CURVE SMOOTH",
"564 579 OFFCURVE",
"499 542 OFFCURVE",
"460 486 CURVE",
"421 542 OFFCURVE",
"356 579 OFFCURVE",
"282 579 CURVE SMOOTH",
"162 579 OFFCURVE",
"65 482 OFFCURVE",
"65 361 CURVE SMOOTH",
"65 205 LINE SMOOTH",
"65 84 OFFCURVE",
"162 -13 OFFCURVE",
"282 -13 CURVE SMOOTH"
);
},
{
closed = 1;
nodes = (
"205 61 OFFCURVE",
"143 123 OFFCURVE",
"143 200 CURVE SMOOTH",
"143 366 LINE SMOOTH",
"143 443 OFFCURVE",
"205 505 OFFCURVE",
"282 505 CURVE SMOOTH",
"359 505 OFFCURVE",
"421 443 OFFCURVE",
"421 366 CURVE SMOOTH",
"421 200 LINE SMOOTH",
"421 123 OFFCURVE",
"359 61 OFFCURVE",
"282 61 CURVE SMOOTH"
);
},
{
closed = 1;
nodes = (
"499 366 LINE SMOOTH",
"499 443 OFFCURVE",
"561 505 OFFCURVE",
"638 505 CURVE SMOOTH",
"715 505 OFFCURVE",
"777 443 OFFCURVE",
"777 366 CURVE SMOOTH",
"777 329 LINE",
"499 329 LINE"
);
}
);
width = 913;
}
);
leftKerningGroup = o;
leftMetricsKey = o;
rightKerningGroup = e;
rightMetricsKey = e;
unicode = 0153;
},
{
glyphname = p;
lastChange = "2016-03-12 01:06:39 +0000";
layers = (
{
anchors = (
{
name = bottom;
position = "{314, 0}";
},
{
name = top;
position = "{315, 566}";
}
);
hints = (
{
horizontal = 1;
origin = "{0, 7}";
target = "{1, 13}";
},
{
horizontal = 1;
origin = "{0, 14}";
target = "{1, 6}";
},
{
horizontal = 1;
origin = "{0, 22}";
target = down;
type = TopGhost;
},
{
origin = "{0, 26}";
target = "{0, 3}";
},
{
origin = "{1, 10}";
target = "{0, 10}";
}
);
layerId = "DDABD3A5-4A8B-4D55-9B9E-1269DFBEF3A1";
paths = (
{
closed = 1;
nodes = (
"154 -193 LINE SMOOTH",
"162 -193 OFFCURVE",
"168 -187 OFFCURVE",
"168 -179 CURVE SMOOTH",
"168 44 LINE",
"207 8 OFFCURVE",
"260 -13 OFFCURVE",
"315 -13 CURVE SMOOTH",
"432 -13 OFFCURVE",
"525 81 OFFCURVE",
"525 196 CURVE SMOOTH",
"525 370 LINE SMOOTH",
"525 485 OFFCURVE",
"431 579 OFFCURVE",
"316 579 CURVE SMOOTH",
"256 579 OFFCURVE",
"202 554 OFFCURVE",
"164 508 CURVE",
"164 552 LINE SMOOTH",
"164 560 OFFCURVE",
"158 566 OFFCURVE",
"150 566 CURVE SMOOTH",
"104 566 LINE SMOOTH",
"96 566 OFFCURVE",
"90 560 OFFCURVE",
"90 552 CURVE SMOOTH",
"90 -179 LINE SMOOTH",
"90 -187 OFFCURVE",
"96 -193 OFFCURVE",
"104 -193 CURVE SMOOTH"
);
},
{
closed = 1;
nodes = (
"230 61 OFFCURVE",
"168 123 OFFCURVE",
"168 200 CURVE SMOOTH",
"168 366 LINE SMOOTH",
"168 443 OFFCURVE",
"230 505 OFFCURVE",
"308 505 CURVE SMOOTH",
"385 505 OFFCURVE",
"447 443 OFFCURVE",
"447 366 CURVE SMOOTH",
"447 200 LINE SMOOTH",
"447 123 OFFCURVE",
"385 61 OFFCURVE",
"308 61 CURVE SMOOTH"
);
}
);
width = 590;
}
);
leftKerningGroup = p;
rightKerningGroup = o;
unicode = 0070;
},
{
glyphname = thorn;
lastChange = "2016-03-12 01:06:39 +0000";
layers = (
{
anchors = (
{
name = bottom;
position = "{308, 0}";
},
{
name = top;
position = "{313, 566}";
}
);
guideLines = (
{
angle = 90;
position = "{125, 481}";
}
);
hints = (
{
horizontal = 1;
origin = "{0, 7}";
target = "{1, 13}";
},
{
horizontal = 1;
origin = "{0, 14}";
target = "{1, 6}";
},
{
horizontal = 1;
origin = "{0, 22}";
target = down;
type = TopGhost;
},
{
origin = "{0, 26}";
target = "{0, 3}";
},
{
origin = "{1, 10}";
target = "{0, 10}";
}
);
layerId = "DDABD3A5-4A8B-4D55-9B9E-1269DFBEF3A1";
paths = (
{
closed = 1;
nodes = (
"154 -193 LINE SMOOTH",
"162 -193 OFFCURVE",
"168 -187 OFFCURVE",
"168 -179 CURVE SMOOTH",
"168 49 LINE",
"206 11 OFFCURVE",
"258 -13 OFFCURVE",
"316 -13 CURVE SMOOTH",
"431 -13 OFFCURVE",
"525 81 OFFCURVE",
"525 196 CURVE SMOOTH",
"525 370 LINE SMOOTH",
"525 485 OFFCURVE",
"431 579 OFFCURVE",
"316 579 CURVE SMOOTH",
"256 579 OFFCURVE",
"202 554 OFFCURVE",
"164 513 CURVE",
"164 745 LINE SMOOTH",
"164 753 OFFCURVE",
"158 759 OFFCURVE",
"150 759 CURVE SMOOTH",
"104 759 LINE SMOOTH",
"96 759 OFFCURVE",
"90 753 OFFCURVE",
"90 745 CURVE SMOOTH",
"90 -179 LINE SMOOTH",
"90 -187 OFFCURVE",
"96 -193 OFFCURVE",
"104 -193 CURVE SMOOTH"
);
},
{
closed = 1;
nodes = (
"230 61 OFFCURVE",
"168 123 OFFCURVE",
"168 200 CURVE SMOOTH",
"168 366 LINE SMOOTH",
"168 443 OFFCURVE",
"230 505 OFFCURVE",
"308 505 CURVE SMOOTH",
"385 505 OFFCURVE",
"447 443 OFFCURVE",
"447 366 CURVE SMOOTH",
"447 200 LINE SMOOTH",
"447 123 OFFCURVE",
"385 61 OFFCURVE",
"308 61 CURVE SMOOTH"
);
}
);
width = 590;
}
);
rightKerningGroup = o;
unicode = 00FE;
},
{
glyphname = q;
lastChange = "2016-03-12 01:06:39 +0000";
layers = (
{
anchors = (
{
name = bottom;
position = "{463, -197}";
},
{
name = top;
position = "{274, 566}";
}
);
hints = (
{
horizontal = 1;
origin = "{0, 22}";
target = "{1, 13}";
},
{
horizontal = 1;
origin = "{0, 15}";
target = "{1, 6}";
},
{
horizontal = 1;
origin = "{0, 8}";
target = down;
type = TopGhost;
},
{
origin = "{0, 19}";
target = "{1, 2}";
},
{
origin = "{0, 26}";
target = "{0, 3}";
}
);
layerId = "DDABD3A5-4A8B-4D55-9B9E-1269DFBEF3A1";
paths = (
{
closed = 1;
nodes = (
"486 -193 LINE SMOOTH",
"494 -193 OFFCURVE",
"500 -187 OFFCURVE",
"500 -179 CURVE SMOOTH",
"500 552 LINE SMOOTH",
"500 560 OFFCURVE",
"494 566 OFFCURVE",
"486 566 CURVE SMOOTH",
"440 566 LINE SMOOTH",
"432 566 OFFCURVE",
"426 560 OFFCURVE",
"426 552 CURVE SMOOTH",
"426 513 LINE",
"388 554 OFFCURVE",
"334 579 OFFCURVE",
"274 579 CURVE SMOOTH",
"159 579 OFFCURVE",
"65 485 OFFCURVE",
"65 370 CURVE SMOOTH",
"65 196 LINE SMOOTH",
"65 81 OFFCURVE",
"159 -13 OFFCURVE",
"274 -13 CURVE SMOOTH",
"332 -13 OFFCURVE",
"385 14 OFFCURVE",
"422 57 CURVE",
"422 -179 LINE SMOOTH",
"422 -187 OFFCURVE",
"428 -193 OFFCURVE",
"436 -193 CURVE SMOOTH"
);
},
{
closed = 1;
nodes = (
"205 61 OFFCURVE",
"143 123 OFFCURVE",
"143 200 CURVE SMOOTH",
"143 366 LINE SMOOTH",
"143 443 OFFCURVE",
"205 505 OFFCURVE",
"282 505 CURVE SMOOTH",
"360 505 OFFCURVE",
"422 443 OFFCURVE",
"422 366 CURVE SMOOTH",
"422 200 LINE SMOOTH",
"422 123 OFFCURVE",
"360 61 OFFCURVE",
"282 61 CURVE SMOOTH"
);
}
);
width = 590;
}
);
leftKerningGroup = o;
rightKerningGroup = q;
unicode = 0071;
},
{
glyphname = r;
lastChange = "2016-03-12 01:06:38 +0000";
layers = (
{
anchors = (
{
name = bottom;
position = "{189, 0}";
},
{
name = top;
position = "{186, 566}";
}
);
hints = (
{
horizontal = 1;
origin = "{0, 48}";
target = "{0, 41}";
},
{
horizontal = 1;
origin = "{0, 31}";
target = "{0, 38}";
},
{
horizontal = 1;
origin = "{0, 22}";
target = "{0, 38}";
},
{
origin = "{0, 40}";
target = "{0, 8}";
}
);
layerId = "DDABD3A5-4A8B-4D55-9B9E-1269DFBEF3A1";
paths = (
{
closed = 1;
nodes = (
"341 0 LINE SMOOTH",
"349 0 OFFCURVE",
"355 6 OFFCURVE",
"355 14 CURVE SMOOTH",
"355 60 LINE SMOOTH",
"355 68 OFFCURVE",
"349 74 OFFCURVE",
"341 74 CURVE SMOOTH",
"225 74 LINE",
"225 392 LINE",
"284 439 LINE SMOOTH",
"345 488 OFFCURVE",
"366 495 OFFCURVE",
"397 495 CURVE SMOOTH",
"419 495 LINE SMOOTH",
"427 495 OFFCURVE",
"433 501 OFFCURVE",
"433 509 CURVE SMOOTH",
"433 558 LINE SMOOTH",
"433 566 OFFCURVE",
"428 572 OFFCURVE",
"419 572 CURVE SMOOTH",
"389 572 LINE SMOOTH",
"357 572 OFFCURVE",
"333 563 OFFCURVE",
"283 525 CURVE SMOOTH",
"225 480 LINE",
"225 530 LINE SMOOTH",
"225 550 OFFCURVE",
"209 566 OFFCURVE",
"189 566 CURVE SMOOTH",
"64 566 LINE SMOOTH",
"56 566 OFFCURVE",
"50 560 OFFCURVE",
"50 552 CURVE SMOOTH",
"50 509 LINE SMOOTH",
"50 501 OFFCURVE",
"56 495 OFFCURVE",
"64 495 CURVE SMOOTH",
"147 495 LINE",
"147 74 LINE",
"64 74 LINE SMOOTH",
"56 74 OFFCURVE",
"50 68 OFFCURVE",
"50 60 CURVE SMOOTH",
"50 14 LINE SMOOTH",
"50 6 OFFCURVE",
"56 0 OFFCURVE",
"64 0 CURVE SMOOTH"
);
}
);
width = 463;
}
);
leftKerningGroup = r;
rightKerningGroup = r;
unicode = 0072;
},
{
glyphname = s;
lastChange = "2016-03-12 01:06:38 +0000";
layers = (
{
anchors = (
{
name = bottom;
position = "{235, 0}";
},
{
name = top;
position = "{233, 566}";
}
);
hints = (
{
horizontal = 1;
origin = "{0, 52}";
target = "{0, 36}";
},
{
horizontal = 1;
origin = "{0, 24}";
target = "{0, 11}";
},
{
origin = "{0, 46}";
target = "{0, 8}";
},
{
origin = "{0, 33}";
target = "{0, 2}";
},
{
horizontal = 1;
origin = "{0, 42}";
target = down;
type = TopGhost;
},
{
horizontal = 1;
origin = "{0, 14}";
target = up;
type = BottomGhost;
}
);
layerId = "DDABD3A5-4A8B-4D55-9B9E-1269DFBEF3A1";
paths = (
{
closed = 1;
nodes = (
"344 -10 OFFCURVE",
"422 52 OFFCURVE",
"422 156 CURVE SMOOTH",
"422 257 OFFCURVE",
"345 287 OFFCURVE",
"251 321 CURVE SMOOTH",
"187 344 OFFCURVE",
"133 359 OFFCURVE",
"133 426 CURVE SMOOTH",
"133 480 OFFCURVE",
"172 508 OFFCURVE",
"237 508 CURVE SMOOTH",
"280 508 OFFCURVE",
"321 493 OFFCURVE",
"360 470 CURVE SMOOTH",
"368 465 OFFCURVE",
"376 469 OFFCURVE",
"379 476 CURVE SMOOTH",
"399 517 LINE SMOOTH",
"402 523 OFFCURVE",
"400 530 OFFCURVE",
"395 533 CURVE SMOOTH",
"351 562 OFFCURVE",
"294 579 OFFCURVE",
"237 579 CURVE SMOOTH",
"136 579 OFFCURVE",
"55 530 OFFCURVE",
"55 422 CURVE SMOOTH",
"55 321 OFFCURVE",
"121 288 OFFCURVE",
"226 249 CURVE SMOOTH",
"300 221 OFFCURVE",
"344 205 OFFCURVE",
"344 151 CURVE SMOOTH",
"344 93 OFFCURVE",
"299 61 OFFCURVE",
"230 61 CURVE SMOOTH",
"179 61 OFFCURVE",
"135 78 OFFCURVE",
"97 101 CURVE SMOOTH",
"94 102 OFFCURVE",
"92 103 OFFCURVE",
"89 103 CURVE SMOOTH",
"84 103 OFFCURVE",
"79 100 OFFCURVE",
"76 95 CURVE SMOOTH",
"55 53 LINE SMOOTH",
"53 47 OFFCURVE",
"55 40 OFFCURVE",
"60 37 CURVE SMOOTH",
"103 6 OFFCURVE",
"166 -10 OFFCURVE",
"226 -10 CURVE SMOOTH"
);
}
);
width = 470;
},
{
anchors = (
{
name = bottom;
position = "{235, 0}";
},
{
name = top;
position = "{233, 566}";
}
);
associatedMasterId = "DDABD3A5-4A8B-4D55-9B9E-1269DFBEF3A1";
hints = (
{
horizontal = 1;
origin = "{0, 49}";
target = "{0, 36}";
},
{
horizontal = 1;
origin = "{0, 24}";
target = "{0, 11}";
},
{
origin = "{0, 27}";
target = "{0, 8}";
},
{
origin = "{0, 33}";
target = "{0, 2}";
}
);
layerId = "0B29C147-AC26-49AF-97CA-025A14BC2AC5";
name = "Regular Feb 17 16, 01:23";
paths = (
{
closed = 1;
nodes = (
"343 -10 OFFCURVE",
"420 58 OFFCURVE",
"420 154 CURVE SMOOTH",
"420 265 OFFCURVE",
"322 293 OFFCURVE",
"252 319 CURVE SMOOTH",
"181 345 OFFCURVE",
"133 367 OFFCURVE",
"133 425 CURVE SMOOTH",
"133 476 OFFCURVE",
"173 508 OFFCURVE",
"235 508 CURVE SMOOTH",
"288 508 OFFCURVE",
"333 492 OFFCURVE",
"381 465 CURVE SMOOTH",
"391 460 OFFCURVE",
"400 466 OFFCURVE",
"400 476 CURVE SMOOTH",
"400 519 LINE SMOOTH",
"400 528 OFFCURVE",
"395 537 OFFCURVE",
"387 541 CURVE SMOOTH",
"345 563 OFFCURVE",
"290 579 OFFCURVE",
"235 579 CURVE SMOOTH",
"131 579 OFFCURVE",
"57 516 OFFCURVE",
"57 429 CURVE SMOOTH",
"57 319 OFFCURVE",
"129 288 OFFCURVE",
"196 260 CURVE SMOOTH",
"269 229 OFFCURVE",
"344 217 OFFCURVE",
"344 152 CURVE SMOOTH",
"344 97 OFFCURVE",
"298 61 OFFCURVE",
"231 61 CURVE SMOOTH",
"180 61 OFFCURVE",
"121 81 OFFCURVE",
"74 108 CURVE SMOOTH",
"65 113 OFFCURVE",
"55 107 OFFCURVE",
"55 97 CURVE SMOOTH",
"55 52 LINE SMOOTH",
"55 43 OFFCURVE",
"60 34 OFFCURVE",
"68 30 CURVE SMOOTH",
"116 4 OFFCURVE",
"174 -10 OFFCURVE",
"231 -10 CURVE SMOOTH"
);
}
);
width = 470;
},
{
anchors = (
{
name = bottom;
position = "{235, 0}";
},
{
name = top;
position = "{233, 566}";
}
);
associatedMasterId = "DDABD3A5-4A8B-4D55-9B9E-1269DFBEF3A1";
hints = (
{
horizontal = 1;
origin = "{0, 49}";
target = "{0, 36}";
},
{
horizontal = 1;
origin = "{0, 24}";
target = "{0, 11}";
},
{
origin = "{0, 27}";
target = "{0, 8}";
},
{
origin = "{0, 33}";
target = "{0, 2}";
}
);
layerId = "872FD906-CF2B-433B-80FA-E0E4D283C75D";
name = "Regular Feb 17 16, 01:26";
paths = (
{
closed = 1;
nodes = (
"344 -10 OFFCURVE",
"422 54 OFFCURVE",
"422 162 CURVE SMOOTH",
"422 273 OFFCURVE",
"341 300 OFFCURVE",
"251 326 CURVE SMOOTH",
"183 346 OFFCURVE",
"133 361 OFFCURVE",
"133 422 CURVE SMOOTH",
"133 477 OFFCURVE",
"173 508 OFFCURVE",
"235 508 CURVE SMOOTH",
"288 508 OFFCURVE",
"333 492 OFFCURVE",
"381 465 CURVE",
"391 460 OFFCURVE",
"400 466 OFFCURVE",
"400 476 CURVE SMOOTH",
"400 519 LINE SMOOTH",
"400 528 OFFCURVE",
"395 537 OFFCURVE",
"387 541 CURVE SMOOTH",
"345 563 OFFCURVE",
"290 579 OFFCURVE",
"235 579 CURVE SMOOTH",
"137 579 OFFCURVE",
"55 527 OFFCURVE",
"55 419 CURVE SMOOTH",
"55 304 OFFCURVE",
"147 277 OFFCURVE",
"226 253 CURVE SMOOTH",
"285 235 OFFCURVE",
"344 222 OFFCURVE",
"344 155 CURVE SMOOTH",
"344 95 OFFCURVE",
"297 61 OFFCURVE",
"231 61 CURVE SMOOTH",
"180 61 OFFCURVE",
"121 81 OFFCURVE",
"74 108 CURVE SMOOTH",
"65 113 OFFCURVE",
"55 107 OFFCURVE",
"55 97 CURVE SMOOTH",
"55 52 LINE SMOOTH",
"55 43 OFFCURVE",
"60 34 OFFCURVE",
"68 30 CURVE SMOOTH",
"116 4 OFFCURVE",
"174 -10 OFFCURVE",
"231 -10 CURVE SMOOTH"
);
}
);
width = 470;
}
);
leftKerningGroup = s;
rightKerningGroup = s;
unicode = 0073;
},
{
glyphname = germandbls;
lastChange = "2016-03-12 01:06:38 +0000";
layers = (
{
anchors = (
{
name = bottom;
position = "{329, 0}";
},
{
name = top;
position = "{299, 759}";
}
);
hints = (
{
horizontal = 1;
origin = "{0, 32}";
target = "{0, 19}";
},
{
horizontal = 1;
origin = "{0, 7}";
target = "{0, 44}";
},
{
origin = "{0, 48}";
target = "{0, 3}";
},
{
origin = "{0, 13}";
target = "{0, 38}";
},
{
origin = "{0, 16}";
target = "{0, 35}";
},
{
origin = "{0, 10}";
target = "{0, 41}";
},
{
horizontal = 1;
origin = "{0, 22}";
target = down;
type = TopGhost;
}
);
layerId = "DDABD3A5-4A8B-4D55-9B9E-1269DFBEF3A1";
paths = (
{
closed = 1;
nodes = (
"154 -193 LINE SMOOTH",
"162 -193 OFFCURVE",
"168 -187 OFFCURVE",
"168 -179 CURVE SMOOTH",
"168 535 LINE SMOOTH",
"168 638 OFFCURVE",
"215 699 OFFCURVE",
"301 699 CURVE SMOOTH",
"374 699 OFFCURVE",
"415 654 OFFCURVE",
"415 601 CURVE SMOOTH",
"415 499 OFFCURVE",
"260 476 OFFCURVE",
"260 373 CURVE SMOOTH",
"260 254 OFFCURVE",
"464 268 OFFCURVE",
"464 147 CURVE SMOOTH",
"464 93 OFFCURVE",
"424 61 OFFCURVE",
"371 61 CURVE SMOOTH",
"332 61 OFFCURVE",
"284 78 OFFCURVE",
"262 87 CURVE SMOOTH",
"254 90 OFFCURVE",
"247 85 OFFCURVE",
"247 76 CURVE SMOOTH",
"246 32 LINE SMOOTH",
"246 23 OFFCURVE",
"249 19 OFFCURVE",
"259 14 CURVE SMOOTH",
"285 1 OFFCURVE",
"336 -10 OFFCURVE",
"375 -10 CURVE SMOOTH",
"467 -10 OFFCURVE",
"542 50 OFFCURVE",
"542 151 CURVE SMOOTH",
"542 318 OFFCURVE",
"339 327 OFFCURVE",
"339 384 CURVE SMOOTH",
"339 434 OFFCURVE",
"493 476 OFFCURVE",
"493 608 CURVE SMOOTH",
"493 704 OFFCURVE",
"411 771 OFFCURVE",
"302 771 CURVE SMOOTH",
"171 771 OFFCURVE",
"90 675 OFFCURVE",
"90 540 CURVE SMOOTH",
"90 -179 LINE SMOOTH",
"90 -187 OFFCURVE",
"96 -193 OFFCURVE",
"104 -193 CURVE SMOOTH"
);
}
);
width = 587;
},
{
anchors = (
{
name = bottom;
position = "{329, 0}";
},
{
name = top;
position = "{299, 759}";
}
);
associatedMasterId = "DDABD3A5-4A8B-4D55-9B9E-1269DFBEF3A1";
hints = (
{
horizontal = 1;
place = "{-10, 71}";
},
{
horizontal = 1;
place = "{468, 66}";
},
{
horizontal = 1;
place = "{699, 72}";
},
{
horizontal = 1;
place = "{-193, 21}";
target = up;
type = BottomGhost;
},
{
place = "{90, 78}";
},
{
place = "{260, 79}";
},
{
place = "{464, 78}";
},
{
place = "{431, 72}";
}
);
layerId = "DB72CA57-6AA9-4555-8D9F-9B82303A41EA";
name = "Regular Feb 17 16, 01:30";
paths = (
{
closed = 1;
nodes = (
"159 -198 LINE SMOOTH",
"177 -198 OFFCURVE",
"192 -184 OFFCURVE",
"192 -165 CURVE SMOOTH",
"192 528 LINE SMOOTH",
"192 619 OFFCURVE",
"231 668 OFFCURVE",
"301 668 CURVE SMOOTH",
"357 668 OFFCURVE",
"393 637 OFFCURVE",
"393 592 CURVE SMOOTH",
"393 511 OFFCURVE",
"248 475 OFFCURVE",
"248 377 CURVE SMOOTH",
"248 249 OFFCURVE",
"440 252 OFFCURVE",
"440 151 CURVE SMOOTH",
"440 112 OFFCURVE",
"413 87 OFFCURVE",
"369 87 CURVE SMOOTH",
"344 87 OFFCURVE",
"307 96 OFFCURVE",
"271 111 CURVE SMOOTH",
"249 119 OFFCURVE",
"230 103 OFFCURVE",
"230 82 CURVE SMOOTH",
"229 40 LINE SMOOTH",
"229 23 OFFCURVE",
"236 13 OFFCURVE",
"252 5 CURVE SMOOTH",
"281 -10 OFFCURVE",
"334 -21 OFFCURVE",
"373 -21 CURVE SMOOTH",
"479 -21 OFFCURVE",
"555 52 OFFCURVE",
"555 155 CURVE SMOOTH",
"555 318 OFFCURVE",
"358 354 OFFCURVE",
"358 381 CURVE SMOOTH",
"358 409 OFFCURVE",
"507 468 OFFCURVE",
"507 599 CURVE SMOOTH",
"507 701 OFFCURVE",
"420 776 OFFCURVE",
"302 776 CURVE SMOOTH",
"168 776 OFFCURVE",
"77 678 OFFCURVE",
"77 533 CURVE SMOOTH",
"77 -165 LINE SMOOTH",
"77 -184 OFFCURVE",
"92 -198 OFFCURVE",
"110 -198 CURVE SMOOTH"
);
}
);
width = 597;
}
);
unicode = 00DF;
},
{
glyphname = t;
lastChange = "2016-03-12 01:06:38 +0000";
layers = (
{
anchors = (
{
name = bottom;
position = "{274, 0}";
},
{
name = center;
position = "{191, 336}";
},
{
name = top;
position = "{161, 695}";
},
{
name = topright;
position = "{428, 566}";
}
);
hints = (
{
horizontal = 1;
origin = "{0, 43}";
target = "{0, 7}";
},
{
horizontal = 1;
origin = "{0, 31}";
target = "{0, 12}";
},
{
horizontal = 1;
origin = "{0, 26}";
target = down;
type = TopGhost;
},
{
origin = "{0, 40}";
target = "{0, 11}";
}
);
layerId = "DDABD3A5-4A8B-4D55-9B9E-1269DFBEF3A1";
paths = (
{
closed = 1;
nodes = (
"374 0 LINE SMOOTH",
"382 0 OFFCURVE",
"388 6 OFFCURVE",
"388 14 CURVE SMOOTH",
"388 60 LINE SMOOTH",
"388 68 OFFCURVE",
"382 74 OFFCURVE",
"374 74 CURVE SMOOTH",
"283 75 LINE SMOOTH",
"232 76 OFFCURVE",
"198 110 OFFCURVE",
"198 162 CURVE SMOOTH",
"198 492 LINE",
"374 492 LINE SMOOTH",
"382 492 OFFCURVE",
"388 498 OFFCURVE",
"388 506 CURVE SMOOTH",
"388 552 LINE SMOOTH",
"388 560 OFFCURVE",
"382 566 OFFCURVE",
"374 566 CURVE SMOOTH",
"198 566 LINE",
"198 671 LINE SMOOTH",
"198 679 OFFCURVE",
"192 685 OFFCURVE",
"184 685 CURVE SMOOTH",
"134 685 LINE SMOOTH",
"126 685 OFFCURVE",
"120 679 OFFCURVE",
"120 671 CURVE SMOOTH",
"120 566 LINE",
"54 566 LINE SMOOTH",
"46 566 OFFCURVE",
"40 560 OFFCURVE",
"40 552 CURVE SMOOTH",
"40 507 LINE SMOOTH",
"40 499 OFFCURVE",
"46 493 OFFCURVE",
"54 493 CURVE SMOOTH",
"120 493 LINE",
"120 153 LINE SMOOTH",
"120 69 OFFCURVE",
"174 0 OFFCURVE",
"274 0 CURVE SMOOTH"
);
}
);
width = 443;
}
);
leftKerningGroup = t;
rightKerningGroup = t;
unicode = 0074;
},
{
glyphname = tbar;
lastChange = "2016-03-12 01:06:39 +0000";
layers = (
{
hints = (
{
horizontal = 1;
origin = "{0, 43}";
target = "{0, 7}";
},
{
horizontal = 1;
origin = "{1, 15}";
target = "{1, 8}";
},
{
horizontal = 1;
origin = "{0, 31}";
target = "{0, 12}";
},
{
horizontal = 1;
origin = "{0, 26}";
target = down;
type = TopGhost;
},
{
origin = "{0, 40}";
target = "{0, 11}";
}
);
layerId = "DDABD3A5-4A8B-4D55-9B9E-1269DFBEF3A1";
paths = (
{
closed = 1;
nodes = (
"379 0 LINE SMOOTH",
"387 0 OFFCURVE",
"393 6 OFFCURVE",
"393 14 CURVE SMOOTH",
"393 60 LINE SMOOTH",
"393 68 OFFCURVE",
"387 74 OFFCURVE",
"379 74 CURVE SMOOTH",
"288 75 LINE SMOOTH",
"237 76 OFFCURVE",
"203 110 OFFCURVE",
"203 162 CURVE SMOOTH",
"203 492 LINE",
"379 492 LINE SMOOTH",
"387 492 OFFCURVE",
"393 498 OFFCURVE",
"393 506 CURVE SMOOTH",
"393 552 LINE SMOOTH",
"393 560 OFFCURVE",
"387 566 OFFCURVE",
"379 566 CURVE SMOOTH",
"203 566 LINE",
"203 671 LINE SMOOTH",
"203 679 OFFCURVE",
"197 685 OFFCURVE",
"189 685 CURVE SMOOTH",
"139 685 LINE SMOOTH",
"131 685 OFFCURVE",
"125 679 OFFCURVE",
"125 671 CURVE SMOOTH",
"125 566 LINE",
"59 566 LINE SMOOTH",
"51 566 OFFCURVE",
"45 560 OFFCURVE",
"45 552 CURVE SMOOTH",
"45 507 LINE SMOOTH",
"45 499 OFFCURVE",
"51 493 OFFCURVE",
"59 493 CURVE SMOOTH",
"125 493 LINE",
"125 153 LINE SMOOTH",
"125 69 OFFCURVE",
"179 0 OFFCURVE",
"279 0 CURVE SMOOTH"
);
},
{
closed = 1;
nodes = (
"379 308 LINE SMOOTH",
"387 308 OFFCURVE",
"393 314 OFFCURVE",
"393 322 CURVE SMOOTH",
"393 354 LINE SMOOTH",
"393 362 OFFCURVE",
"387 368 OFFCURVE",
"379 368 CURVE SMOOTH",
"59 368 LINE SMOOTH",
"51 368 OFFCURVE",
"45 362 OFFCURVE",
"45 354 CURVE SMOOTH",
"45 322 LINE SMOOTH",
"45 314 OFFCURVE",
"51 308 OFFCURVE",
"59 308 CURVE SMOOTH"
);
}
);
width = 453;
}
);
leftKerningGroup = t;
rightKerningGroup = t;
unicode = 0167;
},
{
glyphname = tcaron;
lastChange = "2016-03-12 01:06:39 +0000";
layers = (
{
hints = (
{
horizontal = 1;
origin = "{0, 43}";
target = "{0, 7}";
},
{
horizontal = 1;
origin = "{0, 31}";
target = "{0, 12}";
},
{
horizontal = 1;
origin = "{1, 8}";
target = "{1, 15}";
},
{
origin = "{0, 40}";
target = "{0, 11}";
}
);
layerId = "DDABD3A5-4A8B-4D55-9B9E-1269DFBEF3A1";
paths = (
{
closed = 1;
nodes = (
"374 0 LINE SMOOTH",
"382 0 OFFCURVE",
"388 6 OFFCURVE",
"388 14 CURVE SMOOTH",
"388 60 LINE SMOOTH",
"388 68 OFFCURVE",
"382 74 OFFCURVE",
"374 74 CURVE SMOOTH",
"283 75 LINE SMOOTH",
"232 76 OFFCURVE",
"198 110 OFFCURVE",
"198 162 CURVE SMOOTH",
"198 492 LINE",
"364 492 LINE SMOOTH",
"372 492 OFFCURVE",
"378 498 OFFCURVE",
"378 506 CURVE SMOOTH",
"378 552 LINE SMOOTH",
"378 560 OFFCURVE",
"372 566 OFFCURVE",
"364 566 CURVE SMOOTH",
"198 566 LINE",
"198 671 LINE SMOOTH",
"198 679 OFFCURVE",
"192 685 OFFCURVE",
"184 685 CURVE SMOOTH",
"134 685 LINE SMOOTH",
"126 685 OFFCURVE",
"120 679 OFFCURVE",
"120 671 CURVE SMOOTH",
"120 566 LINE",
"54 566 LINE SMOOTH",
"46 566 OFFCURVE",
"40 560 OFFCURVE",
"40 552 CURVE SMOOTH",
"40 507 LINE SMOOTH",
"40 499 OFFCURVE",
"46 493 OFFCURVE",
"54 493 CURVE SMOOTH",
"120 493 LINE",
"120 153 LINE SMOOTH",
"120 69 OFFCURVE",
"174 0 OFFCURVE",
"274 0 CURVE SMOOTH"
);
},
{
closed = 1;
nodes = (
"404 631 LINE SMOOTH",
"417 631 OFFCURVE",
"424 636 OFFCURVE",
"430 643 CURVE SMOOTH",
"511 736 LINE SMOOTH",
"519 745 OFFCURVE",
"514 759 OFFCURVE",
"501 759 CURVE SMOOTH",
"434 759 LINE SMOOTH",
"419 759 OFFCURVE",
"410 750 OFFCURVE",
"406 740 CURVE SMOOTH",
"369 650 LINE SMOOTH",
"365 640 OFFCURVE",
"369 631 OFFCURVE",
"380 631 CURVE SMOOTH"
);
}
);
width = 448;
}
);
leftKerningGroup = t;
unicode = 0165;
},
{
glyphname = u;
lastChange = "2016-03-12 01:06:38 +0000";
layers = (
{
anchors = (
{
name = bottom;
position = "{268, 0}";
},
{
name = ogonek;
position = "{467, 2}";
},
{
name = top;
position = "{288, 566}";
},
{
name = topright;
position = "{588, 566}";
}
);
hints = (
{
horizontal = 1;
origin = "{0, 37}";
target = "{0, 22}";
},
{
horizontal = 1;
origin = "{0, 30}";
target = down;
type = TopGhost;
},
{
horizontal = 1;
origin = "{0, 6}";
target = up;
type = BottomGhost;
},
{
origin = "{0, 34}";
target = "{0, 25}";
},
{
origin = "{0, 3}";
target = "{0, 10}";
}
);
layerId = "DDABD3A5-4A8B-4D55-9B9E-1269DFBEF3A1";
paths = (
{
closed = 1;
nodes = (
"333 -13 OFFCURVE",
"391 15 OFFCURVE",
"426 70 CURVE",
"426 14 LINE SMOOTH",
"426 6 OFFCURVE",
"432 0 OFFCURVE",
"440 0 CURVE SMOOTH",
"490 0 LINE SMOOTH",
"498 0 OFFCURVE",
"504 6 OFFCURVE",
"504 14 CURVE SMOOTH",
"504 552 LINE SMOOTH",
"504 560 OFFCURVE",
"498 566 OFFCURVE",
"490 566 CURVE SMOOTH",
"440 566 LINE SMOOTH",
"432 566 OFFCURVE",
"426 560 OFFCURVE",
"426 552 CURVE SMOOTH",
"426 225 LINE SMOOTH",
"426 120 OFFCURVE",
"364 60 OFFCURVE",
"277 60 CURVE SMOOTH",
"204 60 OFFCURVE",
"153 104 OFFCURVE",
"153 191 CURVE SMOOTH",
"153 552 LINE SMOOTH",
"153 560 OFFCURVE",
"147 566 OFFCURVE",
"139 566 CURVE SMOOTH",
"89 566 LINE SMOOTH",
"81 566 OFFCURVE",
"75 560 OFFCURVE",
"75 552 CURVE SMOOTH",
"75 176 LINE SMOOTH",
"75 63 OFFCURVE",
"151 -13 OFFCURVE",
"265 -13 CURVE SMOOTH"
);
}
);
width = 594;
}
);
leftKerningGroup = u;
rightKerningGroup = u;
unicode = 0075;
},
{
glyphname = uogonek;
lastChange = "2016-03-12 01:06:38 +0000";
layers = (
{
hints = (
{
horizontal = 1;
origin = "{0, 54}";
target = "{0, 8}";
},
{
horizontal = 1;
origin = "{0, 44}";
target = "{0, 29}";
},
{
horizontal = 1;
origin = "{0, 37}";
target = down;
type = TopGhost;
},
{
origin = "{0, 41}";
target = "{0, 32}";
},
{
origin = "{0, 51}";
target = "{0, 11}";
},
{
origin = "{0, 48}";
target = "{0, 17}";
}
);
layerId = "DDABD3A5-4A8B-4D55-9B9E-1269DFBEF3A1";
paths = (
{
closed = 1;
nodes = (
"494 -197 LINE SMOOTH",
"502 -197 OFFCURVE",
"509 -190 OFFCURVE",
"509 -182 CURVE SMOOTH",
"509 -142 LINE SMOOTH",
"509 -134 OFFCURVE",
"502 -127 OFFCURVE",
"494 -127 CURVE SMOOTH",
"477 -127 LINE SMOOTH",
"456 -127 OFFCURVE",
"435 -120 OFFCURVE",
"435 -90 CURVE SMOOTH",
"435 -58 OFFCURVE",
"460 -32 OFFCURVE",
"491 0 CURVE SMOOTH",
"499 8 OFFCURVE",
"504 17 OFFCURVE",
"504 28 CURVE SMOOTH",
"504 552 LINE SMOOTH",
"504 560 OFFCURVE",
"498 566 OFFCURVE",
"490 566 CURVE SMOOTH",
"440 566 LINE SMOOTH",
"432 566 OFFCURVE",
"426 560 OFFCURVE",
"426 552 CURVE SMOOTH",
"426 225 LINE SMOOTH",
"426 120 OFFCURVE",
"364 60 OFFCURVE",
"277 60 CURVE SMOOTH",
"204 60 OFFCURVE",
"153 104 OFFCURVE",
"153 191 CURVE SMOOTH",
"153 552 LINE SMOOTH",
"153 560 OFFCURVE",
"147 566 OFFCURVE",
"139 566 CURVE SMOOTH",
"89 566 LINE SMOOTH",
"81 566 OFFCURVE",
"75 560 OFFCURVE",
"75 552 CURVE SMOOTH",
"75 176 LINE SMOOTH",
"75 63 OFFCURVE",
"151 -13 OFFCURVE",
"265 -13 CURVE SMOOTH",
"333 -13 OFFCURVE",
"391 15 OFFCURVE",
"426 70 CURVE",
"426 3 LINE",
"395 -23 OFFCURVE",
"356 -65 OFFCURVE",
"356 -112 CURVE SMOOTH",
"356 -165 OFFCURVE",
"406 -197 OFFCURVE",
"464 -197 CURVE SMOOTH"
);
}
);
width = 599;
}
);
leftKerningGroup = u;
rightKerningGroup = u;
unicode = 0173;
},
{
glyphname = v;
lastChange = "2016-03-12 01:06:38 +0000";
layers = (
{
anchors = (
{
name = bottom;
position = "{262, 0}";
},
{
name = top;
position = "{264, 566}";
}
);
hints = (
{
horizontal = 1;
origin = "{0, 24}";
target = up;
type = BottomGhost;
},
{
horizontal = 1;
origin = "{0, 17}";
target = down;
type = TopGhost;
},
{
place = "{26.96, 473.06}";
}
);
layerId = "DDABD3A5-4A8B-4D55-9B9E-1269DFBEF3A1";
paths = (
{
closed = 1;
nodes = (
"290 0 LINE SMOOTH",
"298 0 OFFCURVE",
"306 5 OFFCURVE",
"309 13 CURVE SMOOTH",
"497 544 LINE SMOOTH",
"501 556 OFFCURVE",
"494 566 OFFCURVE",
"482 566 CURVE SMOOTH",
"438 566 LINE SMOOTH",
"430 566 OFFCURVE",
"422 561 OFFCURVE",
"419 553 CURVE SMOOTH",
"264 97 LINE",
"106 553 LINE SMOOTH",
"103 561 OFFCURVE",
"95 566 OFFCURVE",
"87 566 CURVE SMOOTH",
"41 566 LINE SMOOTH",
"29 566 OFFCURVE",
"22 556 OFFCURVE",
"26 544 CURVE SMOOTH",
"214 13 LINE SMOOTH",
"217 5 OFFCURVE",
"225 0 OFFCURVE",
"233 0 CURVE SMOOTH"
);
}
);
width = 528;
}
);
leftKerningGroup = w;
rightKerningGroup = w;
unicode = 0076;
},
{
glyphname = w;
lastChange = "2016-03-12 01:06:38 +0000";
layers = (
{
anchors = (
{
name = bottom;
position = "{368, 0}";
},
{
name = top;
position = "{429, 566}";
}
);
hints = (
{
horizontal = 1;
origin = "{0, 42}";
target = up;
type = BottomGhost;
},
{
horizontal = 1;
origin = "{0, 35}";
target = down;
type = TopGhost;
},
{
horizontal = 1;
origin = "{0, 42}";
target = "{0, 30}";
}
);
layerId = "DDABD3A5-4A8B-4D55-9B9E-1269DFBEF3A1";
paths = (
{
closed = 1;
nodes = (
"280 0 LINE SMOOTH",
"288 0 OFFCURVE",
"296 5 OFFCURVE",
"299 13 CURVE SMOOTH",
"429 447 LINE",
"561 13 LINE SMOOTH",
"564 5 OFFCURVE",
"572 0 OFFCURVE",
"580 0 CURVE SMOOTH",
"637 0 LINE SMOOTH",
"645 0 OFFCURVE",
"653 5 OFFCURVE",
"656 13 CURVE SMOOTH",
"834 544 LINE SMOOTH",
"838 556 OFFCURVE",
"831 566 OFFCURVE",
"819 566 CURVE SMOOTH",
"774 566 LINE SMOOTH",
"766 566 OFFCURVE",
"758 561 OFFCURVE",
"755 553 CURVE SMOOTH",
"607 97 LINE",
"473 553 LINE SMOOTH",
"471 561 OFFCURVE",
"466 566 OFFCURVE",
"454 566 CURVE SMOOTH",
"405 566 LINE SMOOTH",
"398 566 OFFCURVE",
"389 563 OFFCURVE",
"386 553 CURVE SMOOTH",
"252 97 LINE",
"104 553 LINE SMOOTH",
"101 561 OFFCURVE",
"93 566 OFFCURVE",
"85 566 CURVE SMOOTH",
"41 566 LINE SMOOTH",
"29 566 OFFCURVE",
"22 556 OFFCURVE",
"26 544 CURVE SMOOTH",
"204 13 LINE SMOOTH",
"207 5 OFFCURVE",
"215 0 OFFCURVE",
"223 0 CURVE SMOOTH"
);
}
);
width = 866;
},
{
anchors = (
{
name = bottom;
position = "{383, 0}";
},
{
name = top;
position = "{383, 566}";
}
);
associatedMasterId = "DDABD3A5-4A8B-4D55-9B9E-1269DFBEF3A1";
hints = (
{
horizontal = 1;
origin = "{0, 42}";
target = up;
type = BottomGhost;
},
{
horizontal = 1;
origin = "{0, 26}";
target = down;
type = TopGhost;
},
{
horizontal = 1;
origin = "{0, 42}";
target = "{0, 30}";
},
{
horizontal = 1;
origin = "{0, 35}";
target = down;
type = TopGhost;
},
{
origin = "{0, 38}";
target = "{0, 13}";
}
);
layerId = "DF69381B-A6E4-4A72-BB49-A84289B88629";
name = "Regular Mar 6 16, 02:05";
paths = (
{
closed = 1;
nodes = (
"255 0 LINE SMOOTH",
"264 0 OFFCURVE",
"273 5 OFFCURVE",
"275 15 CURVE SMOOTH",
"383 453 LINE",
"491 15 LINE SMOOTH",
"493 5 OFFCURVE",
"502 0 OFFCURVE",
"511 0 CURVE SMOOTH",
"565 0 LINE SMOOTH",
"574 0 OFFCURVE",
"582 6 OFFCURVE",
"584 15 CURVE SMOOTH",
"726 546 LINE SMOOTH",
"729 556 OFFCURVE",
"722 566 OFFCURVE",
"711 566 CURVE SMOOTH",
"666 566 LINE SMOOTH",
"657 566 OFFCURVE",
"648 561 OFFCURVE",
"646 551 CURVE SMOOTH",
"538 111 LINE",
"431 554 LINE SMOOTH",
"429 564 OFFCURVE",
"420 569 OFFCURVE",
"411 569 CURVE SMOOTH",
"355 569 LINE SMOOTH",
"346 569 OFFCURVE",
"337 564 OFFCURVE",
"335 554 CURVE SMOOTH",
"229 111 LINE",
"120 551 LINE SMOOTH",
"118 561 OFFCURVE",
"109 566 OFFCURVE",
"100 566 CURVE SMOOTH",
"55 566 LINE SMOOTH",
"44 566 OFFCURVE",
"37 556 OFFCURVE",
"40 546 CURVE SMOOTH",
"182 15 LINE SMOOTH",
"184 6 OFFCURVE",
"192 0 OFFCURVE",
"201 0 CURVE SMOOTH"
);
}
);
width = 767;
}
);
leftKerningGroup = w;
rightKerningGroup = w;
unicode = 0077;
},
{
glyphname = x;
lastChange = "2016-03-12 01:06:38 +0000";
layers = (
{
anchors = (
{
name = bottom;
position = "{263, 0}";
},
{
name = top;
position = "{266, 566}";
}
);
hints = (
{
horizontal = 1;
origin = "{0, 35}";
target = up;
type = BottomGhost;
},
{
horizontal = 1;
origin = "{0, 27}";
target = down;
type = TopGhost;
},
{
place = "{49.85, 448.29}";
}
);
layerId = "DDABD3A5-4A8B-4D55-9B9E-1269DFBEF3A1";
paths = (
{
closed = 1;
nodes = (
"106 0 LINE SMOOTH",
"112 0 OFFCURVE",
"118 3 OFFCURVE",
"121 8 CURVE",
"264 228 LINE",
"407 8 LINE",
"410 3 OFFCURVE",
"416 0 OFFCURVE",
"422 0 CURVE SMOOTH",
"470 0 LINE SMOOTH",
"485 0 OFFCURVE",
"493 15 OFFCURVE",
"485 28 CURVE SMOOTH",
"309 298 LINE",
"465 538 LINE SMOOTH",
"473 551 OFFCURVE",
"465 566 OFFCURVE",
"450 566 CURVE SMOOTH",
"402 566 LINE SMOOTH",
"396 566 OFFCURVE",
"390 563 OFFCURVE",
"387 558 CURVE SMOOTH",
"264 368 LINE",
"141 558 LINE SMOOTH",
"138 563 OFFCURVE",
"132 566 OFFCURVE",
"126 566 CURVE SMOOTH",
"78 566 LINE SMOOTH",
"63 566 OFFCURVE",
"55 551 OFFCURVE",
"63 538 CURVE SMOOTH",
"219 298 LINE",
"43 28 LINE SMOOTH",
"35 15 OFFCURVE",
"43 0 OFFCURVE",
"58 0 CURVE SMOOTH"
);
}
);
width = 528;
}
);
leftKerningGroup = x;
rightKerningGroup = x;
unicode = 0078;
},
{
glyphname = y;
lastChange = "2016-03-12 01:06:38 +0000";
layers = (
{
anchors = (
{
name = bottom;
position = "{196, -193}";
},
{
name = top;
position = "{267, 566}";
}
);
hints = (
{
horizontal = 1;
origin = "{0, 17}";
target = down;
type = TopGhost;
}
);
layerId = "DDABD3A5-4A8B-4D55-9B9E-1269DFBEF3A1";
paths = (
{
closed = 1;
nodes = (
"222 -193 LINE SMOOTH",
"230 -193 OFFCURVE",
"238 -188 OFFCURVE",
"241 -180 CURVE SMOOTH",
"497 544 LINE SMOOTH",
"501 556 OFFCURVE",
"494 566 OFFCURVE",
"482 566 CURVE SMOOTH",
"438 566 LINE SMOOTH",
"430 566 OFFCURVE",
"422 561 OFFCURVE",
"419 553 CURVE SMOOTH",
"263 105 LINE",
"106 553 LINE SMOOTH",
"103 561 OFFCURVE",
"95 566 OFFCURVE",
"87 566 CURVE SMOOTH",
"41 566 LINE SMOOTH",
"29 566 OFFCURVE",
"22 556 OFFCURVE",
"26 544 CURVE SMOOTH",
"225 -6 LINE",
"167 -172 LINE SMOOTH",
"163 -184 OFFCURVE",
"171 -193 OFFCURVE",
"183 -193 CURVE SMOOTH"
);
}
);
width = 533;
}
);
leftKerningGroup = y;
rightKerningGroup = w;
unicode = 0079;
},
{
glyphname = z;
lastChange = "2016-03-12 01:06:38 +0000";
layers = (
{
anchors = (
{
name = bottom;
position = "{242, 0}";
},
{
name = top;
position = "{232, 566}";
}
);
hints = (
{
horizontal = 1;
origin = "{0, 25}";
target = "{0, 8}";
},
{
horizontal = 1;
origin = "{0, 13}";
target = "{0, 20}";
}
);
layerId = "DDABD3A5-4A8B-4D55-9B9E-1269DFBEF3A1";
paths = (
{
closed = 1;
nodes = (
"417 0 LINE SMOOTH",
"425 0 OFFCURVE",
"431 6 OFFCURVE",
"431 14 CURVE SMOOTH",
"431 60 LINE SMOOTH",
"431 68 OFFCURVE",
"425 74 OFFCURVE",
"417 74 CURVE SMOOTH",
"147 74 LINE",
"421 514 LINE SMOOTH",
"434 535 OFFCURVE",
"418 566 OFFCURVE",
"393 566 CURVE SMOOTH",
"69 566 LINE SMOOTH",
"61 566 OFFCURVE",
"55 560 OFFCURVE",
"55 552 CURVE SMOOTH",
"55 506 LINE SMOOTH",
"55 498 OFFCURVE",
"61 492 OFFCURVE",
"69 492 CURVE SMOOTH",
"323 492 LINE",
"49 52 LINE SMOOTH",
"37 31 OFFCURVE",
"52 0 OFFCURVE",
"77 0 CURVE SMOOTH"
);
}
);
width = 476;
}
);
leftKerningGroup = z;
rightKerningGroup = z;
unicode = 007A;
},
{
glyphname = ae.ss01;
lastChange = "2016-03-12 01:06:39 +0000";
layers = (
{
anchors = (
{
name = bottom;
position = "{453, 0}";
},
{
name = top;
position = "{453, 566}";
}
);
hints = (
{
horizontal = 1;
origin = "{0, 82}";
target = "{1, 12}";
},
{
horizontal = 1;
origin = "{0, 33}";
target = "{0, 26}";
},
{
horizontal = 1;
origin = "{0, 47}";
target = "{0, 66}";
},
{
horizontal = 1;
origin = "{0, 5}";
target = "{0, 14}";
},
{
origin = "{0, 79}";
target = "{1, 2}";
},
{
origin = "{1, 9}";
target = "{0, 17}";
},
{
origin = "{0, 25}";
target = "{0, 37}";
},
{
horizontal = 1;
origin = "{0, 60}";
target = up;
type = BottomGhost;
}
);
layerId = "DDABD3A5-4A8B-4D55-9B9E-1269DFBEF3A1";
paths = (
{
closed = 1;
nodes = (
"314 -13 OFFCURVE",
"395 35 OFFCURVE",
"436 109 CURVE",
"473 44 OFFCURVE",
"543 0 OFFCURVE",
"624 0 CURVE SMOOTH",
"769 0 LINE SMOOTH",
"777 0 OFFCURVE",
"783 6 OFFCURVE",
"783 14 CURVE SMOOTH",
"783 60 LINE SMOOTH",
"783 68 OFFCURVE",
"777 74 OFFCURVE",
"769 74 CURVE SMOOTH",
"624 74 LINE SMOOTH",
"547 74 OFFCURVE",
"485 136 OFFCURVE",
"485 213 CURVE SMOOTH",
"485 366 LINE SMOOTH",
"485 443 OFFCURVE",
"547 505 OFFCURVE",
"624 505 CURVE SMOOTH",
"701 505 OFFCURVE",
"763 443 OFFCURVE",
"763 366 CURVE SMOOTH",
"763 329 LINE",
"577 329 LINE SMOOTH",
"569 329 OFFCURVE",
"563 323 OFFCURVE",
"563 315 CURVE SMOOTH",
"563 271 LINE SMOOTH",
"563 263 OFFCURVE",
"569 257 OFFCURVE",
"577 257 CURVE SMOOTH",
"805 257 LINE SMOOTH",
"825 257 OFFCURVE",
"841 273 OFFCURVE",
"841 293 CURVE SMOOTH",
"841 361 LINE SMOOTH",
"841 482 OFFCURVE",
"744 579 OFFCURVE",
"624 579 CURVE SMOOTH",
"554 579 OFFCURVE",
"492 546 OFFCURVE",
"453 495 CURVE",
"419 548 OFFCURVE",
"355 579 OFFCURVE",
"275 579 CURVE SMOOTH",
"185 579 OFFCURVE",
"116 538 OFFCURVE",
"79 476 CURVE SMOOTH",
"77 472 OFFCURVE",
"76 469 OFFCURVE",
"76 466 CURVE SMOOTH",
"76 459 OFFCURVE",
"79 454 OFFCURVE",
"85 449 CURVE SMOOTH",
"112 431 LINE SMOOTH",
"116 428 OFFCURVE",
"121 426 OFFCURVE",
"125 426 CURVE SMOOTH",
"133 426 OFFCURVE",
"140 431 OFFCURVE",
"145 439 CURVE SMOOTH",
"169 479 OFFCURVE",
"213 505 OFFCURVE",
"273 505 CURVE SMOOTH",
"346 505 OFFCURVE",
"404 463 OFFCURVE",
"404 398 CURVE SMOOTH",
"404 390 LINE SMOOTH",
"404 351 OFFCURVE",
"388 332 OFFCURVE",
"349 326 CURVE SMOOTH",
"306 320 OFFCURVE",
"267 315 OFFCURVE",
"219 308 CURVE SMOOTH",
"113 293 OFFCURVE",
"50 233 OFFCURVE",
"50 145 CURVE SMOOTH",
"50 50 OFFCURVE",
"123 -13 OFFCURVE",
"225 -13 CURVE SMOOTH"
);
},
{
closed = 1;
nodes = (
"169 57 OFFCURVE",
"125 93 OFFCURVE",
"125 148 CURVE SMOOTH",
"125 200 OFFCURVE",
"159 232 OFFCURVE",
"225 242 CURVE SMOOTH",
"307 254 OFFCURVE",
"346 260 OFFCURVE",
"407 267 CURVE",
"407 226 LINE SMOOTH",
"407 153 OFFCURVE",
"337 57 OFFCURVE",
"233 57 CURVE SMOOTH"
);
}
);
width = 921;
}
);
leftKerningGroup = a;
leftMetricsKey = a;
rightKerningGroup = e;
rightMetricsKey = a;
},
{
glyphname = e.ss01;
lastChange = "2016-03-12 01:06:38 +0000";
layers = (
{
anchors = (
{
name = bottom;
position = "{280, 0}";
},
{
name = ogonek;
position = "{412, 0}";
},
{
name = top;
position = "{282, 566}";
}
);
hints = (
{
horizontal = 1;
origin = "{0, 42}";
target = "{0, 8}";
},
{
horizontal = 1;
origin = "{0, 27}";
target = "{0, 20}";
},
{
horizontal = 1;
origin = "{0, 35}";
target = "{0, 15}";
},
{
origin = "{0, 39}";
target = "{0, 11}";
},
{
origin = "{0, 19}";
target = "{0, 31}";
}
);
layerId = "DDABD3A5-4A8B-4D55-9B9E-1269DFBEF3A1";
paths = (
{
closed = 1;
nodes = (
"427 0 LINE SMOOTH",
"435 0 OFFCURVE",
"441 6 OFFCURVE",
"441 14 CURVE SMOOTH",
"441 60 LINE SMOOTH",
"441 68 OFFCURVE",
"435 74 OFFCURVE",
"427 74 CURVE SMOOTH",
"282 74 LINE SMOOTH",
"205 74 OFFCURVE",
"143 136 OFFCURVE",
"143 213 CURVE SMOOTH",
"143 366 LINE SMOOTH",
"143 443 OFFCURVE",
"205 505 OFFCURVE",
"282 505 CURVE SMOOTH",
"359 505 OFFCURVE",
"421 443 OFFCURVE",
"421 366 CURVE SMOOTH",
"421 329 LINE",
"237 329 LINE SMOOTH",
"229 329 OFFCURVE",
"223 323 OFFCURVE",
"223 315 CURVE SMOOTH",
"223 271 LINE SMOOTH",
"223 263 OFFCURVE",
"229 257 OFFCURVE",
"237 257 CURVE SMOOTH",
"463 257 LINE SMOOTH",
"483 257 OFFCURVE",
"499 273 OFFCURVE",
"499 293 CURVE SMOOTH",
"499 361 LINE SMOOTH",
"499 482 OFFCURVE",
"402 579 OFFCURVE",
"282 579 CURVE SMOOTH",
"162 579 OFFCURVE",
"65 482 OFFCURVE",
"65 361 CURVE SMOOTH",
"65 218 LINE SMOOTH",
"65 97 OFFCURVE",
"162 0 OFFCURVE",
"282 0 CURVE SMOOTH"
);
}
);
width = 557;
}
);
leftKerningGroup = o;
leftMetricsKey = e;
rightKerningGroup = e;
rightMetricsKey = e;
},
{
glyphname = eogonek.ss01;
lastChange = "2016-03-12 01:06:38 +0000";
layers = (
{
anchors = (
{
name = bottom;
position = "{280, 0}";
},
{
name = ogonek;
position = "{412, 10}";
},
{
name = top;
position = "{282, 566}";
}
);
hints = (
{
horizontal = 1;
origin = "{0, 63}";
target = "{0, 8}";
},
{
horizontal = 1;
origin = "{0, 56}";
target = "{0, 22}";
},
{
horizontal = 1;
origin = "{0, 41}";
target = "{0, 34}";
},
{
horizontal = 1;
origin = "{0, 49}";
target = "{0, 29}";
},
{
origin = "{0, 53}";
target = "{0, 25}";
},
{
origin = "{0, 60}";
target = "{0, 11}";
},
{
origin = "{0, 33}";
target = "{0, 45}";
}
);
layerId = "DDABD3A5-4A8B-4D55-9B9E-1269DFBEF3A1";
paths = (
{
closed = 1;
nodes = (
"431 -197 LINE SMOOTH",
"439 -197 OFFCURVE",
"446 -190 OFFCURVE",
"446 -182 CURVE SMOOTH",
"446 -142 LINE SMOOTH",
"446 -134 OFFCURVE",
"439 -127 OFFCURVE",
"431 -127 CURVE SMOOTH",
"414 -127 LINE SMOOTH",
"393 -127 OFFCURVE",
"372 -120 OFFCURVE",
"372 -90 CURVE SMOOTH",
"372 -58 OFFCURVE",
"397 -32 OFFCURVE",
"428 0 CURVE SMOOTH",
"436 8 OFFCURVE",
"441 17 OFFCURVE",
"441 28 CURVE SMOOTH",
"441 60 LINE SMOOTH",
"441 68 OFFCURVE",
"435 74 OFFCURVE",
"427 74 CURVE SMOOTH",
"282 74 LINE SMOOTH",
"205 74 OFFCURVE",
"143 136 OFFCURVE",
"143 213 CURVE SMOOTH",
"143 366 LINE SMOOTH",
"143 443 OFFCURVE",
"205 505 OFFCURVE",
"282 505 CURVE SMOOTH",
"359 505 OFFCURVE",
"421 443 OFFCURVE",
"421 366 CURVE SMOOTH",
"421 329 LINE",
"237 329 LINE SMOOTH",
"229 329 OFFCURVE",
"223 323 OFFCURVE",
"223 315 CURVE SMOOTH",
"223 271 LINE SMOOTH",
"223 263 OFFCURVE",
"229 257 OFFCURVE",
"237 257 CURVE SMOOTH",
"463 257 LINE SMOOTH",
"483 257 OFFCURVE",
"499 273 OFFCURVE",
"499 293 CURVE SMOOTH",
"499 361 LINE SMOOTH",
"499 482 OFFCURVE",
"402 579 OFFCURVE",
"282 579 CURVE SMOOTH",
"162 579 OFFCURVE",
"65 482 OFFCURVE",
"65 361 CURVE SMOOTH",
"65 218 LINE SMOOTH",
"65 97 OFFCURVE",
"162 0 OFFCURVE",
"282 0 CURVE SMOOTH",
"360 0 LINE",
"329 -26 OFFCURVE",
"293 -67 OFFCURVE",
"293 -112 CURVE SMOOTH",
"293 -165 OFFCURVE",
"343 -197 OFFCURVE",
"401 -197 CURVE SMOOTH"
);
}
);
width = 557;
}
);
leftKerningGroup = o;
leftMetricsKey = e;
rightKerningGroup = e;
rightMetricsKey = e;
},
{
glyphname = f.ss01;
lastChange = "2016-03-12 01:06:38 +0000";
layers = (
{
anchors = (
{
name = bottom;
position = "{171, -197}";
},
{
name = top;
position = "{184, 759}";
}
);
hints = (
{
horizontal = 1;
origin = "{0, 31}";
target = "{0, 38}";
},
{
horizontal = 1;
origin = "{0, 26}";
target = "{0, 17}";
},
{
origin = "{0, 40}";
target = "{0, 3}";
}
);
layerId = "DDABD3A5-4A8B-4D55-9B9E-1269DFBEF3A1";
paths = (
{
closed = 1;
nodes = (
"194 -193 LINE SMOOTH",
"202 -193 OFFCURVE",
"208 -187 OFFCURVE",
"208 -179 CURVE SMOOTH",
"208 492 LINE",
"344 492 LINE SMOOTH",
"352 492 OFFCURVE",
"358 498 OFFCURVE",
"358 506 CURVE SMOOTH",
"358 552 LINE SMOOTH",
"358 560 OFFCURVE",
"352 566 OFFCURVE",
"344 566 CURVE SMOOTH",
"208 566 LINE",
"208 610 LINE SMOOTH",
"208 656 OFFCURVE",
"238 688 OFFCURVE",
"283 688 CURVE SMOOTH",
"364 688 LINE SMOOTH",
"372 688 OFFCURVE",
"378 694 OFFCURVE",
"378 702 CURVE SMOOTH",
"378 745 LINE SMOOTH",
"378 753 OFFCURVE",
"372 759 OFFCURVE",
"364 759 CURVE SMOOTH",
"284 759 LINE SMOOTH",
"184 759 OFFCURVE",
"130 690 OFFCURVE",
"130 606 CURVE SMOOTH",
"130 566 LINE",
"54 566 LINE SMOOTH",
"46 566 OFFCURVE",
"40 560 OFFCURVE",
"40 552 CURVE SMOOTH",
"40 506 LINE SMOOTH",
"40 498 OFFCURVE",
"46 492 OFFCURVE",
"54 492 CURVE SMOOTH",
"130 492 LINE",
"130 -179 LINE SMOOTH",
"130 -187 OFFCURVE",
"136 -193 OFFCURVE",
"144 -193 CURVE SMOOTH"
);
}
);
width = 408;
}
);
leftKerningGroup = f;
leftMetricsKey = f;
rightKerningGroup = f;
rightMetricsKey = f;
},
{
glyphname = oe.ss01;
lastChange = "2016-03-12 01:06:39 +0000";
layers = (
{
anchors = (
{
name = bottom;
position = "{463, 0}";
},
{
name = top;
position = "{463, 566}";
}
);
hints = (
{
horizontal = 1;
origin = "{0, 54}";
target = "{1, 13}";
},
{
horizontal = 1;
origin = "{0, 33}";
target = "{0, 26}";
},
{
horizontal = 1;
origin = "{0, 47}";
target = "{1, 6}";
},
{
horizontal = 1;
origin = "{0, 5}";
target = "{0, 14}";
},
{
origin = "{0, 51}";
target = "{1, 2}";
},
{
origin = "{1, 10}";
target = "{0, 17}";
},
{
origin = "{0, 25}";
target = "{0, 37}";
}
);
layerId = "DDABD3A5-4A8B-4D55-9B9E-1269DFBEF3A1";
paths = (
{
closed = 1;
nodes = (
"359 -13 OFFCURVE",
"426 27 OFFCURVE",
"465 87 CURVE",
"504 34 OFFCURVE",
"567 0 OFFCURVE",
"638 0 CURVE SMOOTH",
"783 0 LINE SMOOTH",
"791 0 OFFCURVE",
"797 6 OFFCURVE",
"797 14 CURVE SMOOTH",
"797 60 LINE SMOOTH",
"797 68 OFFCURVE",
"791 74 OFFCURVE",
"783 74 CURVE SMOOTH",
"638 74 LINE SMOOTH",
"561 74 OFFCURVE",
"499 136 OFFCURVE",
"499 213 CURVE SMOOTH",
"499 366 LINE SMOOTH",
"499 443 OFFCURVE",
"561 505 OFFCURVE",
"638 505 CURVE SMOOTH",
"715 505 OFFCURVE",
"777 443 OFFCURVE",
"777 366 CURVE SMOOTH",
"777 329 LINE",
"591 329 LINE SMOOTH",
"583 329 OFFCURVE",
"577 323 OFFCURVE",
"577 315 CURVE SMOOTH",
"577 271 LINE SMOOTH",
"577 263 OFFCURVE",
"583 257 OFFCURVE",
"591 257 CURVE SMOOTH",
"819 257 LINE SMOOTH",
"839 257 OFFCURVE",
"855 273 OFFCURVE",
"855 293 CURVE SMOOTH",
"855 361 LINE SMOOTH",
"855 482 OFFCURVE",
"758 579 OFFCURVE",
"638 579 CURVE SMOOTH",
"564 579 OFFCURVE",
"499 542 OFFCURVE",
"460 486 CURVE",
"421 542 OFFCURVE",
"356 579 OFFCURVE",
"282 579 CURVE SMOOTH",
"162 579 OFFCURVE",
"65 482 OFFCURVE",
"65 361 CURVE SMOOTH",
"65 205 LINE SMOOTH",
"65 84 OFFCURVE",
"162 -13 OFFCURVE",
"282 -13 CURVE SMOOTH"
);
},
{
closed = 1;
nodes = (
"205 61 OFFCURVE",
"143 123 OFFCURVE",
"143 200 CURVE SMOOTH",
"143 366 LINE SMOOTH",
"143 443 OFFCURVE",
"205 505 OFFCURVE",
"282 505 CURVE SMOOTH",
"359 505 OFFCURVE",
"421 443 OFFCURVE",
"421 366 CURVE SMOOTH",
"421 200 LINE SMOOTH",
"421 123 OFFCURVE",
"359 61 OFFCURVE",
"282 61 CURVE SMOOTH"
);
}
);
width = 913;
}
);
leftKerningGroup = o;
leftMetricsKey = o;
rightKerningGroup = e;
rightMetricsKey = e;
},
{
glyphname = fi;
lastChange = "2016-03-12 01:06:39 +0000";
layers = (
{
anchors = (
{
name = caret_1;
position = "{390, 0}";
}
);
hints = (
{
horizontal = 1;
origin = "{0, 53}";
target = "{0, 18}";
},
{
horizontal = 1;
origin = "{0, 41}";
target = "{0, 48}";
},
{
horizontal = 1;
origin = "{1, 15}";
target = "{1, 8}";
},
{
horizontal = 1;
origin = "{0, 36}";
target = "{0, 27}";
},
{
origin = "{0, 50}";
target = "{0, 3}";
},
{
origin = "{0, 6}";
target = "{0, 18}";
}
);
layerId = "DDABD3A5-4A8B-4D55-9B9E-1269DFBEF3A1";
paths = (
{
closed = 1;
nodes = (
"194 0 LINE SMOOTH",
"202 0 OFFCURVE",
"208 6 OFFCURVE",
"208 14 CURVE SMOOTH",
"208 492 LINE",
"532 492 LINE",
"532 36 LINE SMOOTH",
"532 16 OFFCURVE",
"548 0 OFFCURVE",
"568 0 CURVE SMOOTH",
"713 0 LINE SMOOTH",
"721 0 OFFCURVE",
"727 6 OFFCURVE",
"727 14 CURVE SMOOTH",
"727 60 LINE SMOOTH",
"727 68 OFFCURVE",
"721 74 OFFCURVE",
"713 74 CURVE SMOOTH",
"610 74 LINE",
"610 530 LINE SMOOTH",
"610 550 OFFCURVE",
"594 566 OFFCURVE",
"574 566 CURVE SMOOTH",
"208 566 LINE",
"208 610 LINE SMOOTH",
"208 656 OFFCURVE",
"238 688 OFFCURVE",
"283 688 CURVE SMOOTH",
"364 688 LINE SMOOTH",
"372 688 OFFCURVE",
"378 694 OFFCURVE",
"378 702 CURVE SMOOTH",
"378 745 LINE SMOOTH",
"378 753 OFFCURVE",
"372 759 OFFCURVE",
"364 759 CURVE SMOOTH",
"284 759 LINE SMOOTH",
"184 759 OFFCURVE",
"130 690 OFFCURVE",
"130 606 CURVE SMOOTH",
"130 566 LINE",
"54 566 LINE SMOOTH",
"46 566 OFFCURVE",
"40 560 OFFCURVE",
"40 552 CURVE SMOOTH",
"40 506 LINE SMOOTH",
"40 498 OFFCURVE",
"46 492 OFFCURVE",
"54 492 CURVE SMOOTH",
"130 492 LINE",
"130 14 LINE SMOOTH",
"130 6 OFFCURVE",
"136 0 OFFCURVE",
"144 0 CURVE SMOOTH"
);
},
{
closed = 1;
nodes = (
"595 664 LINE SMOOTH",
"603 664 OFFCURVE",
"609 670 OFFCURVE",
"609 678 CURVE SMOOTH",
"609 765 LINE SMOOTH",
"609 773 OFFCURVE",
"603 779 OFFCURVE",
"595 779 CURVE SMOOTH",
"547 779 LINE SMOOTH",
"539 779 OFFCURVE",
"533 773 OFFCURVE",
"533 765 CURVE SMOOTH",
"533 678 LINE SMOOTH",
"533 670 OFFCURVE",
"539 664 OFFCURVE",
"547 664 CURVE SMOOTH"
);
}
);
width = 762;
}
);
leftKerningGroup = f;
leftMetricsKey = f;
rightKerningGroup = i;
rightMetricsKey = i;
unicode = FB01;
},
{
glyphname = fl;
lastChange = "2016-03-12 01:06:38 +0000";
layers = (
{
anchors = (
{
name = caret_1;
position = "{387, 0}";
}
);
hints = (
{
horizontal = 1;
origin = "{0, 53}";
target = "{0, 31}";
},
{
horizontal = 1;
origin = "{0, 41}";
target = "{0, 48}";
},
{
horizontal = 1;
origin = "{0, 36}";
target = "{0, 17}";
},
{
origin = "{0, 50}";
target = "{0, 3}";
},
{
origin = "{0, 19}";
target = "{0, 31}";
}
);
layerId = "DDABD3A5-4A8B-4D55-9B9E-1269DFBEF3A1";
paths = (
{
closed = 1;
nodes = (
"194 0 LINE SMOOTH",
"202 0 OFFCURVE",
"208 6 OFFCURVE",
"208 14 CURVE SMOOTH",
"208 492 LINE",
"344 492 LINE SMOOTH",
"352 492 OFFCURVE",
"358 498 OFFCURVE",
"358 506 CURVE SMOOTH",
"358 552 LINE SMOOTH",
"358 560 OFFCURVE",
"352 566 OFFCURVE",
"344 566 CURVE SMOOTH",
"208 566 LINE",
"208 608 LINE SMOOTH",
"208 654 OFFCURVE",
"238 686 OFFCURVE",
"283 686 CURVE SMOOTH",
"547 686 LINE",
"547 36 LINE SMOOTH",
"547 16 OFFCURVE",
"563 0 OFFCURVE",
"583 0 CURVE SMOOTH",
"731 0 LINE SMOOTH",
"739 0 OFFCURVE",
"745 6 OFFCURVE",
"745 14 CURVE SMOOTH",
"745 60 LINE SMOOTH",
"745 68 OFFCURVE",
"739 74 OFFCURVE",
"731 74 CURVE SMOOTH",
"625 74 LINE",
"625 723 LINE SMOOTH",
"625 743 OFFCURVE",
"609 759 OFFCURVE",
"589 759 CURVE SMOOTH",
"284 759 LINE SMOOTH",
"184 759 OFFCURVE",
"130 690 OFFCURVE",
"130 606 CURVE SMOOTH",
"130 566 LINE",
"54 566 LINE SMOOTH",
"46 566 OFFCURVE",
"40 560 OFFCURVE",
"40 552 CURVE SMOOTH",
"40 506 LINE SMOOTH",
"40 498 OFFCURVE",
"46 492 OFFCURVE",
"54 492 CURVE SMOOTH",
"130 492 LINE",
"130 14 LINE SMOOTH",
"130 6 OFFCURVE",
"136 0 OFFCURVE",
"144 0 CURVE SMOOTH"
);
}
);
width = 775;
}
);
leftKerningGroup = f;
leftMetricsKey = f;
rightKerningGroup = l;
rightMetricsKey = l;
unicode = FB02;
},
{
glyphname = fi.ss01;
lastChange = "2016-03-12 01:06:39 +0000";
layers = (
{
anchors = (
{
name = caret_1;
position = "{390, 0}";
}
);
hints = (
{
horizontal = 1;
origin = "{0, 9}";
target = "{0, 18}";
},
{
horizontal = 1;
origin = "{0, 41}";
target = "{0, 48}";
},
{
horizontal = 1;
origin = "{1, 15}";
target = "{1, 8}";
},
{
horizontal = 1;
origin = "{0, 36}";
target = "{0, 27}";
},
{
origin = "{0, 50}";
target = "{0, 3}";
},
{
origin = "{0, 6}";
target = "{0, 18}";
}
);
layerId = "DDABD3A5-4A8B-4D55-9B9E-1269DFBEF3A1";
paths = (
{
closed = 1;
nodes = (
"194 -193 LINE SMOOTH",
"202 -193 OFFCURVE",
"208 -187 OFFCURVE",
"208 -179 CURVE SMOOTH",
"208 492 LINE",
"552 492 LINE",
"552 36 LINE SMOOTH",
"552 16 OFFCURVE",
"568 0 OFFCURVE",
"588 0 CURVE SMOOTH",
"733 0 LINE SMOOTH",
"741 0 OFFCURVE",
"747 6 OFFCURVE",
"747 14 CURVE SMOOTH",
"747 60 LINE SMOOTH",
"747 68 OFFCURVE",
"741 74 OFFCURVE",
"733 74 CURVE SMOOTH",
"630 74 LINE",
"630 530 LINE SMOOTH",
"630 550 OFFCURVE",
"614 566 OFFCURVE",
"594 566 CURVE SMOOTH",
"208 566 LINE",
"208 610 LINE SMOOTH",
"208 656 OFFCURVE",
"238 688 OFFCURVE",
"283 688 CURVE SMOOTH",
"364 688 LINE SMOOTH",
"372 688 OFFCURVE",
"378 694 OFFCURVE",
"378 702 CURVE SMOOTH",
"378 745 LINE SMOOTH",
"378 753 OFFCURVE",
"372 759 OFFCURVE",
"364 759 CURVE SMOOTH",
"284 759 LINE SMOOTH",
"184 759 OFFCURVE",
"130 690 OFFCURVE",
"130 606 CURVE SMOOTH",
"130 566 LINE",
"54 566 LINE SMOOTH",
"46 566 OFFCURVE",
"40 560 OFFCURVE",
"40 552 CURVE SMOOTH",
"40 506 LINE SMOOTH",
"40 498 OFFCURVE",
"46 492 OFFCURVE",
"54 492 CURVE SMOOTH",
"130 492 LINE",
"130 -179 LINE SMOOTH",
"130 -187 OFFCURVE",
"136 -193 OFFCURVE",
"144 -193 CURVE SMOOTH"
);
},
{
closed = 1;
nodes = (
"615 664 LINE SMOOTH",
"623 664 OFFCURVE",
"629 670 OFFCURVE",
"629 678 CURVE SMOOTH",
"629 765 LINE SMOOTH",
"629 773 OFFCURVE",
"623 779 OFFCURVE",
"615 779 CURVE SMOOTH",
"567 779 LINE SMOOTH",
"559 779 OFFCURVE",
"553 773 OFFCURVE",
"553 765 CURVE SMOOTH",
"553 678 LINE SMOOTH",
"553 670 OFFCURVE",
"559 664 OFFCURVE",
"567 664 CURVE SMOOTH"
);
}
);
width = 782;
}
);
leftKerningGroup = f;
leftMetricsKey = f;
rightKerningGroup = i;
rightMetricsKey = i;
},
{
glyphname = fl.ss01;
lastChange = "2016-03-12 01:06:38 +0000";
layers = (
{
anchors = (
{
name = caret_1;
position = "{387, 0}";
}
);
hints = (
{
horizontal = 1;
origin = "{0, 22}";
target = "{0, 31}";
},
{
horizontal = 1;
origin = "{0, 41}";
target = "{0, 48}";
},
{
horizontal = 1;
origin = "{0, 36}";
target = "{0, 17}";
},
{
origin = "{0, 50}";
target = "{0, 3}";
},
{
origin = "{0, 19}";
target = "{0, 31}";
}
);
layerId = "DDABD3A5-4A8B-4D55-9B9E-1269DFBEF3A1";
paths = (
{
closed = 1;
nodes = (
"194 -193 LINE SMOOTH",
"202 -193 OFFCURVE",
"208 -187 OFFCURVE",
"208 -179 CURVE SMOOTH",
"208 492 LINE",
"344 492 LINE SMOOTH",
"352 492 OFFCURVE",
"358 498 OFFCURVE",
"358 506 CURVE SMOOTH",
"358 552 LINE SMOOTH",
"358 560 OFFCURVE",
"352 566 OFFCURVE",
"344 566 CURVE SMOOTH",
"208 566 LINE",
"208 608 LINE SMOOTH",
"208 654 OFFCURVE",
"238 686 OFFCURVE",
"283 686 CURVE SMOOTH",
"547 686 LINE",
"547 36 LINE SMOOTH",
"547 16 OFFCURVE",
"563 0 OFFCURVE",
"583 0 CURVE SMOOTH",
"731 0 LINE SMOOTH",
"739 0 OFFCURVE",
"745 6 OFFCURVE",
"745 14 CURVE SMOOTH",
"745 60 LINE SMOOTH",
"745 68 OFFCURVE",
"739 74 OFFCURVE",
"731 74 CURVE SMOOTH",
"625 74 LINE",
"625 723 LINE SMOOTH",
"625 743 OFFCURVE",
"609 759 OFFCURVE",
"589 759 CURVE SMOOTH",
"284 759 LINE SMOOTH",
"184 759 OFFCURVE",
"130 690 OFFCURVE",
"130 606 CURVE SMOOTH",
"130 566 LINE",
"54 566 LINE SMOOTH",
"46 566 OFFCURVE",
"40 560 OFFCURVE",
"40 552 CURVE SMOOTH",
"40 506 LINE SMOOTH",
"40 498 OFFCURVE",
"46 492 OFFCURVE",
"54 492 CURVE SMOOTH",
"130 492 LINE",
"130 -179 LINE SMOOTH",
"130 -187 OFFCURVE",
"136 -193 OFFCURVE",
"144 -193 CURVE SMOOTH"
);
}
);
width = 775;
}
);
leftKerningGroup = f;
leftMetricsKey = f;
rightKerningGroup = l;
rightMetricsKey = l;
},
{
glyphname = ordfeminine;
lastChange = "2016-03-12 01:06:39 +0000";
layers = (
{
hints = (
{
horizontal = 1;
origin = "{0, 43}";
target = "{1, 12}";
},
{
horizontal = 1;
origin = "{0, 27}";
target = "{0, 14}";
},
{
origin = "{0, 40}";
target = "{1, 2}";
},
{
origin = "{1, 9}";
target = "{0, 10}";
}
);
layerId = "DDABD3A5-4A8B-4D55-9B9E-1269DFBEF3A1";
paths = (
{
closed = 1;
nodes = (
"204 379 OFFCURVE",
"239 396 OFFCURVE",
"263 426 CURVE",
"263 401 LINE SMOOTH",
"263 393 OFFCURVE",
"269 386 OFFCURVE",
"278 386 CURVE SMOOTH",
"293 386 LINE SMOOTH",
"301 386 OFFCURVE",
"307 393 OFFCURVE",
"307 401 CURVE SMOOTH",
"307 609 LINE SMOOTH",
"307 670 OFFCURVE",
"260 711 OFFCURVE",
"192 711 CURVE SMOOTH",
"143 711 OFFCURVE",
"104 690 OFFCURVE",
"81 654 CURVE SMOOTH",
"77 647 OFFCURVE",
"79 640 OFFCURVE",
"85 635 CURVE SMOOTH",
"100 625 LINE SMOOTH",
"109 619 OFFCURVE",
"115 621 OFFCURVE",
"121 629 CURVE SMOOTH",
"137 651 OFFCURVE",
"161 665 OFFCURVE",
"190 665 CURVE SMOOTH",
"231 665 OFFCURVE",
"260 641 OFFCURVE",
"260 609 CURVE SMOOTH",
"260 604 LINE SMOOTH",
"260 584 OFFCURVE",
"253 575 OFFCURVE",
"232 572 CURVE SMOOTH",
"208 569 OFFCURVE",
"187 566 OFFCURVE",
"160 562 CURVE SMOOTH",
"101 554 OFFCURVE",
"65 519 OFFCURVE",
"65 469 CURVE SMOOTH",
"65 415 OFFCURVE",
"106 379 OFFCURVE",
"164 379 CURVE SMOOTH"
);
},
{
closed = 1;
nodes = (
"134 423 OFFCURVE",
"112 442 OFFCURVE",
"112 471 CURVE SMOOTH",
"112 498 OFFCURVE",
"128 514 OFFCURVE",
"164 520 CURVE SMOOTH",
"208 526 OFFCURVE",
"230 530 OFFCURVE",
"262 533 CURVE",
"262 514 LINE SMOOTH",
"262 474 OFFCURVE",
"224 423 OFFCURVE",
"169 423 CURVE SMOOTH"
);
}
);
width = 387;
}
);
unicode = 00AA;
},
{
glyphname = ordmasculine;
lastChange = "2016-03-12 01:06:39 +0000";
layers = (
{
hints = (
{
horizontal = 1;
origin = "{0, 13}";
target = "{1, 13}";
},
{
horizontal = 1;
origin = "{1, 6}";
target = "{0, 6}";
},
{
origin = "{0, 10}";
target = "{1, 2}";
},
{
origin = "{1, 10}";
target = "{0, 2}";
}
);
layerId = "DDABD3A5-4A8B-4D55-9B9E-1269DFBEF3A1";
paths = (
{
closed = 1;
nodes = (
"266 379 OFFCURVE",
"321 434 OFFCURVE",
"321 502 CURVE SMOOTH",
"321 588 LINE SMOOTH",
"321 656 OFFCURVE",
"266 711 OFFCURVE",
"198 711 CURVE SMOOTH",
"130 711 OFFCURVE",
"75 656 OFFCURVE",
"75 588 CURVE SMOOTH",
"75 502 LINE SMOOTH",
"75 434 OFFCURVE",
"130 379 OFFCURVE",
"198 379 CURVE SMOOTH"
);
},
{
closed = 1;
nodes = (
"158 426 OFFCURVE",
"124 459 OFFCURVE",
"124 499 CURVE SMOOTH",
"124 591 LINE SMOOTH",
"124 631 OFFCURVE",
"158 664 OFFCURVE",
"198 664 CURVE SMOOTH",
"238 664 OFFCURVE",
"272 631 OFFCURVE",
"272 591 CURVE SMOOTH",
"272 499 LINE SMOOTH",
"272 459 OFFCURVE",
"238 426 OFFCURVE",
"198 426 CURVE SMOOTH"
);
}
);
width = 396;
}
);
unicode = 00BA;
},
{
glyphname = pi;
lastChange = "2016-03-12 01:06:38 +0000";
layers = (
{
hints = (
{
horizontal = 1;
origin = "{0, 33}";
target = "{0, 8}";
},
{
horizontal = 1;
origin = "{0, 21}";
target = "{0, 28}";
},
{
origin = "{0, 30}";
target = "{0, 37}";
},
{
origin = "{0, 40}";
target = "{0, 11}";
}
);
layerId = "DDABD3A5-4A8B-4D55-9B9E-1269DFBEF3A1";
paths = (
{
closed = 1;
nodes = (
"693 -5 LINE SMOOTH",
"701 -5 OFFCURVE",
"707 1 OFFCURVE",
"707 9 CURVE SMOOTH",
"707 49 LINE SMOOTH",
"707 57 OFFCURVE",
"701 63 OFFCURVE",
"693 63 CURVE SMOOTH",
"638 63 LINE SMOOTH",
"607 63 OFFCURVE",
"590 81 OFFCURVE",
"590 113 CURVE SMOOTH",
"590 492 LINE",
"693 492 LINE SMOOTH",
"701 492 OFFCURVE",
"707 498 OFFCURVE",
"707 506 CURVE SMOOTH",
"707 552 LINE SMOOTH",
"707 560 OFFCURVE",
"701 566 OFFCURVE",
"693 566 CURVE SMOOTH",
"79 566 LINE SMOOTH",
"71 566 OFFCURVE",
"65 560 OFFCURVE",
"65 552 CURVE SMOOTH",
"65 506 LINE SMOOTH",
"65 498 OFFCURVE",
"71 492 OFFCURVE",
"79 492 CURVE SMOOTH",
"182 492 LINE",
"182 14 LINE SMOOTH",
"182 6 OFFCURVE",
"188 0 OFFCURVE",
"196 0 CURVE SMOOTH",
"246 0 LINE SMOOTH",
"254 0 OFFCURVE",
"260 6 OFFCURVE",
"260 14 CURVE SMOOTH",
"260 492 LINE",
"512 492 LINE",
"512 116 LINE SMOOTH",
"512 39 OFFCURVE",
"556 -5 OFFCURVE",
"632 -5 CURVE SMOOTH"
);
}
);
width = 772;
}
);
unicode = 03C0;
},
{
glyphname = "alef-hb";
lastChange = "2016-03-12 01:06:38 +0000";
layers = (
{
anchors = (
{
name = bottom;
position = "{303, 0}";
},
{
name = bottomleft;
position = "{25, 0}";
},
{
name = center;
position = "{364, 411}";
},
{
name = top;
position = "{303, 566}";
},
{
name = topleft;
position = "{45, 566}";
}
);
hints = (
{
horizontal = 1;
origin = "{0, 53}";
target = "{0, 62}";
},
{
horizontal = 1;
origin = "{0, 18}";
target = "{0, 25}";
},
{
origin = "{0, 50}";
target = "{0, 62}";
},
{
origin = "{0, 27}";
target = "{0, 13}";
},
{
horizontal = 1;
origin = "{0, 34}";
target = down;
type = TopGhost;
},
{
horizontal = 1;
origin = "{0, 70}";
target = up;
type = BottomGhost;
}
);
layerId = "DDABD3A5-4A8B-4D55-9B9E-1269DFBEF3A1";
paths = (
{
closed = 1;
nodes = (
"469 -12 OFFCURVE",
"473 -11 OFFCURVE",
"477 -8 CURVE SMOOTH",
"507 11 LINE SMOOTH",
"513 15 OFFCURVE",
"517 22 OFFCURVE",
"517 29 CURVE SMOOTH",
"517 33 OFFCURVE",
"516 37 OFFCURVE",
"513 41 CURVE SMOOTH",
"384 230 LINE",
"483 246 OFFCURVE",
"536 319 OFFCURVE",
"536 402 CURVE SMOOTH",
"536 543 LINE SMOOTH",
"536 563 OFFCURVE",
"520 579 OFFCURVE",
"500 579 CURVE SMOOTH",
"380 579 LINE SMOOTH",
"372 579 OFFCURVE",
"366 573 OFFCURVE",
"366 565 CURVE SMOOTH",
"366 517 LINE SMOOTH",
"366 509 OFFCURVE",
"372 503 OFFCURVE",
"380 503 CURVE SMOOTH",
"458 503 LINE",
"458 397 LINE SMOOTH",
"458 334 OFFCURVE",
"409 299 OFFCURVE",
"341 292 CURVE",
"147 576 LINE SMOOTH",
"143 582 OFFCURVE",
"137 585 OFFCURVE",
"130 585 CURVE SMOOTH",
"126 585 OFFCURVE",
"122 584 OFFCURVE",
"118 581 CURVE SMOOTH",
"88 562 LINE SMOOTH",
"82 558 OFFCURVE",
"78 551 OFFCURVE",
"78 544 CURVE SMOOTH",
"78 540 OFFCURVE",
"79 536 OFFCURVE",
"82 532 CURVE SMOOTH",
"167 408 LINE",
"146 393 LINE SMOOTH",
"82 346 OFFCURVE",
"70 290 OFFCURVE",
"70 220 CURVE SMOOTH",
"70 36 LINE SMOOTH",
"70 16 OFFCURVE",
"86 0 OFFCURVE",
"106 0 CURVE SMOOTH",
"226 0 LINE SMOOTH",
"234 0 OFFCURVE",
"240 6 OFFCURVE",
"240 14 CURVE SMOOTH",
"240 62 LINE SMOOTH",
"240 70 OFFCURVE",
"234 76 OFFCURVE",
"226 76 CURVE SMOOTH",
"148 76 LINE",
"148 226 LINE SMOOTH",
"148 283 OFFCURVE",
"160 314 OFFCURVE",
"209 346 CURVE",
"448 -3 LINE SMOOTH",
"452 -9 OFFCURVE",
"458 -12 OFFCURVE",
"465 -12 CURVE SMOOTH"
);
}
);
width = 596;
}
);
leftKerningGroup = "alef-hb";
note = alef;
rightKerningGroup = "alef-hb";
unicode = 05D0;
},
{
glyphname = "bet-hb";
lastChange = "2016-03-12 01:06:38 +0000";
layers = (
{
anchors = (
{
name = bottom;
position = "{273, 0}";
},
{
name = bottomleft;
position = "{25, 0}";
},
{
name = center;
position = "{182, 293}";
},
{
name = top;
position = "{273, 566}";
},
{
name = topleft;
position = "{25, 566}";
}
);
hints = (
{
horizontal = 1;
origin = "{0, 30}";
target = "{0, 23}";
},
{
horizontal = 1;
origin = "{0, 13}";
target = "{0, 20}";
},
{
origin = "{0, 22}";
target = "{0, 8}";
}
);
layerId = "DDABD3A5-4A8B-4D55-9B9E-1269DFBEF3A1";
paths = (
{
closed = 1;
nodes = (
"486 0 LINE SMOOTH",
"494 0 OFFCURVE",
"500 6 OFFCURVE",
"500 14 CURVE SMOOTH",
"500 62 LINE SMOOTH",
"500 70 OFFCURVE",
"494 76 OFFCURVE",
"486 76 CURVE SMOOTH",
"415 76 LINE",
"415 543 LINE SMOOTH",
"415 563 OFFCURVE",
"399 579 OFFCURVE",
"379 579 CURVE SMOOTH",
"79 579 LINE SMOOTH",
"71 579 OFFCURVE",
"65 573 OFFCURVE",
"65 565 CURVE SMOOTH",
"65 517 LINE SMOOTH",
"65 509 OFFCURVE",
"71 503 OFFCURVE",
"79 503 CURVE SMOOTH",
"337 503 LINE",
"337 76 LINE",
"59 76 LINE SMOOTH",
"51 76 OFFCURVE",
"45 70 OFFCURVE",
"45 62 CURVE SMOOTH",
"45 14 LINE SMOOTH",
"45 6 OFFCURVE",
"51 0 OFFCURVE",
"59 0 CURVE SMOOTH"
);
}
);
width = 525;
}
);
leftKerningGroup = "bet-hb";
note = bet;
rightKerningGroup = "bet-hb";
unicode = 05D1;
},
{
glyphname = "gimel-hb";
lastChange = "2016-03-12 01:06:38 +0000";
layers = (
{
anchors = (
{
name = bottom;
position = "{169, 0}";
},
{
name = bottomleft;
position = "{25, 0}";
},
{
name = center;
position = "{133, 329}";
},
{
name = top;
position = "{195, 566}";
},
{
name = topleft;
position = "{52, 566}";
}
);
hints = (
{
horizontal = 1;
origin = "{0, 39}";
target = "{0, 32}";
},
{
horizontal = 1;
origin = "{0, 18}";
target = "{0, 25}";
},
{
horizontal = 1;
origin = "{0, 9}";
target = up;
type = BottomGhost;
},
{
origin = "{0, 4}";
target = "{0, 13}";
}
);
layerId = "DDABD3A5-4A8B-4D55-9B9E-1269DFBEF3A1";
paths = (
{
closed = 1;
nodes = (
"53 -4 LINE SMOOTH",
"91 -4 OFFCURVE",
"116 11 OFFCURVE",
"166 45 CURVE SMOOTH",
"230 89 LINE",
"232 89 LINE",
"232 14 LINE SMOOTH",
"232 6 OFFCURVE",
"238 0 OFFCURVE",
"246 0 CURVE SMOOTH",
"294 0 LINE SMOOTH",
"302 0 OFFCURVE",
"308 6 OFFCURVE",
"308 14 CURVE SMOOTH",
"308 543 LINE SMOOTH",
"308 563 OFFCURVE",
"292 579 OFFCURVE",
"272 579 CURVE SMOOTH",
"90 579 LINE SMOOTH",
"82 579 OFFCURVE",
"76 573 OFFCURVE",
"76 565 CURVE SMOOTH",
"76 517 LINE SMOOTH",
"76 509 OFFCURVE",
"82 503 OFFCURVE",
"90 503 CURVE SMOOTH",
"230 503 LINE",
"230 173 LINE",
"164 130 LINE SMOOTH",
"99 88 OFFCURVE",
"82 74 OFFCURVE",
"55 74 CURVE SMOOTH",
"39 74 LINE SMOOTH",
"31 74 OFFCURVE",
"25 68 OFFCURVE",
"25 60 CURVE SMOOTH",
"25 10 LINE SMOOTH",
"25 2 OFFCURVE",
"30 -4 OFFCURVE",
"39 -4 CURVE SMOOTH"
);
}
);
width = 393;
}
);
leftKerningGroup = "gimel-hb";
note = gimel;
rightKerningGroup = "gimel-hb";
unicode = 05D2;
},
{
glyphname = "dalet-hb";
lastChange = "2016-03-12 01:06:39 +0000";
layers = (
{
anchors = (
{
name = bottom;
position = "{355, 0}";
},
{
name = bottomleft;
position = "{10, 0}";
},
{
name = center;
position = "{178, 283}";
},
{
name = top;
position = "{268, 566}";
},
{
name = topleft;
position = "{16, 566}";
}
);
hints = (
{
horizontal = 1;
origin = "{0, 25}";
target = up;
type = BottomGhost;
},
{
horizontal = 1;
origin = "{0, 13}";
target = "{0, 20}";
},
{
origin = "{0, 22}";
target = "{0, 3}";
}
);
layerId = "DDABD3A5-4A8B-4D55-9B9E-1269DFBEF3A1";
paths = (
{
closed = 1;
nodes = (
"374 0 LINE SMOOTH",
"382 0 OFFCURVE",
"388 6 OFFCURVE",
"388 14 CURVE SMOOTH",
"388 503 LINE",
"479 503 LINE SMOOTH",
"487 503 OFFCURVE",
"493 509 OFFCURVE",
"493 517 CURVE SMOOTH",
"493 565 LINE SMOOTH",
"493 573 OFFCURVE",
"487 579 OFFCURVE",
"479 579 CURVE SMOOTH",
"59 579 LINE SMOOTH",
"51 579 OFFCURVE",
"45 573 OFFCURVE",
"45 565 CURVE SMOOTH",
"45 517 LINE SMOOTH",
"45 509 OFFCURVE",
"51 503 OFFCURVE",
"59 503 CURVE SMOOTH",
"310 503 LINE",
"310 14 LINE SMOOTH",
"310 6 OFFCURVE",
"316 0 OFFCURVE",
"324 0 CURVE SMOOTH"
);
}
);
width = 533;
}
);
leftKerningGroup = "dalet-hb";
note = dalet;
rightKerningGroup = "dalet-hb";
unicode = 05D3;
},
{
glyphname = "he-hb";
lastChange = "2016-03-12 01:06:39 +0000";
layers = (
{
anchors = (
{
name = bottom;
position = "{299, 0}";
},
{
name = bottomleft;
position = "{30, 0}";
},
{
name = center;
position = "{299, 283}";
},
{
name = top;
position = "{299, 566}";
},
{
name = topleft;
position = "{40, 566}";
}
);
hints = (
{
horizontal = 1;
origin = "{1, 15}";
target = up;
type = BottomGhost;
},
{
horizontal = 1;
origin = "{0, 7}";
target = "{0, 15}";
},
{
origin = "{1, 12}";
target = "{1, 3}";
},
{
origin = "{0, 17}";
target = "{0, 3}";
}
);
layerId = "DDABD3A5-4A8B-4D55-9B9E-1269DFBEF3A1";
paths = (
{
closed = 1;
nodes = (
"498 0 LINE SMOOTH",
"506 0 OFFCURVE",
"512 6 OFFCURVE",
"512 14 CURVE SMOOTH",
"512 543 LINE SMOOTH",
"512 563 OFFCURVE",
"496 579 OFFCURVE",
"476 579 CURVE SMOOTH",
"99 579 LINE SMOOTH",
"91 579 OFFCURVE",
"85 573 OFFCURVE",
"85 565 CURVE SMOOTH",
"85 518 LINE SMOOTH",
"85 510 OFFCURVE",
"91 504 OFFCURVE",
"99 504 CURVE SMOOTH",
"434 503 LINE",
"434 14 LINE SMOOTH",
"434 6 OFFCURVE",
"440 0 OFFCURVE",
"448 0 CURVE SMOOTH"
);
},
{
closed = 1;
nodes = (
"149 0 LINE SMOOTH",
"157 0 OFFCURVE",
"163 6 OFFCURVE",
"163 14 CURVE SMOOTH",
"163 314 LINE SMOOTH",
"163 322 OFFCURVE",
"157 328 OFFCURVE",
"149 328 CURVE SMOOTH",
"99 328 LINE SMOOTH",
"91 328 OFFCURVE",
"85 322 OFFCURVE",
"85 314 CURVE SMOOTH",
"85 14 LINE SMOOTH",
"85 6 OFFCURVE",
"91 0 OFFCURVE",
"99 0 CURVE SMOOTH"
);
}
);
width = 597;
}
);
leftKerningGroup = "he-hb";
note = he;
rightKerningGroup = "he-hb";
unicode = 05D4;
},
{
glyphname = "vav-hb";
lastChange = "2016-03-12 01:06:39 +0000";
layers = (
{
anchors = (
{
name = bottom;
position = "{187, 0}";
},
{
name = bottomleft;
position = "{30, 0}";
},
{
name = center;
position = "{66, 283}";
},
{
name = top;
position = "{148, 566}";
},
{
name = topleft;
position = "{154, 596}";
}
);
hints = (
{
horizontal = 1;
origin = "{0, 20}";
target = up;
type = BottomGhost;
},
{
horizontal = 1;
origin = "{0, 8}";
target = "{0, 15}";
},
{
origin = "{0, 17}";
target = "{0, 3}";
}
);
layerId = "DDABD3A5-4A8B-4D55-9B9E-1269DFBEF3A1";
paths = (
{
closed = 1;
nodes = (
"211 0 LINE SMOOTH",
"219 0 OFFCURVE",
"225 6 OFFCURVE",
"225 14 CURVE SMOOTH",
"225 543 LINE SMOOTH",
"225 563 OFFCURVE",
"209 579 OFFCURVE",
"189 579 CURVE SMOOTH",
"64 579 LINE SMOOTH",
"56 579 OFFCURVE",
"50 573 OFFCURVE",
"50 565 CURVE SMOOTH",
"50 517 LINE SMOOTH",
"50 509 OFFCURVE",
"56 503 OFFCURVE",
"64 503 CURVE SMOOTH",
"147 503 LINE",
"147 14 LINE SMOOTH",
"147 6 OFFCURVE",
"153 0 OFFCURVE",
"161 0 CURVE SMOOTH"
);
}
);
width = 310;
}
);
leftKerningGroup = "vav-hb";
note = vav;
rightKerningGroup = "vav-hb";
unicode = 05D5;
},
{
glyphname = "zayin-hb";
lastChange = "2016-03-12 01:06:39 +0000";
layers = (
{
anchors = (
{
name = bottom;
position = "{195, 0}";
},
{
name = bottomleft;
position = "{6, 0}";
},
{
name = center;
position = "{277, 366}";
},
{
name = top;
position = "{173, 566}";
},
{
name = topleft;
position = "{16, 566}";
}
);
hints = (
{
horizontal = 1;
origin = "{0, 36}";
target = up;
type = BottomGhost;
},
{
horizontal = 1;
origin = "{0, 18}";
target = "{0, 25}";
},
{
origin = "{0, 29}";
target = "{0, 7}";
},
{
origin = "{0, 33}";
target = "{0, 3}";
}
);
layerId = "DDABD3A5-4A8B-4D55-9B9E-1269DFBEF3A1";
paths = (
{
closed = 1;
nodes = (
"220 0 LINE SMOOTH",
"228 0 OFFCURVE",
"234 5 OFFCURVE",
"234 14 CURVE SMOOTH",
"234 63 LINE SMOOTH",
"234 175 OFFCURVE",
"189 271 OFFCURVE",
"189 355 CURVE SMOOTH",
"189 430 OFFCURVE",
"226 484 OFFCURVE",
"309 507 CURVE SMOOTH",
"316 509 OFFCURVE",
"321 516 OFFCURVE",
"321 523 CURVE SMOOTH",
"321 565 LINE SMOOTH",
"321 573 OFFCURVE",
"315 579 OFFCURVE",
"307 579 CURVE SMOOTH",
"60 579 LINE SMOOTH",
"52 579 OFFCURVE",
"46 574 OFFCURVE",
"46 565 CURVE SMOOTH",
"45 518 LINE SMOOTH",
"45 509 OFFCURVE",
"52 503 OFFCURVE",
"60 503 CURVE SMOOTH",
"171 503 LINE",
"124 456 OFFCURVE",
"111 406 OFFCURVE",
"111 357 CURVE SMOOTH",
"111 270 OFFCURVE",
"156 167 OFFCURVE",
"156 63 CURVE SMOOTH",
"156 14 LINE SMOOTH",
"156 6 OFFCURVE",
"162 0 OFFCURVE",
"170 0 CURVE SMOOTH"
);
}
);
width = 361;
}
);
leftKerningGroup = "zayin-hb";
note = zayin;
rightKerningGroup = "zayin-hb";
unicode = 05D6;
},
{
glyphname = "het-hb";
lastChange = "2016-03-12 01:06:39 +0000";
layers = (
{
anchors = (
{
name = bottom;
position = "{321, 0}";
},
{
name = bottomleft;
position = "{27, 0}";
},
{
name = center;
position = "{321, 283}";
},
{
name = top;
position = "{321, 566}";
},
{
name = topleft;
position = "{37, 566}";
}
);
hints = (
{
horizontal = 1;
origin = "{0, 35}";
target = up;
type = BottomGhost;
},
{
horizontal = 1;
origin = "{0, 23}";
target = "{0, 30}";
},
{
origin = "{0, 32}";
target = "{0, 3}";
},
{
origin = "{0, 6}";
target = "{0, 13}";
}
);
layerId = "DDABD3A5-4A8B-4D55-9B9E-1269DFBEF3A1";
paths = (
{
closed = 1;
nodes = (
"175 0 LINE SMOOTH",
"183 0 OFFCURVE",
"189 6 OFFCURVE",
"189 14 CURVE SMOOTH",
"189 503 LINE",
"432 503 LINE",
"432 14 LINE SMOOTH",
"432 6 OFFCURVE",
"438 0 OFFCURVE",
"446 0 CURVE SMOOTH",
"496 0 LINE SMOOTH",
"504 0 OFFCURVE",
"510 6 OFFCURVE",
"510 14 CURVE SMOOTH",
"510 503 LINE",
"563 503 LINE SMOOTH",
"571 503 OFFCURVE",
"577 509 OFFCURVE",
"577 517 CURVE SMOOTH",
"577 565 LINE SMOOTH",
"577 573 OFFCURVE",
"571 579 OFFCURVE",
"563 579 CURVE SMOOTH",
"58 579 LINE SMOOTH",
"50 579 OFFCURVE",
"44 573 OFFCURVE",
"44 565 CURVE SMOOTH",
"44 517 LINE SMOOTH",
"44 509 OFFCURVE",
"50 503 OFFCURVE",
"58 503 CURVE SMOOTH",
"111 503 LINE",
"111 14 LINE SMOOTH",
"111 6 OFFCURVE",
"117 0 OFFCURVE",
"125 0 CURVE SMOOTH"
);
}
);
width = 622;
}
);
leftKerningGroup = "het-hb";
note = het;
rightKerningGroup = "het-hb";
unicode = 05D7;
},
{
glyphname = "tet-hb";
lastChange = "2016-03-12 01:06:39 +0000";
layers = (
{
anchors = (
{
name = bottom;
position = "{298, 0}";
},
{
name = bottomleft;
position = "{20, 0}";
},
{
name = center;
position = "{351, 186}";
},
{
name = top;
position = "{304, 566}";
},
{
name = topleft;
position = "{60, 566}";
}
);
hints = (
{
horizontal = 1;
origin = "{0, 42}";
target = "{0, 30}";
},
{
horizontal = 1;
origin = "{0, 35}";
target = down;
type = TopGhost;
},
{
horizontal = 1;
origin = "{0, 22}";
target = "{0, 7}";
},
{
origin = "{0, 39}";
target = "{0, 30}";
},
{
origin = "{0, 11}";
target = "{0, 18}";
},
{
origin = "{0, 26}";
target = "{0, 3}";
}
);
layerId = "DDABD3A5-4A8B-4D55-9B9E-1269DFBEF3A1";
paths = (
{
closed = 1;
nodes = (
"343 0 LINE SMOOTH",
"452 0 OFFCURVE",
"542 90 OFFCURVE",
"542 199 CURVE SMOOTH",
"542 454 LINE SMOOTH",
"542 538 OFFCURVE",
"485 589 OFFCURVE",
"412 589 CURVE SMOOTH",
"332 589 OFFCURVE",
"272 528 OFFCURVE",
"272 454 CURVE SMOOTH",
"272 305 LINE SMOOTH",
"272 297 OFFCURVE",
"278 291 OFFCURVE",
"286 291 CURVE SMOOTH",
"336 291 LINE SMOOTH",
"344 291 OFFCURVE",
"350 297 OFFCURVE",
"350 305 CURVE SMOOTH",
"350 457 LINE SMOOTH",
"350 489 OFFCURVE",
"374 515 OFFCURVE",
"408 515 CURVE SMOOTH",
"438 515 OFFCURVE",
"465 495 OFFCURVE",
"465 455 CURVE SMOOTH",
"465 207 LINE SMOOTH",
"465 133 OFFCURVE",
"407 75 OFFCURVE",
"333 75 CURVE SMOOTH",
"163 75 LINE",
"163 565 LINE SMOOTH",
"163 573 OFFCURVE",
"157 579 OFFCURVE",
"149 579 CURVE SMOOTH",
"99 579 LINE SMOOTH",
"91 579 OFFCURVE",
"85 573 OFFCURVE",
"85 565 CURVE SMOOTH",
"85 36 LINE SMOOTH",
"85 16 OFFCURVE",
"101 0 OFFCURVE",
"121 0 CURVE SMOOTH"
);
}
);
width = 607;
}
);
leftKerningGroup = "tet-hb";
note = tet;
rightKerningGroup = "tet-hb";
unicode = 05D8;
},
{
glyphname = "yod-hb";
lastChange = "2016-03-12 01:06:39 +0000";
layers = (
{
anchors = (
{
name = bottom;
position = "{186, 0}";
},
{
name = bottomleft;
position = "{20, 0}";
},
{
name = center;
position = "{50, 384}";
},
{
name = top;
position = "{144, 566}";
},
{
name = topleft;
position = "{30, 566}";
}
);
hints = (
{
horizontal = 1;
origin = "{0, 8}";
target = "{0, 15}";
},
{
origin = "{0, 17}";
target = "{0, 3}";
}
);
layerId = "DDABD3A5-4A8B-4D55-9B9E-1269DFBEF3A1";
paths = (
{
closed = 1;
nodes = (
"211 251 LINE SMOOTH",
"219 251 OFFCURVE",
"225 257 OFFCURVE",
"225 265 CURVE SMOOTH",
"225 543 LINE SMOOTH",
"225 563 OFFCURVE",
"209 579 OFFCURVE",
"189 579 CURVE SMOOTH",
"64 579 LINE SMOOTH",
"56 579 OFFCURVE",
"50 573 OFFCURVE",
"50 565 CURVE SMOOTH",
"50 517 LINE SMOOTH",
"50 509 OFFCURVE",
"56 503 OFFCURVE",
"64 503 CURVE SMOOTH",
"147 503 LINE",
"147 265 LINE SMOOTH",
"147 257 OFFCURVE",
"153 251 OFFCURVE",
"161 251 CURVE SMOOTH"
);
}
);
width = 285;
}
);
leftKerningGroup = "yod-hb";
note = yod;
rightKerningGroup = "yod-hb";
unicode = 05D9;
},
{
glyphname = "finalkaf-hb";
lastChange = "2016-03-12 01:06:39 +0000";
layers = (
{
anchors = (
{
name = bottom;
position = "{131, 406}";
},
{
name = bottomleft;
position = "{-5, 0}";
},
{
name = center;
position = "{246, 283}";
},
{
name = top;
position = "{246, 566}";
},
{
name = topleft;
position = "{5, 566}";
}
);
hints = (
{
horizontal = 1;
origin = "{0, 30}";
target = "{0, 8}";
},
{
horizontal = 1;
origin = "{0, 18}";
target = "{0, 25}";
},
{
origin = "{0, 27}";
target = "{0, 8}";
}
);
layerId = "DDABD3A5-4A8B-4D55-9B9E-1269DFBEF3A1";
paths = (
{
closed = 1;
nodes = (
"461 -145 LINE SMOOTH",
"469 -145 OFFCURVE",
"475 -139 OFFCURVE",
"475 -131 CURVE SMOOTH",
"475 -84 LINE SMOOTH",
"475 -76 OFFCURVE",
"469 -70 OFFCURVE",
"461 -70 CURVE SMOOTH",
"393 -70 LINE",
"393 503 LINE",
"463 503 LINE SMOOTH",
"471 503 OFFCURVE",
"477 509 OFFCURVE",
"477 517 CURVE SMOOTH",
"477 565 LINE SMOOTH",
"477 573 OFFCURVE",
"471 579 OFFCURVE",
"463 579 CURVE SMOOTH",
"59 579 LINE SMOOTH",
"51 579 OFFCURVE",
"45 573 OFFCURVE",
"45 565 CURVE SMOOTH",
"45 517 LINE SMOOTH",
"45 509 OFFCURVE",
"51 503 OFFCURVE",
"59 503 CURVE SMOOTH",
"315 503 LINE",
"315 -109 LINE SMOOTH",
"315 -129 OFFCURVE",
"331 -145 OFFCURVE",
"351 -145 CURVE SMOOTH"
);
}
);
width = 522;
}
);
leftKerningGroup = "finalkaf-hb";
note = finalkaf;
rightKerningGroup = "finalkaf-hb";
unicode = 05DA;
},
{
glyphname = "kaf-hb";
lastChange = "2016-03-12 01:06:39 +0000";
layers = (
{
anchors = (
{
name = bottom;
position = "{245, 0}";
},
{
name = bottomleft;
position = "{10, 0}";
},
{
name = center;
position = "{199, 293}";
},
{
name = top;
position = "{252, 566}";
},
{
name = topleft;
position = "{23, 566}";
}
);
hints = (
{
horizontal = 1;
origin = "{0, 28}";
target = "{0, 21}";
},
{
horizontal = 1;
origin = "{0, 8}";
target = "{0, 15}";
},
{
origin = "{0, 17}";
target = "{0, 3}";
}
);
layerId = "DDABD3A5-4A8B-4D55-9B9E-1269DFBEF3A1";
paths = (
{
closed = 1;
nodes = (
"316 0 LINE SMOOTH",
"386 0 OFFCURVE",
"443 55 OFFCURVE",
"443 123 CURVE SMOOTH",
"443 543 LINE SMOOTH",
"443 563 OFFCURVE",
"427 579 OFFCURVE",
"407 579 CURVE SMOOTH",
"83 579 LINE SMOOTH",
"75 579 OFFCURVE",
"69 573 OFFCURVE",
"69 565 CURVE SMOOTH",
"69 517 LINE SMOOTH",
"69 509 OFFCURVE",
"75 503 OFFCURVE",
"83 503 CURVE SMOOTH",
"365 503 LINE",
"365 123 LINE SMOOTH",
"365 97 OFFCURVE",
"343 76 OFFCURVE",
"316 76 CURVE SMOOTH",
"74 76 LINE SMOOTH",
"66 76 OFFCURVE",
"60 70 OFFCURVE",
"60 62 CURVE SMOOTH",
"60 14 LINE SMOOTH",
"60 6 OFFCURVE",
"66 0 OFFCURVE",
"74 0 CURVE SMOOTH"
);
}
);
width = 518;
}
);
leftKerningGroup = "kaf-hb";
note = kaf;
rightKerningGroup = "kaf-hb";
unicode = 05DB;
},
{
glyphname = "lamed-hb";
lastChange = "2016-03-12 01:06:39 +0000";
layers = (
{
anchors = (
{
name = bottom;
position = "{211, 0}";
},
{
name = bottomleft;
position = "{0, 0}";
},
{
name = center;
position = "{170, 389}";
},
{
name = top;
position = "{237, 566}";
},
{
name = topleft;
position = "{-62, 566}";
}
);
hints = (
{
horizontal = 1;
origin = "{0, 33}";
target = up;
type = BottomGhost;
},
{
horizontal = 1;
origin = "{0, 12}";
target = "{0, 24}";
},
{
origin = "{0, 21}";
target = "{0, 12}";
},
{
origin = "{0, 30}";
target = "{0, 3}";
},
{
origin = "{0, 26}";
target = "{0, 7}";
}
);
layerId = "DDABD3A5-4A8B-4D55-9B9E-1269DFBEF3A1";
paths = (
{
closed = 1;
nodes = (
"236 0 LINE SMOOTH",
"244 0 OFFCURVE",
"250 6 OFFCURVE",
"250 14 CURVE SMOOTH",
"250 92 LINE SMOOTH",
"250 273 OFFCURVE",
"444 290 OFFCURVE",
"444 494 CURVE SMOOTH",
"444 543 LINE SMOOTH",
"444 563 OFFCURVE",
"428 579 OFFCURVE",
"408 579 CURVE SMOOTH",
"123 579 LINE",
"123 715 LINE SMOOTH",
"123 723 OFFCURVE",
"117 729 OFFCURVE",
"109 729 CURVE SMOOTH",
"59 729 LINE SMOOTH",
"51 729 OFFCURVE",
"45 723 OFFCURVE",
"45 715 CURVE SMOOTH",
"45 553 LINE SMOOTH",
"45 524 OFFCURVE",
"66 503 OFFCURVE",
"95 503 CURVE SMOOTH",
"368 503 LINE",
"368 481 LINE SMOOTH",
"368 345 OFFCURVE",
"170 306 OFFCURVE",
"170 82 CURVE SMOOTH",
"170 14 LINE SMOOTH",
"170 6 OFFCURVE",
"176 0 OFFCURVE",
"184 0 CURVE SMOOTH"
);
}
);
width = 489;
}
);
leftKerningGroup = "lamed-hb";
note = lamed;
rightKerningGroup = "lamed-hb";
unicode = 05DC;
},
{
glyphname = "finalmem-hb";
lastChange = "2016-03-12 01:06:39 +0000";
layers = (
{
anchors = (
{
name = bottom;
position = "{291, 0}";
},
{
name = bottomleft;
position = "{7, 0}";
},
{
name = center;
position = "{291, 283}";
},
{
name = top;
position = "{291, 566}";
},
{
name = topleft;
position = "{7, 566}";
}
);
hints = (
{
horizontal = 1;
origin = "{0, 20}";
target = "{1, 3}";
},
{
horizontal = 1;
origin = "{0, 8}";
target = "{0, 15}";
},
{
origin = "{0, 17}";
target = "{1, 3}";
},
{
origin = "{1, 2}";
target = "{0, 3}";
}
);
layerId = "DDABD3A5-4A8B-4D55-9B9E-1269DFBEF3A1";
paths = (
{
closed = 1;
nodes = (
"485 0 LINE SMOOTH",
"505 0 OFFCURVE",
"521 16 OFFCURVE",
"521 36 CURVE SMOOTH",
"521 543 LINE SMOOTH",
"521 563 OFFCURVE",
"505 579 OFFCURVE",
"485 579 CURVE SMOOTH",
"59 579 LINE SMOOTH",
"51 579 OFFCURVE",
"45 573 OFFCURVE",
"45 565 CURVE SMOOTH",
"45 517 LINE SMOOTH",
"45 509 OFFCURVE",
"51 503 OFFCURVE",
"59 503 CURVE SMOOTH",
"123 503 LINE",
"123 36 LINE SMOOTH",
"123 16 OFFCURVE",
"139 0 OFFCURVE",
"159 0 CURVE SMOOTH"
);
},
{
closed = 1;
nodes = (
"201 503 LINE",
"443 503 LINE",
"443 76 LINE",
"201 76 LINE"
);
}
);
width = 606;
}
);
note = finalmem;
unicode = 05DD;
},
{
glyphname = "mem-hb";
lastChange = "2016-03-12 01:06:39 +0000";
layers = (
{
anchors = (
{
name = bottom;
position = "{318, 0}";
},
{
name = bottomleft;
position = "{17, 0}";
},
{
name = center;
position = "{323, 293}";
},
{
name = top;
position = "{296, 566}";
},
{
name = topleft;
position = "{27, 566}";
}
);
hints = (
{
horizontal = 1;
origin = "{0, 50}";
target = "{0, 15}";
},
{
horizontal = 1;
origin = "{0, 38}";
target = "{0, 45}";
},
{
horizontal = 1;
origin = "{0, 7}";
target = "{0, 30}";
},
{
origin = "{0, 47}";
target = "{0, 3}";
},
{
origin = "{0, 11}";
target = "{0, 26}";
}
);
layerId = "DDABD3A5-4A8B-4D55-9B9E-1269DFBEF3A1";
paths = (
{
closed = 1;
nodes = (
"178 0 LINE SMOOTH",
"186 0 OFFCURVE",
"192 6 OFFCURVE",
"192 14 CURVE SMOOTH",
"192 371 LINE SMOOTH",
"192 456 OFFCURVE",
"251 516 OFFCURVE",
"337 516 CURVE SMOOTH",
"409 516 OFFCURVE",
"458 467 OFFCURVE",
"458 395 CURVE SMOOTH",
"458 124 LINE SMOOTH",
"458 98 OFFCURVE",
"437 76 OFFCURVE",
"410 76 CURVE SMOOTH",
"312 76 LINE SMOOTH",
"304 76 OFFCURVE",
"298 70 OFFCURVE",
"298 62 CURVE SMOOTH",
"298 14 LINE SMOOTH",
"298 6 OFFCURVE",
"304 0 OFFCURVE",
"312 0 CURVE SMOOTH",
"411 0 LINE SMOOTH",
"479 0 OFFCURVE",
"535 54 OFFCURVE",
"536 123 CURVE SMOOTH",
"536 414 LINE SMOOTH",
"536 506 OFFCURVE",
"463 589 OFFCURVE",
"350 589 CURVE SMOOTH",
"280 589 OFFCURVE",
"224 556 OFFCURVE",
"188 509 CURVE",
"188 554 LINE SMOOTH",
"188 568 OFFCURVE",
"177 579 OFFCURVE",
"163 579 CURVE SMOOTH",
"64 579 LINE SMOOTH",
"56 579 OFFCURVE",
"50 573 OFFCURVE",
"50 565 CURVE SMOOTH",
"50 517 LINE SMOOTH",
"50 509 OFFCURVE",
"56 503 OFFCURVE",
"64 503 CURVE SMOOTH",
"114 503 LINE",
"114 14 LINE SMOOTH",
"114 6 OFFCURVE",
"120 0 OFFCURVE",
"128 0 CURVE SMOOTH"
);
}
);
width = 606;
}
);
leftKerningGroup = "mem-hb";
note = mem;
rightKerningGroup = "mem-hb";
unicode = 05DE;
},
{
glyphname = "finalnun-hb";
lastChange = "2016-03-12 01:06:39 +0000";
layers = (
{
hints = (
{
horizontal = 1;
origin = "{0, 25}";
target = "{0, 8}";
},
{
horizontal = 1;
origin = "{0, 13}";
target = "{0, 20}";
},
{
origin = "{0, 22}";
target = "{0, 8}";
}
);
layerId = "DDABD3A5-4A8B-4D55-9B9E-1269DFBEF3A1";
paths = (
{
closed = 1;
nodes = (
"288 -145 LINE SMOOTH",
"296 -145 OFFCURVE",
"302 -139 OFFCURVE",
"302 -131 CURVE SMOOTH",
"302 -84 LINE SMOOTH",
"302 -76 OFFCURVE",
"296 -70 OFFCURVE",
"288 -70 CURVE SMOOTH",
"220 -70 LINE",
"220 543 LINE SMOOTH",
"220 563 OFFCURVE",
"204 579 OFFCURVE",
"184 579 CURVE SMOOTH",
"59 579 LINE SMOOTH",
"51 579 OFFCURVE",
"45 573 OFFCURVE",
"45 565 CURVE SMOOTH",
"45 517 LINE SMOOTH",
"45 509 OFFCURVE",
"51 503 OFFCURVE",
"59 503 CURVE SMOOTH",
"142 503 LINE",
"142 -109 LINE SMOOTH",
"142 -129 OFFCURVE",
"158 -145 OFFCURVE",
"178 -145 CURVE SMOOTH"
);
}
);
width = 302;
}
);
note = finalnun;
unicode = 05DF;
},
{
glyphname = "nun-hb";
lastChange = "2016-03-12 01:06:39 +0000";
layers = (
{
anchors = (
{
name = bottom;
position = "{153, 0}";
},
{
name = bottomleft;
position = "{15, 0}";
},
{
name = center;
position = "{90, 283}";
},
{
name = top;
position = "{169, 566}";
},
{
name = topleft;
position = "{51, 566}";
}
);
hints = (
{
horizontal = 1;
origin = "{0, 28}";
target = "{0, 21}";
},
{
horizontal = 1;
origin = "{0, 8}";
target = "{0, 15}";
},
{
origin = "{0, 17}";
target = "{0, 3}";
}
);
layerId = "DDABD3A5-4A8B-4D55-9B9E-1269DFBEF3A1";
paths = (
{
closed = 1;
nodes = (
"139 0 LINE SMOOTH",
"207 0 OFFCURVE",
"267 59 OFFCURVE",
"267 128 CURVE SMOOTH",
"267 543 LINE SMOOTH",
"267 563 OFFCURVE",
"251 579 OFFCURVE",
"231 579 CURVE SMOOTH",
"84 579 LINE SMOOTH",
"76 579 OFFCURVE",
"70 573 OFFCURVE",
"70 565 CURVE SMOOTH",
"70 517 LINE SMOOTH",
"70 509 OFFCURVE",
"76 503 OFFCURVE",
"84 503 CURVE SMOOTH",
"189 503 LINE",
"189 128 LINE SMOOTH",
"189 99 OFFCURVE",
"166 76 OFFCURVE",
"137 76 CURVE SMOOTH",
"54 76 LINE SMOOTH",
"46 76 OFFCURVE",
"40 70 OFFCURVE",
"40 62 CURVE SMOOTH",
"40 14 LINE SMOOTH",
"40 6 OFFCURVE",
"46 0 OFFCURVE",
"54 0 CURVE SMOOTH"
);
}
);
width = 342;
}
);
leftKerningGroup = "nun-hb";
note = nun;
rightKerningGroup = "nun-hb";
unicode = 05E0;
},
